<svg xmlns="http://www.w3.org/2000/svg" width="96" height="96" viewBox="0 0 96 96">
<g>
<path d="M 81.55,14.45 L 84.00,16.91 L 84.00,48.08 L 84.00,43.25 L 83.99,40.30 L 83.99,38.95 L 83.98,36.33 L 83.97,35.14 L 83.96,32.83 L 83.95,31.79 L 83.93,29.78 L 83.92,28.88 L 83.89,27.15 L 83.87,26.38 L 83.80,23.55 L 83.74,22.48 L 83.63,20.56 L 83.55,19.89 L 83.39,18.72 L 83.29,18.36 L 83.07,17.80 L 82.94,17.69 L 82.66,17.58 L 82.50,17.64 L 82.07,18.00 L 81.83,18.47 L 81.73,18.84 L 81.54,19.71 L 81.46,20.33 L 81.32,21.70 L 81.27,22.62 L 81.17,24.61 L 81.14,25.88 L 81.08,28.61 L 81.05,30.28 L 81.02,33.85 L 81.01,35.99 L 81.00,40.51 L 81.00,43.17 L 80.98,48.67 L 80.95,52.09 L 80.93,53.66 L 80.87,56.71 L 80.84,58.09 L 80.77,60.74 L 80.72,61.91 L 80.63,64.13 L 80.57,65.07 L 80.46,66.82 L 80.39,67.51 L 80.26,68.77 L 80.19,69.20 L 80.06,69.85 L 80.19,69.20 L 80.26,68.77 L 80.39,67.51 L 80.46,66.82 L 80.57,65.06 L 80.63,64.13 L 80.72,61.90 L 80.77,60.73 L 80.84,58.08 L 80.87,56.70 L 80.93,53.64 L 80.95,52.06 L 80.98,48.64 L 81.00,43.14 L 81.00,40.46 L 80.99,35.91 L 80.98,33.76 L 80.94,30.15 L 80.92,28.46 L 80.86,25.69 L 80.82,24.39 L 80.72,22.34 L 80.66,21.39 L 80.52,19.93 L 80.44,19.26 L 80.24,18.28 L 80.14,17.84 L 79.88,17.22 L 79.43,16.57 L 79.26,16.40 L 78.75,16.11 L 78.45,15.98 L 77.57,15.75 L 77.08,15.65 L 75.69,15.48 L 74.92,15.40 L 72.88,15.28 L 71.77,15.22 L 68.93,15.14 L 67.39,15.10 L 63.61,15.05 L 62.60,15.04 L 60.37,15.03 L 59.22,15.02 L 56.70,15.01 L 55.41,15.01 L 52.59,15.00 L 48.00,15.00 L 46.39,15.00 L 43.41,15.00 L 41.96,15.00 L 39.30,15.01 L 38.00,15.02 L 35.63,15.03 L 34.48,15.04 L 32.39,15.05 L 30.37,15.08 L 27.07,15.14 L 25.54,15.18 L 23.12,15.28 L 22.00,15.33 L 20.31,15.48 L 19.54,15.56 L 18.43,15.75 L 17.93,15.86 L 17.25,16.11 L 16.57,16.57 L 16.40,16.74 L 16.12,17.23 L 15.98,17.51 L 15.76,18.30 L 15.65,18.75 L 15.48,19.99 L 15.40,20.67 L 15.28,22.46 L 15.22,23.43 L 15.14,25.90 L 15.11,27.23 L 15.06,30.49 L 15.04,32.23 L 15.01,36.42 L 15.01,37.53 L 15.00,39.94 L 15.00,43.87 L 15.00,46.21 L 15.02,50.36 L 15.03,52.35 L 15.06,55.84 L 15.09,57.50 L 15.15,60.37 L 15.18,61.73 L 15.25,63.46 L 15.25,63.40 L 15.14,61.09 L 15.09,59.76 L 14.99,56.99 L 14.95,55.42 L 14.88,52.18 L 14.85,50.39 L 14.79,46.69 L 14.77,44.67 L 14.69,39.19 L 14.63,35.83 L 14.59,34.30 L 14.50,31.37 L 14.46,30.06 L 14.36,27.57 L 14.31,26.50 L 14.19,24.47 L 14.13,23.64 L 14.01,22.11 L 13.94,21.54 L 13.80,20.53 L 13.73,20.23 L 13.58,19.77 L 13.50,19.75 L 13.27,20.18 L 13.12,20.96 L 13.05,21.59 L 12.92,23.01 L 12.86,23.95 L 12.74,26.00 L 12.69,27.25 L 12.59,29.90 L 12.54,31.45 L 12.45,34.69 L 12.41,36.53 L 12.34,40.36 L 12.31,42.49 L 12.26,46.88 L 12.24,49.28 L 12.00,75.70 L 12.00,16.91 L 14.45,14.45 L 16.91,12.00 L 79.09,12.00 M 18.39,71.36 L 19.03,71.44 L 20.74,71.57 L 21.68,71.63 L 24.04,71.73 L 25.30,71.78 L 28.35,71.85 L 29.97,71.89 L 33.76,71.94 L 35.76,71.96 L 40.34,71.98 L 48.16,72.00 L 48.09,72.00 L 43.71,72.00 L 40.99,71.99 L 39.73,71.99 L 34.94,71.96 L 32.90,71.94 L 29.06,71.89 L 27.46,71.86 L 24.48,71.78 L 23.27,71.73 L 21.05,71.62 L 20.19,71.55 L 18.63,71.41 L 18.06,71.32 L 17.84,71.28 M 80.04,69.92 L 79.96,70.07 L 80.04,69.92 Z" fill="rgba(30,101,255,1)"/>
<path d="M 12.00,79.09 L 11.97,79.06 L 12.00,75.70 M 53.29,72.00 L 54.92,72.00 L 57.88,71.99 L 59.31,71.99 L 61.89,71.98 L 63.13,71.97 L 65.36,71.96 L 66.43,71.95 L 68.34,71.92 L 69.25,71.91 L 70.86,71.88 L 72.40,71.84 L 74.71,71.73 L 75.75,71.66 L 77.21,71.49 L 77.86,71.39 L 78.71,71.15 L 79.08,71.01 L 79.52,70.68 L 79.96,70.07 L 79.52,70.68 L 79.08,71.01 L 78.71,71.15 L 77.87,71.39 L 77.22,71.49 L 75.75,71.66 L 74.72,71.73 L 72.42,71.84 L 70.88,71.88 L 69.28,71.91 L 68.37,71.92 L 66.47,71.95 L 65.39,71.96 L 63.17,71.97 L 61.93,71.98 L 59.36,71.99 L 57.93,71.99 L 54.98,72.00 L 53.35,72.00 L 50.00,72.00 L 49.93,72.00 M 15.09,59.76 L 15.14,61.09 L 15.25,63.40 L 15.31,64.49 L 15.43,66.32 L 15.50,67.17 L 15.65,68.51 L 15.72,69.12 L 15.88,69.96 L 16.14,70.67 L 16.25,70.80 L 16.76,71.03 L 17.07,71.14 L 17.84,71.28 L 17.26,71.20 L 16.90,71.10 L 16.31,70.91 L 16.20,70.80 L 15.90,70.24 L 15.73,69.61 L 15.65,69.16 L 15.51,68.18 L 15.45,67.55 L 15.33,66.19 L 15.28,65.36 L 15.19,63.61 L 15.16,62.57 L 15.09,60.40 L 15.07,59.16 M 82.94,17.69 L 83.07,17.80 L 83.29,18.36 L 83.39,18.72 L 83.55,19.89 L 83.63,20.56 L 83.74,22.48 L 83.80,23.55 L 83.87,26.38 L 83.89,27.15 L 83.92,28.88 L 83.93,29.78 L 83.95,31.79 L 83.96,32.83 L 83.97,35.14 L 83.98,36.33 L 83.99,38.95 L 83.99,40.30 L 84.00,43.25 L 84.00,48.08 L 84.00,54.55 L 84.00,50.78 L 83.99,48.48 L 83.99,47.42 L 83.97,43.43 L 83.95,41.79 L 83.90,38.72 L 83.87,37.48 L 83.79,35.21 L 83.73,34.34 L 83.62,32.76 L 83.54,32.19 L 83.38,31.19 L 83.28,30.86 L 83.06,30.32 L 82.94,30.19 L 82.66,30.00 L 82.50,30.00 L 82.07,30.15 L 81.83,30.43 L 81.73,30.69 L 81.54,31.29 L 81.46,31.74 L 81.32,32.74 L 81.27,33.43 L 81.17,34.92 L 81.14,35.88 L 81.07,37.94 L 81.05,39.22 L 81.02,41.94 L 81.01,43.57 L 81.00,47.03 L 81.00,49.07 L 80.92,56.92 L 80.87,59.27 L 80.83,60.34 L 80.76,62.42 L 80.71,63.35 L 80.62,65.12 L 80.56,65.88 L 80.45,67.31 L 80.38,67.88 L 80.25,68.93 L 80.18,69.30 L 80.06,69.85 L 80.19,69.20 L 80.26,68.77 L 80.39,67.51 L 80.46,66.82 L 80.57,65.07 L 80.63,64.13 L 80.72,61.91 L 80.77,60.74 L 80.84,58.09 L 80.87,56.71 L 80.93,53.66 L 80.95,52.09 L 80.98,48.67 L 81.00,43.17 L 81.00,40.51 L 81.01,35.99 L 81.02,33.85 L 81.05,30.28 L 81.08,28.61 L 81.14,25.88 L 81.17,24.61 L 81.27,22.62 L 81.32,21.70 L 81.46,20.33 L 81.54,19.71 L 81.73,18.84 L 81.83,18.47 L 82.07,18.00 L 82.50,17.64 L 82.66,17.58 M 13.58,19.77 L 13.73,20.23 L 13.80,20.53 L 13.94,21.54 L 14.01,22.11 L 14.13,23.64 L 14.19,24.47 L 14.31,26.50 L 14.36,27.57 L 14.46,30.06 L 14.50,31.37 L 14.54,32.80 L 14.54,32.76 L 14.38,31.96 L 14.28,31.70 L 14.06,31.26 L 13.93,31.15 L 13.66,31.00 L 13.50,31.00 L 13.06,31.18 L 12.82,31.53 L 12.72,31.85 L 12.53,32.59 L 12.50,32.81 L 12.54,31.45 L 12.59,29.90 L 12.69,27.25 L 12.74,26.00 L 12.86,23.95 L 12.92,23.01 L 13.05,21.59 L 13.12,20.96 L 13.27,20.18 L 13.50,19.75 Z" fill="rgba(50,89,255,1)"/>
<path d="M 84.00,79.09 L 81.55,81.55 L 82.95,79.84 L 83.26,79.17 L 83.38,78.73 L 83.60,77.80 L 83.68,77.18 L 83.82,75.83 L 83.86,74.95 L 83.94,73.04 L 83.96,71.83 L 83.99,69.22 L 83.99,67.60 L 84.00,64.14 M 12.02,70.61 L 12.04,71.83 L 12.10,74.07 L 12.14,74.95 L 12.24,76.56 L 12.32,77.18 L 12.50,78.30 L 12.62,78.73 L 12.88,79.52 L 13.05,79.84 L 13.85,80.94 L 12.00,79.09 L 12.00,62.05 L 12.01,67.60 M 83.99,57.15 L 83.97,54.41 L 83.94,53.27 L 83.90,51.14 L 83.86,50.29 L 83.78,48.70 L 83.73,48.09 L 83.61,46.98 L 83.53,46.57 L 83.37,45.86 L 83.27,45.63 L 82.82,45.00 L 82.50,45.00 L 81.74,45.46 L 81.55,45.84 L 81.48,46.12 L 81.34,46.76 L 81.28,47.18 L 81.18,48.10 L 81.15,48.68 L 81.08,49.94 L 81.06,50.70 L 81.02,52.34 L 81.01,53.31 L 81.00,55.36 L 81.00,56.57 L 80.92,61.21 L 80.79,64.08 L 80.70,65.30 L 80.49,67.58 L 80.37,68.40 L 80.24,69.16 L 80.17,69.44 L 80.05,69.87 L 80.18,69.30 L 80.25,68.93 L 80.38,67.88 L 80.45,67.31 L 80.56,65.88 L 80.62,65.12 L 80.71,63.35 L 80.76,62.42 L 80.83,60.34 L 80.87,59.27 L 80.92,56.92 L 81.00,49.07 L 81.00,47.03 L 81.01,43.57 L 81.02,41.94 L 81.05,39.22 L 81.07,37.94 L 81.14,35.88 L 81.17,34.92 L 81.27,33.43 L 81.32,32.74 L 81.46,31.74 L 81.54,31.29 L 81.73,30.69 L 81.83,30.43 L 82.07,30.15 L 82.50,30.00 L 82.66,30.00 L 82.94,30.19 L 83.06,30.32 L 83.28,30.86 L 83.38,31.19 L 83.54,32.19 L 83.62,32.76 L 83.73,34.34 L 83.79,35.21 L 83.87,37.48 L 83.90,38.72 L 83.95,41.79 L 83.97,43.43 L 83.99,47.42 L 83.99,48.48 L 84.00,50.78 L 84.00,54.55 L 84.00,62.05 M 12.01,48.07 L 12.02,45.99 L 12.05,42.55 L 12.07,40.94 L 12.13,38.34 L 12.17,37.13 L 12.27,35.26 L 12.32,34.40 L 12.46,33.15 L 12.53,32.59 L 12.72,31.85 L 12.82,31.53 L 13.06,31.18 L 13.50,31.00 L 13.66,31.00 L 13.93,31.15 L 14.06,31.26 L 14.28,31.70 L 14.38,31.96 L 14.54,32.76 L 14.61,33.21 L 14.73,34.47 L 14.78,35.16 L 14.86,36.95 L 14.90,37.92 L 14.95,40.33 L 14.97,41.62 L 14.99,44.74 L 15.00,50.30 L 15.00,52.01 L 15.02,55.07 L 15.03,56.55 L 15.07,59.15 L 15.09,60.40 L 15.16,62.57 L 15.19,63.61 L 15.28,65.36 L 15.33,66.19 L 15.45,67.55 L 15.51,68.18 L 15.65,69.16 L 15.73,69.61 L 15.76,69.73 L 15.67,69.51 L 15.40,67.96 L 15.30,66.84 L 15.12,64.36 L 15.07,62.77 L 15.00,59.36 L 15.00,57.30 L 14.99,53.82 L 14.96,51.86 L 14.94,51.05 L 14.89,49.52 L 14.86,48.90 L 14.77,47.75 L 14.72,47.30 L 14.60,46.48 L 14.52,46.18 L 14.36,45.65 L 14.26,45.48 L 13.81,45.00 L 13.50,45.00 L 12.73,45.63 L 12.54,46.17 L 12.47,46.57 L 12.33,47.48 L 12.27,48.09 L 12.17,49.43 L 12.14,50.29 L 12.08,52.13 L 12.06,53.27 L 12.02,55.70 L 12.01,57.15 L 12.00,60.23 L 12.00,52.46 Z" fill="rgba(82,77,255,1)"/>
<path d="M 39.46,40.76 L 38.75,40.80 L 39.46,40.76 M 49.10,28.36 L 49.93,29.12 L 50.30,29.62 L 50.79,31.27 L 51.20,34.84 L 51.41,38.84 L 51.26,38.05 L 51.19,37.25 L 50.93,35.54 L 50.66,34.79 L 50.43,34.56 L 49.91,34.19 L 49.52,34.11 L 48.63,34.00 L 48.00,34.00 L 46.48,34.11 L 45.79,34.33 L 45.57,34.56 L 45.19,35.11 L 45.07,35.54 L 44.88,36.54 L 44.81,37.25 L 44.59,38.73 L 44.80,34.84 L 44.85,33.88 L 45.02,32.31 L 45.11,31.58 L 45.38,30.44 L 45.53,29.92 L 45.89,29.21 L 46.55,28.62 L 47.33,28.32 L 48.54,28.28 Z" fill="rgba(118,195,255,1)"/>
<path d="M 13.88,80.97 L 13.85,80.94 L 13.64,80.66 M 83.27,45.63 L 83.37,45.86 L 83.53,46.57 L 83.61,46.98 L 83.73,48.09 L 83.78,48.70 L 83.86,50.29 L 83.90,51.14 L 83.94,53.27 L 83.97,54.41 L 83.99,57.15 L 84.00,62.05 L 84.00,64.14 L 83.99,67.60 L 83.99,69.22 L 83.96,71.83 L 83.94,73.04 L 83.89,74.20 L 83.88,72.70 L 83.87,71.69 L 83.82,69.55 L 83.78,68.26 L 83.61,64.27 L 83.44,62.05 L 83.33,61.17 L 83.11,59.56 L 82.98,58.99 L 82.72,58.02 L 82.58,57.78 L 82.30,57.48 L 82.16,57.58 L 81.87,57.97 L 81.74,58.44 L 81.46,59.56 L 81.34,60.40 L 81.10,62.27 L 81.00,63.50 L 80.54,67.07 L 80.70,65.30 L 80.79,64.08 L 80.92,61.21 L 81.00,56.57 L 81.00,55.36 L 81.01,53.31 L 81.02,52.34 L 81.06,50.70 L 81.08,49.94 L 81.15,48.68 L 81.18,48.10 L 81.28,47.18 L 81.34,46.76 L 81.48,46.12 L 81.55,45.84 L 81.74,45.46 L 82.50,45.00 L 82.82,45.00 M 33.76,71.94 L 35.76,71.96 L 40.34,71.98 L 48.16,72.00 L 50.00,72.00 L 53.35,72.00 L 54.98,72.00 L 57.93,71.99 L 59.36,71.99 L 60.97,71.98 L 59.56,72.01 L 52.06,72.09 L 48.18,72.10 L 40.42,72.08 L 36.76,72.02 L 33.16,71.96 L 31.48,71.92 L 30.12,71.89 M 79.80,70.58 L 79.69,70.75 L 79.20,70.92 L 79.52,70.68 L 79.95,70.09 M 14.26,45.48 L 14.36,45.65 L 14.52,46.18 L 14.60,46.48 L 14.72,47.30 L 14.77,47.75 L 14.86,48.90 L 14.89,49.52 L 14.94,51.05 L 14.96,51.86 L 14.99,53.82 L 15.00,57.30 L 15.00,59.36 L 15.07,62.77 L 15.12,64.36 L 15.30,66.84 L 15.40,67.96 L 15.67,69.51 L 16.20,70.80 L 15.73,69.88 L 15.46,68.88 L 15.35,68.25 L 15.00,65.39 L 15.00,63.80 L 14.93,61.00 L 14.80,59.66 L 14.69,59.22 L 14.42,58.47 L 14.22,58.27 L 13.79,58.00 L 13.50,58.00 L 12.74,58.42 L 12.40,59.23 L 12.29,60.01 L 12.19,60.85 L 12.15,61.38 L 12.08,62.53 L 12.06,63.22 L 12.02,64.71 L 12.01,65.59 L 12.01,66.72 L 12.00,62.05 L 12.00,60.23 L 12.01,57.15 L 12.02,55.70 L 12.06,53.27 L 12.08,52.13 L 12.14,50.29 L 12.17,49.43 L 12.27,48.09 L 12.33,47.48 L 12.47,46.57 L 12.54,46.17 L 12.73,45.63 L 13.50,45.00 L 13.81,45.00 Z" fill="rgba(115,63,255,1)"/>
<path d="M 35.22,46.56 L 35.21,46.56 L 35.21,46.56 M 37.11,46.52 L 37.89,46.32 L 37.11,46.52 M 33.86,45.92 L 34.28,46.17 L 34.78,46.38 L 34.28,46.17 L 33.87,45.93 L 33.33,45.12 L 33.00,43.44 L 33.00,43.39 L 33.33,45.09 M 63.00,44.37 L 62.59,45.34 L 63.00,44.34 M 49.52,34.11 L 49.91,34.19 L 50.43,34.56 L 50.66,34.79 L 50.93,35.54 L 51.19,37.25 L 51.26,38.05 L 51.47,39.12 L 51.60,39.58 L 52.20,40.12 L 52.59,40.34 L 53.95,40.57 L 54.35,40.62 L 55.37,40.69 L 57.25,40.80 L 57.92,40.83 L 59.03,40.90 L 59.56,40.94 L 60.41,41.03 L 60.82,41.07 L 60.58,41.06 L 59.77,41.02 L 59.27,41.01 L 58.20,41.00 L 57.56,41.00 L 53.53,40.71 L 52.52,40.51 L 52.17,40.39 L 51.58,40.14 L 51.50,40.00 L 50.22,39.29 L 48.79,39.00 L 48.00,39.00 L 45.78,39.29 L 44.67,39.73 L 44.50,40.00 L 43.83,40.39 L 43.01,40.62 L 42.47,40.71 L 39.94,41.00 L 38.44,41.00 L 36.75,41.01 L 35.82,41.04 L 35.45,41.06 L 35.32,41.07 L 35.62,41.03 L 36.02,40.98 L 36.99,40.90 L 38.75,40.80 L 39.46,40.76 L 40.63,40.69 L 41.18,40.66 L 42.05,40.57 L 42.86,40.48 L 43.80,40.12 L 44.18,39.89 L 44.53,39.12 L 44.81,37.25 L 44.88,36.54 L 45.07,35.54 L 45.19,35.11 L 45.57,34.56 L 45.79,34.33 L 46.48,34.11 L 48.00,34.00 L 48.63,34.00 M 18.23,23.59 L 18.33,24.07 L 18.58,24.67 L 18.51,24.61 L 18.41,24.48 L 18.29,24.03 L 18.20,23.52 L 18.22,23.04 M 22.47,22.03 L 22.02,22.50 L 21.75,22.77 L 21.88,22.63 L 23.22,21.20 M 23.72,18.44 L 24.05,18.57 L 24.42,18.87 L 24.56,19.04 L 24.49,19.50 L 24.40,19.76 L 24.04,20.24 L 21.80,19.64 L 19.81,19.17 L 19.06,19.12 L 19.07,19.09 L 19.90,18.38 L 20.36,18.10 L 21.55,17.97 M 62.56,45.41 L 61.25,46.08 L 62.57,45.40 Z" fill="rgba(142,187,255,1)"/>
<path d="M 82.78,80.09 L 83.35,79.09 L 83.53,78.50 L 83.67,77.89 L 83.53,78.72 L 82.97,79.89 L 81.58,81.51 L 79.09,84.00 L 81.55,81.55 M 12.93,79.64 L 13.25,80.12 L 13.97,81.06 L 13.88,80.97 L 13.10,79.93 L 12.76,79.38 L 12.66,78.98 M 14.22,58.27 L 14.42,58.47 L 14.69,59.22 L 14.80,59.66 L 14.93,61.00 L 15.00,63.80 L 15.00,65.39 L 15.35,68.25 L 15.46,68.88 L 15.73,69.88 L 15.94,70.29 L 15.82,70.15 L 15.64,69.89 L 14.85,68.95 L 14.37,68.54 L 14.15,68.44 L 13.72,68.32 L 13.53,68.37 L 13.16,68.53 L 13.00,68.71 L 12.70,69.15 L 12.58,69.47 L 12.35,70.18 L 12.26,70.63 L 12.11,71.60 L 12.07,72.18 L 12.03,72.93 L 12.01,71.84 L 12.00,68.55 L 12.00,67.46 L 12.01,65.59 L 12.02,64.71 L 12.06,63.22 L 12.08,62.53 L 12.15,61.38 L 12.19,60.85 L 12.29,60.01 L 12.40,59.23 L 12.74,58.42 L 13.50,58.00 L 13.79,58.00 M 79.13,70.99 L 78.77,71.13 L 77.94,71.38 L 77.31,71.48 L 75.86,71.66 L 74.83,71.73 L 72.54,71.84 L 71.00,71.88 L 69.39,71.91 L 68.47,71.93 L 66.56,71.95 L 65.48,71.96 L 63.24,71.98 L 61.98,71.98 L 60.87,71.99 L 61.38,71.98 L 64.81,71.90 L 66.49,71.86 L 69.54,71.75 L 71.00,71.69 L 73.56,71.56 L 74.76,71.49 L 76.71,71.33 L 77.59,71.25 L 78.81,71.06 L 79.21,70.92 M 17.19,71.11 L 17.73,71.21 L 19.39,71.38 L 20.30,71.46 L 22.62,71.60 L 23.84,71.67 L 26.70,71.78 L 28.19,71.84 L 31.48,71.92 L 33.16,71.96 L 34.37,71.98 L 33.90,71.98 L 31.47,71.97 L 30.38,71.96 L 28.29,71.94 L 27.37,71.93 L 25.61,71.90 L 24.84,71.88 L 22.04,71.79 L 21.01,71.72 L 19.17,71.57 L 18.53,71.47 L 17.41,71.24 L 17.05,71.09 L 16.99,71.06 M 82.58,57.78 L 82.72,58.02 L 82.98,58.99 L 83.11,59.56 L 83.33,61.17 L 83.44,62.05 L 83.61,64.27 L 83.78,68.26 L 83.82,69.55 L 83.83,69.90 L 83.80,69.63 L 83.68,69.20 L 83.42,68.47 L 83.23,68.28 L 82.81,68.00 L 82.54,68.00 L 81.19,68.59 L 80.29,69.45 L 80.00,70.00 L 79.96,70.06 L 80.04,69.79 L 80.16,69.34 L 80.40,68.10 L 81.00,63.50 L 81.10,62.27 L 81.34,60.40 L 81.46,59.56 L 81.74,58.44 L 81.87,57.97 L 82.16,57.58 L 82.30,57.48 Z" fill="rgba(140,53,255,1)"/>
<path d="M 13.97,81.06 L 13.89,80.96 L 14.20,81.27 L 16.91,84.00 L 14.45,81.55 M 74.98,80.97 L 75.96,80.96 L 75.05,81.03 L 74.65,80.88 L 74.00,80.44 L 74.00,80.39 L 74.60,80.81 M 22.79,80.50 L 22.47,80.74 L 22.24,80.82 L 21.13,81.02 L 20.59,80.97 L 21.13,81.02 L 22.24,80.82 L 22.47,80.74 L 22.79,80.50 L 22.80,80.50 M 83.23,68.28 L 83.42,68.47 L 83.68,69.20 L 83.80,69.63 L 83.93,70.91 L 84.00,73.55 L 84.00,74.68 L 83.90,76.43 L 83.83,77.24 L 83.76,77.53 L 83.59,77.17 L 82.97,76.98 L 82.55,77.07 L 81.66,77.38 L 81.17,77.71 L 80.19,78.47 L 80.12,78.54 L 80.54,77.83 L 81.00,76.18 L 81.00,75.99 L 80.82,75.67 L 80.69,75.51 L 80.09,75.27 L 79.73,75.15 L 78.53,74.97 L 77.83,74.89 L 75.84,74.76 L 75.28,74.73 L 73.98,74.69 L 73.29,74.66 L 71.72,74.63 L 70.91,74.61 L 69.05,74.58 L 68.08,74.57 L 65.91,74.55 L 64.78,74.54 L 62.27,74.52 L 60.97,74.52 L 58.10,74.51 L 56.61,74.51 L 53.35,74.50 L 48.00,74.50 L 46.11,74.50 L 42.65,74.50 L 40.97,74.50 L 37.90,74.51 L 36.42,74.51 L 33.73,74.52 L 32.43,74.53 L 30.09,74.55 L 28.96,74.56 L 26.95,74.58 L 25.98,74.59 L 24.28,74.63 L 23.46,74.64 L 22.02,74.69 L 21.34,74.71 L 20.16,74.76 L 19.05,74.82 L 17.47,74.97 L 16.78,75.06 L 15.91,75.27 L 15.54,75.38 L 15.18,75.67 L 15.00,76.18 L 15.00,76.64 L 15.46,77.83 L 16.57,79.43 L 16.57,79.43 L 14.95,78.42 L 13.73,78.11 L 13.25,78.20 L 12.46,78.47 L 12.31,78.02 L 12.11,76.66 L 12.00,74.10 L 12.00,73.40 L 12.07,72.18 L 12.11,71.60 L 12.26,70.63 L 12.35,70.18 L 12.58,69.47 L 12.70,69.15 L 13.00,68.71 L 13.16,68.53 L 13.53,68.37 L 13.72,68.32 L 14.15,68.44 L 14.37,68.54 L 14.85,68.95 L 15.64,69.89 L 15.82,70.15 L 16.20,70.58 L 16.42,70.77 L 17.05,71.09 L 17.41,71.24 L 18.53,71.47 L 19.17,71.57 L 21.01,71.72 L 22.04,71.79 L 24.84,71.88 L 25.61,71.90 L 27.37,71.93 L 28.29,71.94 L 30.38,71.96 L 31.47,71.97 L 33.90,71.98 L 35.17,71.99 L 37.99,71.99 L 39.45,72.00 L 42.68,72.00 L 48.02,72.00 L 49.89,72.00 L 53.29,72.00 L 54.94,72.00 L 57.93,71.99 L 59.38,71.99 L 61.98,71.98 L 63.24,71.98 L 65.48,71.96 L 66.56,71.95 L 68.47,71.93 L 69.39,71.91 L 71.00,71.88 L 72.54,71.84 L 74.83,71.73 L 75.86,71.66 L 77.31,71.48 L 77.94,71.38 L 78.77,71.13 L 79.13,70.99 L 79.55,70.64 L 80.00,70.00 L 80.29,69.45 L 81.19,68.59 L 82.54,68.00 L 82.81,68.00 Z" fill="rgba(163,45,255,1)"/>
<path d="M 44.44,47.38 L 44.50,47.54 L 44.43,47.38 M 43.85,46.90 L 44.14,47.14 L 43.85,46.90 M 42.50,46.41 L 43.48,46.76 L 42.48,46.41 L 42.44,46.40 M 34.14,46.03 L 35.19,46.41 L 35.81,46.47 L 37.11,46.51 L 37.74,46.35 L 37.79,46.35 L 37.11,46.52 L 35.81,46.58 L 35.21,46.56 L 34.28,46.17 L 33.86,45.92 L 33.85,45.89 M 61.25,46.08 L 61.01,46.09 L 60.43,46.12 L 61.48,45.96 M 50.22,39.29 L 51.50,40.00 L 51.58,40.14 L 52.17,40.39 L 52.52,40.51 L 53.53,40.71 L 57.56,41.00 L 58.20,41.00 L 59.27,41.01 L 59.77,41.02 L 60.58,41.06 L 61.33,41.11 L 62.21,41.36 L 62.56,41.53 L 62.87,42.11 L 63.00,43.50 L 63.00,44.34 L 62.91,44.57 L 62.58,44.25 L 62.10,44.07 L 61.50,43.97 L 61.08,43.92 L 60.16,43.83 L 59.60,43.79 L 58.41,43.72 L 57.73,43.69 L 54.82,43.58 L 53.16,43.55 L 49.74,43.51 L 47.97,43.52 L 44.45,43.54 L 42.79,43.57 L 39.57,43.66 L 38.21,43.72 L 36.91,43.79 L 36.35,43.84 L 35.29,43.92 L 34.87,43.97 L 34.10,44.07 L 33.85,44.13 L 33.43,44.24 L 33.36,44.30 L 33.26,44.77 L 33.00,43.39 L 33.00,42.84 L 33.14,42.08 L 33.25,41.75 L 33.82,41.36 L 34.18,41.20 L 35.45,41.06 L 35.82,41.04 L 36.75,41.01 L 38.44,41.00 L 39.94,41.00 L 42.47,40.71 L 43.01,40.62 L 43.83,40.39 L 44.50,40.00 L 44.67,39.73 L 45.78,39.29 L 48.00,39.00 L 48.79,39.00 M 19.56,24.73 L 19.42,24.76 L 19.68,24.64 M 19.81,19.17 L 21.80,19.64 L 24.10,20.26 L 21.88,22.63 L 21.14,23.41 L 20.89,23.63 L 21.00,23.50 L 21.55,22.74 L 21.68,22.39 L 21.62,22.28 L 21.40,22.10 L 21.15,22.06 L 20.57,22.00 L 20.12,22.00 L 18.60,22.43 L 18.22,22.83 L 18.22,22.00 L 18.24,21.19 L 18.33,20.14 L 18.41,19.69 L 18.76,19.26 L 18.98,19.11 Z" fill="rgba(162,185,255,1)"/>
<path d="M 49.46,58.46 L 48.44,58.76 L 48.94,58.58 L 49.42,58.39 L 49.65,58.22 M 45.65,57.52 L 45.97,58.00 L 46.18,58.13 L 46.74,58.49 L 46.25,58.34 L 46.05,58.26 L 45.72,57.76 L 45.57,57.45 L 45.53,57.29 M 53.16,43.55 L 54.82,43.58 L 57.73,43.69 L 58.41,43.72 L 59.60,43.79 L 60.16,43.83 L 61.08,43.92 L 61.50,43.97 L 62.10,44.07 L 62.58,44.25 L 62.92,44.59 L 63.01,45.12 L 62.95,45.37 L 62.23,45.75 L 61.76,45.92 L 60.18,46.15 L 56.81,46.36 L 51.50,46.50 L 51.19,51.98 L 51.15,52.74 L 51.02,54.07 L 50.98,54.34 L 51.00,54.11 L 51.00,53.33 L 50.94,50.83 L 50.79,49.81 L 50.61,49.54 L 50.17,49.14 L 49.79,49.10 L 48.91,49.11 L 48.25,49.18 L 46.79,49.48 L 46.13,49.82 L 45.92,50.11 L 45.55,50.80 L 45.44,51.34 L 45.25,52.54 L 45.18,53.40 L 45.29,56.34 L 45.22,56.03 L 45.09,54.74 L 45.00,52.44 L 45.00,51.20 L 44.93,49.50 L 44.87,48.75 L 44.61,47.79 L 44.44,47.38 L 43.85,46.90 L 42.50,46.41 L 41.81,46.24 L 40.07,46.13 L 37.74,46.35 L 37.11,46.51 L 35.81,46.47 L 35.19,46.41 L 34.14,46.03 L 33.67,45.81 L 33.17,45.24 L 33.36,44.30 L 33.43,44.24 L 33.85,44.13 L 34.10,44.07 L 34.87,43.97 L 35.29,43.92 L 36.35,43.84 L 36.91,43.79 L 38.21,43.72 L 39.57,43.66 L 42.79,43.57 L 44.45,43.54 L 47.97,43.52 L 49.74,43.51 Z" fill="rgba(175,183,255,1)"/>
<path d="M 83.59,77.17 L 84.00,78.05 L 84.00,78.19 L 83.81,78.65 L 83.68,78.89 L 83.28,79.50 L 81.55,81.55 L 79.09,84.00 L 16.91,84.00 L 14.20,81.27 L 13.62,80.69 L 12.86,79.84 L 12.54,79.47 L 12.29,78.97 L 12.22,78.75 L 12.43,78.48 L 13.25,78.20 L 13.73,78.11 L 14.95,78.42 L 16.57,79.43 L 17.00,79.86 L 18.31,80.47 L 18.99,80.73 L 20.44,80.96 L 21.13,81.02 L 22.24,80.82 L 22.47,80.74 L 22.79,80.50 L 23.00,80.00 L 23.00,79.72 L 23.44,79.29 L 24.50,79.00 L 24.91,79.00 L 25.56,79.29 L 26.00,80.00 L 26.00,80.27 L 26.44,80.71 L 27.50,81.00 L 27.91,81.00 L 28.56,80.71 L 29.00,80.00 L 29.00,79.72 L 29.44,79.29 L 30.50,79.00 L 30.91,79.00 L 31.56,79.29 L 32.00,80.00 L 32.00,80.27 L 32.44,80.71 L 33.50,81.00 L 33.91,81.00 L 34.56,80.71 L 35.00,80.00 L 35.00,79.72 L 35.44,79.29 L 36.50,79.00 L 36.91,79.00 L 37.56,79.29 L 38.00,80.00 L 38.00,80.27 L 38.44,80.71 L 39.50,81.00 L 39.91,81.00 L 40.56,80.71 L 41.00,80.00 L 41.00,79.72 L 41.44,79.29 L 42.50,79.00 L 42.91,79.00 L 43.56,79.29 L 44.00,80.00 L 44.00,80.27 L 44.44,80.71 L 45.50,81.00 L 45.91,81.00 L 46.56,80.71 L 47.00,80.00 L 47.00,79.72 L 47.44,79.29 L 48.50,79.00 L 48.91,79.00 L 49.56,79.29 L 50.00,80.00 L 50.00,80.27 L 50.44,80.71 L 51.50,81.00 L 51.91,81.00 L 52.56,80.71 L 53.00,80.00 L 53.00,79.72 L 53.44,79.29 L 54.50,79.00 L 54.91,79.00 L 55.56,79.29 L 56.00,80.00 L 56.00,80.27 L 56.44,80.71 L 57.50,81.00 L 57.91,81.00 L 58.56,80.71 L 59.00,80.00 L 59.00,79.72 L 59.44,79.29 L 60.50,79.00 L 60.91,79.00 L 61.56,79.29 L 62.00,80.00 L 62.00,80.27 L 62.44,80.71 L 63.50,81.00 L 63.91,81.00 L 64.56,80.71 L 65.00,80.00 L 65.00,79.72 L 65.44,79.29 L 66.50,79.00 L 66.91,79.00 L 67.56,79.29 L 68.00,80.00 L 68.00,80.27 L 68.44,80.71 L 69.50,81.00 L 69.91,81.00 L 70.56,80.71 L 71.00,80.00 L 71.00,79.72 L 71.44,79.29 L 72.50,79.00 L 72.91,79.00 L 73.56,79.29 L 74.00,80.00 L 74.00,80.44 L 74.65,80.88 L 75.05,81.03 L 76.20,80.94 L 76.81,80.83 L 78.09,80.28 L 79.73,79.00 L 80.19,78.47 L 81.17,77.71 L 81.66,77.38 L 82.55,77.07 L 82.97,76.98 Z" fill="rgba(182,42,254,1)"/>
<path d="M 46.18,58.13 L 45.97,58.00 L 45.65,57.52 L 45.50,57.24 L 45.30,56.48 L 45.18,53.40 L 45.25,52.54 L 45.44,51.34 L 45.55,50.80 L 45.92,50.11 L 46.13,49.82 L 46.79,49.48 L 48.25,49.18 L 48.91,49.11 L 49.79,49.10 L 50.17,49.14 L 50.61,49.54 L 50.79,49.81 L 50.94,50.83 L 51.00,53.33 L 51.00,54.11 L 50.91,55.38 L 50.85,55.97 L 50.63,56.88 L 50.50,57.29 L 50.14,57.86 L 49.42,58.39 L 48.94,58.58 L 48.33,58.80 L 48.06,58.89 L 47.68,58.92 L 47.50,58.90 L 47.09,58.71 L 46.86,58.58 M 18.00,23.50 L 18.00,23.07 L 18.60,22.43 L 20.12,22.00 L 20.57,22.00 L 21.15,22.06 L 21.40,22.10 L 21.62,22.28 L 21.68,22.39 L 21.55,22.74 L 21.00,23.50 L 20.66,23.91 L 19.86,24.56 L 18.88,25.00 L 18.64,25.00 L 18.26,24.56 L 18.10,24.29 Z" fill="rgba(210,172,255,1)"/>
</g>
</svg>