<?xml version="1.0" standalone="no"?>
<!DOCTYPE svg PUBLIC "-//W3C//DTD SVG 20010904//EN"
 "http://www.w3.org/TR/2001/REC-SVG-20010904/DTD/svg10.dtd">
<svg version="1.0" xmlns="http://www.w3.org/2000/svg"
 width="1487.000000pt" height="706.000000pt" viewBox="0 0 1487.000000 706.000000"
 preserveAspectRatio="xMidYMid meet">
<metadata>
Created by potrace 1.16, written by Peter Selinger 2001-2019
</metadata>
<g transform="translate(0.000000,706.000000) scale(0.100000,-0.100000)"
fill="#000000" stroke="none">
<path d="M6675 5544 c-382 -19 -660 -40 -965 -75 -1024 -115 -2051 -381 -3039
-785 -296 -122 -651 -285 -888 -410 l-143 -75 58 -87 c275 -413 438 -924 482
-1507 5 -77 10 -191 10 -254 l0 -113 27 17 c55 37 355 201 518 285 278 143
721 338 978 430 78 29 176 64 217 79 41 16 163 56 270 89 937 293 1852 432
2846 432 998 0 1864 -128 2809 -415 642 -195 1237 -451 1867 -801 102 -57 188
-104 191 -104 2 0 7 87 10 193 15 454 92 833 243 1200 74 180 185 387 272 506
18 25 29 48 25 52 -40 39 -761 379 -1036 488 -1252 499 -2320 744 -3646 837
-200 14 -945 26 -1106 18z m1100 -98 c1229 -86 2310 -322 3400 -744 366 -141
909 -384 1109 -496 l67 -38 -17 -26 c-229 -346 -391 -796 -458 -1267 -18 -125
-36 -340 -36 -426 0 -33 -3 -59 -6 -59 -4 0 -61 30 -127 66 -1041 573 -2156
945 -3307 1103 -835 116 -1739 123 -2535 21 -859 -110 -1578 -295 -2385 -613
-317 -124 -767 -337 -1049 -496 -79 -45 -148 -81 -153 -81 -4 0 -8 17 -8 38 0
87 -22 337 -41 467 -62 433 -210 855 -413 1183 -30 48 -52 90 -48 94 4 3 98
51 208 107 895 446 1844 771 2822 966 576 115 1110 180 1782 215 238 12 934 4
1195 -14z"/>
<path d="M6428 5051 c4 -63 9 -71 69 -112 l43 -30 0 51 c0 54 -3 58 -82 121
l-33 27 3 -57z"/>
<path d="M7760 5034 c0 -25 7 -59 17 -77 l16 -32 13 30 c19 45 17 59 -16 93
l-30 32 0 -46z"/>
<path d="M6910 5016 l0 -56 90 0 c129 0 156 -18 220 -144 34 -66 57 -80 109
-66 22 6 45 19 51 30 14 26 13 132 -1 108 -5 -10 -26 -22 -46 -27 -55 -15 -82
2 -124 82 -19 37 -48 80 -62 95 -26 25 -34 27 -132 30 l-105 4 0 -56z"/>
<path d="M5906 5029 c-29 -34 -31 -45 -16 -83 20 -53 44 -17 45 66 0 27 -1 48
-2 48 0 0 -13 -14 -27 -31z"/>
<path d="M8450 5000 c-9 -8 -26 -22 -39 -31 -20 -13 -24 -23 -23 -59 2 -51 4
-54 31 -45 30 9 53 59 49 108 -3 38 -5 41 -18 27z"/>
<path d="M5230 4931 c0 -53 24 -95 60 -104 18 -5 20 0 20 47 0 50 -2 54 -40
79 l-40 26 0 -48z"/>
<path d="M7925 4773 c-44 -108 -79 -198 -77 -202 1 -3 9 -6 18 -6 14 0 53 81
116 243 11 30 24 50 28 45 4 -4 17 -71 30 -148 12 -77 26 -147 31 -155 5 -8 9
-11 9 -6 0 10 -71 420 -73 423 -1 1 -38 -87 -82 -194z"/>
<path d="M5471 4709 c-18 -116 -30 -213 -27 -216 3 -4 6 -2 6 3 1 29 48 306
53 310 6 7 22 -26 92 -193 33 -78 43 -93 62 -93 l22 0 -20 48 c-12 26 -50 114
-86 197 -35 82 -65 151 -67 152 -1 2 -17 -92 -35 -208z"/>
<path d="M8965 4860 c6 -84 59 -137 70 -69 6 35 3 44 -27 78 -18 22 -36 40
-40 40 -3 1 -5 -21 -3 -49z"/>
<path d="M9366 4592 c-27 -108 -51 -203 -54 -209 -2 -7 2 -13 9 -13 9 0 21 28
33 78 10 42 27 111 39 153 l20 77 46 -15 c53 -18 104 -62 131 -113 l19 -35 1
40 c1 112 -61 192 -176 229 -18 5 -24 -11 -68 -192z"/>
<path d="M4335 4749 c-78 -13 -124 -78 -99 -142 5 -13 12 -11 42 10 34 22 45
24 122 21 101 -4 150 -25 231 -100 67 -61 109 -81 143 -69 37 15 56 50 56 103
l0 47 -37 -25 c-48 -32 -74 -26 -133 30 -115 110 -205 145 -325 125z"/>
<path d="M6910 4475 c0 -37 4 -55 13 -56 6 -1 37 -3 67 -4 30 -2 67 -3 82 -4
19 -1 41 -15 70 -46 35 -37 49 -45 79 -45 45 0 65 21 72 76 6 50 -4 72 -23 49
-7 -8 -28 -15 -48 -15 -28 0 -43 8 -73 40 -49 51 -73 60 -165 60 l-74 0 0 -55z"/>
<path d="M3921 4414 c-1 -23 8 -71 19 -107 54 -173 171 -248 412 -263 148 -9
248 -34 269 -67 11 -16 21 32 15 67 -13 69 -66 92 -240 106 -139 12 -162 16
-231 37 -110 34 -182 101 -221 207 l-23 61 0 -41z"/>
<path d="M7753 4360 c-19 -44 -29 -130 -15 -130 5 0 13 11 16 25 8 30 23 31
181 10 61 -8 125 -15 143 -15 24 0 35 -6 43 -22 7 -17 8 -4 4 47 -3 39 -9 73
-13 76 -4 4 -83 15 -175 26 l-168 19 -16 -36z"/>
<path d="M9948 4353 c-22 -63 -76 -125 -139 -160 -46 -26 -49 -30 -43 -58 15
-78 16 -78 76 -32 75 57 136 190 126 273 -3 22 -5 19 -20 -23z"/>
<path d="M5660 4340 c-30 -5 -99 -14 -152 -20 -58 -7 -99 -17 -101 -24 -3 -7
-8 -39 -11 -72 -3 -32 -3 -52 0 -43 4 12 39 19 157 33 84 10 164 20 178 23 24
4 28 1 39 -31 6 -21 17 -35 23 -33 19 6 12 57 -16 120 -28 62 -24 60 -117 47z"/>
<path d="M9251 4130 c-12 -48 -21 -97 -21 -109 0 -36 18 -14 25 32 10 57 13
60 39 43 13 -8 45 -21 72 -29 l49 -14 11 -74 c7 -45 12 -60 13 -39 0 19 -6 76
-14 125 -8 50 -15 93 -15 98 0 4 -6 7 -12 7 -7 0 -39 11 -70 24 l-57 23 -20
-87z"/>
<path d="M6432 4041 c2 -34 10 -67 17 -74 16 -16 166 -23 384 -17 173 5 179 6
198 29 13 16 19 39 19 73 l0 49 -26 -20 c-25 -20 -39 -21 -288 -21 -255 0
-263 1 -285 22 l-24 21 5 -62z"/>
<path d="M7419 4083 c-2 -17 2 -79 7 -96 3 -9 14 -21 24 -27 25 -13 296 -43
322 -35 26 9 48 63 48 117 -1 37 -2 41 -14 26 -26 -34 -58 -38 -203 -22 -76 9
-148 22 -160 30 -13 8 -23 11 -24 7z"/>
<path d="M6285 4070 c-10 -15 -69 -28 -248 -50 -221 -28 -241 -28 -266 -6 -21
19 -21 19 -23 -10 -3 -58 3 -79 28 -102 20 -18 33 -21 67 -17 66 8 348 45 387
50 49 7 70 36 70 96 0 49 -3 58 -15 39z"/>
<path d="M4928 4003 c-52 -144 -233 -253 -448 -272 -86 -7 -104 -12 -146 -39
-55 -37 -93 -40 -120 -11 -10 11 -45 73 -76 137 l-58 117 4 -55 c2 -42 17 -84
60 -174 31 -66 64 -128 73 -138 22 -25 63 -23 105 5 47 33 93 47 148 47 133 0
276 56 365 144 73 72 106 136 113 223 2 35 3 63 1 63 -2 0 -12 -21 -21 -47z"/>
<path d="M8040 3981 c0 -42 5 -57 25 -76 13 -14 32 -25 42 -25 10 0 99 -9 197
-20 238 -27 250 -26 275 6 15 19 21 41 21 77 l0 50 -23 -21 c-30 -28 -51 -28
-300 2 -152 18 -202 28 -217 41 -20 18 -20 17 -20 -34z"/>
<path d="M5512 3983 c-4 -23 -46 -36 -181 -53 -141 -18 -174 -15 -198 17 -11
14 -13 11 -13 -24 0 -53 16 -95 41 -111 18 -11 44 -11 153 3 194 24 212 36
203 136 -2 24 -4 39 -5 32z"/>
<path d="M8720 3887 c0 -81 10 -87 250 -145 289 -71 274 -69 304 -38 21 20 26
35 26 77 0 49 -1 51 -17 37 -10 -8 -26 -18 -35 -21 -26 -9 -468 100 -500 124
l-28 20 0 -54z"/>
<path d="M9370 3726 c0 -87 -7 -83 247 -146 242 -60 264 -56 271 51 l4 64 -21
-22 c-14 -15 -33 -23 -54 -23 -43 1 -413 95 -432 110 -13 11 -15 6 -15 -34z"/>
<path d="M1745 3481 c-150 -55 -333 -139 -478 -218 -109 -59 -308 -191 -314
-208 -2 -6 14 -15 34 -22 36 -11 40 -10 88 26 152 115 471 275 740 371 110 40
105 36 94 70 -6 16 -16 30 -22 30 -7 -1 -70 -22 -142 -49z"/>
<path d="M12201 3500 c-9 -26 -8 -32 7 -37 81 -28 368 -145 451 -184 130 -62
270 -144 356 -209 65 -49 66 -50 105 -37 22 6 40 15 40 19 0 7 -124 95 -223
156 -87 55 -337 180 -450 227 -102 42 -251 95 -265 95 -6 0 -15 -14 -21 -30z"/>
<path d="M2824 2041 c-497 -191 -958 -410 -1221 -579 -65 -42 -72 -50 -78 -87
-3 -22 -9 -51 -12 -64 l-6 -24 44 30 c217 146 857 447 1384 651 145 57 260
100 285 108 24 7 24 8 -10 15 -19 4 -73 10 -120 14 l-85 5 -181 -69z"/>
<path d="M10952 2100 c-40 -5 -75 -10 -77 -12 -3 -2 71 -33 163 -68 554 -211
1069 -445 1405 -637 81 -47 150 -84 152 -82 2 2 -2 30 -8 61 -12 55 -14 59
-72 94 -326 200 -701 378 -1219 580 -200 78 -202 79 -344 64z"/>
</g>
</svg>
