<svg xmlns="http://www.w3.org/2000/svg" width="256" height="200" viewBox="0 0 256 200">
<g>
<path d="M 52.93,167.89 L 52.46,167.93 L 51.42,168.03 L 50.79,168.07 L 49.47,168.14 L 48.75,168.16 L 43.50,168.31 L 48.50,168.91 L 49.10,168.96 L 49.62,168.99 L 50.79,169.03 L 51.57,169.06 L 53.27,169.10 L 54.30,169.12 L 56.48,169.17 L 57.74,169.18 L 59.47,169.21 L 56.13,169.18 L 54.46,169.16 L 51.47,169.12 L 50.03,169.10 L 47.51,169.06 L 46.31,169.04 L 44.32,168.99 L 43.39,168.97 L 41.96,168.92 L 41.32,168.89 L 40.50,168.84 L 40.17,168.81 L 40.00,168.75 L 40.00,168.65 L 40.55,168.46 L 40.91,168.37 L 42.06,168.22 L 42.69,168.15 L 44.28,168.06 L 47.00,168.00 L 47.96,168.00 L 49.72,167.97 L 50.55,167.95 L 51.94,167.89 L 52.58,167.85 L 53.45,167.77 L 54.00,167.62 L 53.59,167.78 M 212.74,168.05 L 213.40,168.09 L 214.43,168.20 L 214.89,168.27 L 215.45,168.42 L 215.64,168.69 L 215.61,168.72 L 215.58,168.72 L 215.42,168.45 L 214.87,168.28 L 214.42,168.22 L 213.39,168.10 L 212.74,168.06 L 211.34,168.00 M 128.49,43.22 L 127.73,43.00 L 127.24,43.00 L 127.73,43.00 Z" fill="rgba(0,0,0,1)"/>
<path d="M 68.12,158.67 L 69.24,159.21 L 69.81,159.60 L 70.93,160.44 L 71.34,160.85 L 72.00,161.66 L 72.00,161.94 L 71.73,162.43 L 71.29,162.66 L 70.25,163.10 L 69.59,163.23 L 68.38,163.35 L 67.78,163.26 L 67.57,163.12 L 67.19,162.76 L 67.05,162.47 L 66.81,161.79 L 66.72,161.32 L 66.61,159.52 L 66.78,158.64 L 66.97,158.52 M 90.58,142.39 L 91.24,142.58 L 91.46,142.93 L 91.58,143.50 L 91.42,143.86 L 90.98,144.60 L 90.61,144.91 L 89.92,145.39 L 89.56,145.52 L 89.41,145.50 L 88.89,145.16 L 88.68,144.61 L 88.74,143.49 L 89.19,142.86 L 89.52,142.66 L 90.23,142.36 M 148.66,68.88 L 153.02,69.17 L 155.06,69.63 L 157.06,70.13 L 157.99,70.45 L 159.79,71.16 L 160.60,71.58 L 164.40,73.85 L 166.66,75.48 L 167.66,76.36 L 169.55,78.17 L 170.37,79.14 L 171.92,81.14 L 172.56,82.22 L 173.77,84.43 L 174.25,85.62 L 175.13,88.06 L 175.44,89.36 L 176.00,92.05 L 176.16,93.48 L 176.41,96.43 L 176.42,98.00 L 176.20,102.23 L 175.81,104.94 L 175.49,106.23 L 174.77,108.78 L 174.29,109.99 L 173.25,112.37 L 172.62,113.49 L 171.26,115.69 L 170.47,116.73 L 168.81,118.74 L 167.86,119.68 L 165.90,121.50 L 164.80,122.33 L 162.53,123.95 L 161.29,124.68 L 159.68,125.56 L 158.87,125.91 L 157.23,126.54 L 156.35,126.78 L 154.54,127.20 L 153.52,127.34 L 151.40,127.59 L 150.18,127.66 L 144.82,127.61 L 141.67,127.17 L 140.22,126.72 L 137.39,125.65 L 136.00,124.86 L 133.22,123.10 L 131.76,121.93 L 130.43,120.87 L 129.70,120.31 L 129.39,120.09 L 128.29,119.42 L 127.84,119.32 L 126.96,119.28 L 126.46,119.47 L 125.36,119.97 L 124.57,120.39 L 122.52,121.28 L 121.35,121.58 L 120.87,121.60 L 119.98,121.55 L 119.65,121.42 L 119.07,121.08 L 118.91,120.81 L 118.68,120.23 L 118.70,119.86 L 118.84,119.09 L 119.06,118.64 L 119.61,117.72 L 120.04,117.23 L 121.02,116.21 L 121.69,115.68 L 122.96,114.59 L 123.41,114.01 L 123.45,113.69 L 123.40,113.01 L 123.20,112.53 L 122.68,111.46 L 122.26,110.68 L 121.37,108.38 L 120.92,106.47 L 120.77,105.37 L 120.50,103.11 L 120.44,101.89 L 120.35,99.42 L 120.38,98.15 L 120.66,93.05 L 121.06,90.75 L 121.50,88.51 L 121.79,87.52 L 122.40,85.65 L 122.77,84.90 L 125.36,80.64 L 127.47,77.97 L 128.67,76.77 L 131.15,74.47 L 132.48,73.51 L 135.20,71.72 L 136.60,71.06 L 139.27,70.05 L 141.21,69.53 L 142.24,69.35 L 146.48,68.83 M 204.30,118.86 L 204.55,119.25 L 204.63,119.61 L 204.76,120.46 L 204.81,121.08 L 204.86,122.47 L 204.78,122.93 L 204.55,123.69 L 204.33,123.84 L 203.82,123.97 L 203.47,123.80 L 202.69,123.29 L 202.20,122.80 L 201.30,121.68 L 201.04,121.04 L 201.09,120.76 L 201.30,120.20 L 201.58,119.93 L 202.27,119.39 L 202.79,119.11 L 203.72,118.73 L 204.15,118.72 M 148.01,74.03 L 144.69,74.23 L 143.04,74.63 L 139.78,75.60 L 138.22,76.40 L 134.41,78.63 L 132.34,80.21 L 131.47,81.11 L 129.84,83.00 L 129.13,84.14 L 127.75,86.54 L 127.08,88.00 L 125.49,92.77 L 124.95,96.00 L 124.94,97.61 L 125.06,100.83 L 125.36,102.40 L 126.12,105.51 L 126.73,107.01 L 128.08,109.94 L 128.97,111.31 L 130.89,113.98 L 132.05,115.18 L 134.50,117.50 L 135.91,118.50 L 138.85,120.38 L 140.50,121.13 L 142.43,121.92 L 143.42,122.18 L 145.43,122.62 L 146.44,122.71 L 148.48,122.82 L 149.51,122.74 L 151.56,122.52 L 152.58,122.29 L 154.61,121.74 L 155.61,121.34 L 157.60,120.48 L 158.56,119.93 L 160.47,118.76 L 161.38,118.06 L 163.18,116.59 L 164.03,115.74 L 166.41,113.05 L 167.79,111.18 L 168.37,110.21 L 169.45,108.24 L 169.87,107.22 L 170.66,105.17 L 170.94,104.12 L 171.42,102.00 L 171.55,100.91 L 171.73,98.73 L 171.71,97.62 L 171.58,95.39 L 171.41,94.26 L 170.97,91.99 L 170.64,90.85 L 168.61,86.01 L 166.77,83.14 L 165.64,81.89 L 163.27,79.52 L 161.92,78.55 L 159.13,76.74 L 157.62,76.07 L 154.54,74.88 L 152.93,74.54 L 149.66,74.02 M 196.40,115.38 L 196.47,115.54 L 196.61,115.95 L 196.70,116.30 L 196.99,117.14 L 197.22,117.46 L 197.36,117.50 L 197.67,117.52 L 197.87,117.43 L 198.30,117.16 L 198.58,116.93 L 199.28,116.43 L 199.61,116.31 L 199.72,116.36 L 199.90,116.54 L 199.95,116.75 L 200.01,117.25 L 200.02,117.63 L 200.06,118.53 L 200.14,118.85 L 200.21,118.88 L 200.37,118.84 L 200.50,118.70 L 200.80,118.32 L 201.00,118.00 L 201.68,117.23 L 201.96,117.22 L 201.95,117.50 L 201.55,118.72 L 200.97,119.77 L 200.61,120.25 L 199.87,121.16 L 199.56,121.47 L 199.00,121.97 L 198.89,121.96 L 197.93,121.38 L 197.28,120.59 L 197.01,120.07 L 196.50,118.98 L 196.34,118.41 L 196.09,117.28 L 196.12,116.79 L 196.19,115.77 L 196.26,115.39 L 196.31,115.36 M 99.62,30.45 L 100.67,30.47 L 102.42,30.54 L 103.21,30.58 L 104.31,30.70 L 105.00,30.92 L 105.00,31.08 L 105.68,31.37 L 107.32,31.63 L 107.63,31.65 L 108.84,32.13 L 109.52,32.43 L 111.28,33.38 L 112.21,33.90 L 114.30,35.19 L 117.56,37.38 L 118.65,38.16 L 120.77,39.56 L 121.81,40.24 L 123.67,41.35 L 124.55,41.86 L 125.94,42.56 L 127.24,43.00 L 127.73,43.00 L 128.49,43.22 L 129.01,43.75 L 129.01,43.90 L 129.36,44.15 L 129.59,44.26 L 130.35,44.44 L 130.77,44.51 L 131.85,44.62 L 132.33,44.66 L 132.18,44.69 L 131.54,44.96 L 131.45,45.19 L 131.41,45.72 L 131.53,46.10 L 131.64,46.95 L 131.49,47.41 L 131.29,47.60 L 130.82,47.94 L 130.44,48.09 L 129.59,48.37 L 129.02,48.50 L 127.53,48.99 L 126.69,49.46 L 126.34,49.77 L 125.67,50.47 L 125.38,50.92 L 124.82,51.89 L 124.57,52.49 L 122.91,55.06 L 122.22,55.74 L 121.87,55.99 L 121.17,56.43 L 120.84,56.53 L 119.07,57.16 L 118.10,57.64 L 117.71,57.97 L 116.99,58.70 L 116.71,59.22 L 116.19,60.36 L 115.99,61.14 L 115.63,62.85 L 115.49,63.97 L 115.25,66.42 L 115.17,67.97 L 115.00,71.31 L 114.94,73.37 L 114.88,75.50 L 114.85,76.67 L 114.79,79.09 L 114.75,80.41 L 114.65,84.51 L 114.59,86.98 L 114.55,88.10 L 114.47,90.26 L 114.43,91.23 L 114.34,93.08 L 114.29,93.91 L 114.18,95.48 L 114.11,96.16 L 113.98,97.47 L 113.90,98.03 L 113.54,100.03 L 113.29,100.69 L 112.75,101.81 L 112.40,102.09 L 111.63,102.48 L 111.14,102.45 L 110.09,102.25 L 109.44,101.98 L 108.05,101.33 L 107.22,100.88 L 105.39,99.84 L 104.41,99.18 L 104.03,98.87 L 103.35,98.26 L 103.12,97.95 L 102.74,97.34 L 102.65,97.03 L 102.56,96.40 L 102.61,96.07 L 102.80,95.39 L 102.99,95.03 L 103.45,94.28 L 103.78,93.86 L 104.51,93.01 L 104.97,92.53 L 106.61,90.65 L 107.32,89.50 L 107.52,88.83 L 107.85,87.38 L 107.92,86.39 L 107.97,85.34 L 107.98,84.72 L 108.00,83.40 L 108.00,82.63 L 107.89,79.07 L 107.68,77.15 L 107.49,76.32 L 107.04,74.71 L 106.70,73.92 L 105.93,72.32 L 105.40,71.42 L 104.28,69.64 L 103.54,68.66 L 103.16,68.27 L 102.36,67.54 L 101.91,67.26 L 100.97,66.75 L 100.41,66.58 L 99.23,66.27 L 98.52,66.18 L 97.02,66.04 L 96.12,66.02 L 94.20,66.02 L 93.06,66.06 L 90.65,66.18 L 89.23,66.27 L 86.52,66.45 L 85.02,66.57 L 84.39,66.64 L 83.23,66.79 L 82.74,66.88 L 81.83,67.08 L 81.45,67.21 L 80.06,67.80 L 79.46,68.28 L 78.25,69.36 L 77.50,70.16 L 75.30,72.65 L 74.12,74.19 L 73.68,74.92 L 72.88,76.37 L 72.62,77.09 L 72.20,78.52 L 72.12,79.26 L 72.07,80.76 L 72.17,81.56 L 72.47,83.20 L 72.75,84.09 L 73.39,85.95 L 73.85,86.98 L 74.83,89.13 L 75.45,90.34 L 76.75,93.06 L 77.47,94.76 L 77.74,95.50 L 78.20,96.87 L 78.32,97.38 L 78.46,98.25 L 78.39,98.44 L 77.78,99.23 L 77.03,99.67 L 76.38,99.88 L 74.89,100.30 L 73.77,100.54 L 72.57,100.77 L 71.87,100.91 L 70.37,101.18 L 69.50,101.33 L 68.40,101.34 L 67.96,101.00 L 67.87,100.53 L 67.79,100.00 L 67.77,99.64 L 67.76,98.85 L 67.77,98.33 L 67.82,97.23 L 67.86,96.54 L 67.95,95.07 L 68.01,94.19 L 68.14,90.85 L 68.13,88.85 L 68.07,87.99 L 67.92,86.36 L 67.79,85.71 L 67.51,84.52 L 67.32,84.11 L 66.64,82.43 L 66.15,81.07 L 65.90,80.29 L 64.88,76.97 L 64.40,75.16 L 63.47,71.51 L 63.11,69.81 L 62.76,68.15 L 62.63,67.39 L 62.39,65.94 L 62.31,65.33 L 62.17,62.38 L 62.28,60.41 L 62.44,59.41 L 62.83,57.42 L 63.13,56.42 L 63.79,54.41 L 64.23,53.40 L 65.17,51.39 L 65.74,50.38 L 66.95,48.36 L 67.65,47.35 L 69.14,45.32 L 69.98,44.31 L 71.73,42.29 L 72.70,41.28 L 73.56,40.31 L 73.92,39.78 L 73.99,39.59 L 74.07,39.25 L 74.00,39.15 L 73.79,39.00 L 73.58,39.00 L 73.22,39.16 L 76.42,36.61 L 81.67,33.37 L 82.88,32.78 L 84.94,31.93 L 85.95,31.55 L 87.96,31.06 L 89.00,30.85 L 91.46,30.61 L 92.13,30.57 L 93.63,30.51 L 96.20,30.45 L 97.41,30.43 M 66.03,96.34 L 65.96,96.69 L 66.03,96.32 M 63.60,78.92 L 65.05,84.32 L 65.73,87.63 L 65.92,89.17 L 66.19,92.17 L 66.17,93.58 L 66.09,95.10 L 66.17,93.49 L 66.18,92.06 L 65.89,89.03 L 65.69,87.47 L 64.99,84.10 L 63.50,78.59 L 63.22,77.67 M 172.56,31.39 L 174.50,31.49 L 176.47,31.60 L 180.25,32.07 L 181.12,32.21 L 182.57,32.52 L 184.11,33.04 L 184.77,33.39 L 185.95,34.14 L 187.00,35.01 L 187.07,35.11 L 187.45,35.42 L 187.68,35.59 L 188.31,36.00 L 190.75,37.39 L 191.64,37.84 L 193.05,38.77 L 193.34,38.99 L 193.75,39.36 L 194.01,39.78 L 194.01,39.88 L 194.27,40.33 L 194.44,40.60 L 194.97,41.32 L 197.28,44.00 L 198.39,45.20 L 200.15,47.31 L 200.96,48.34 L 202.27,50.38 L 202.88,51.42 L 203.94,53.72 L 205.46,57.84 L 206.12,59.86 L 206.79,63.87 L 206.93,65.18 L 206.79,63.87 L 206.12,59.87 L 205.45,57.86 L 203.81,53.71 L 203.26,52.57 L 203.01,52.14 L 202.53,51.39 L 202.34,51.20 L 201.35,50.46 L 201.03,50.51 L 201.04,50.77 L 201.18,51.41 L 201.42,51.91 L 202.01,52.99 L 202.46,53.65 L 203.38,55.25 L 203.63,56.04 L 203.51,56.16 L 203.45,56.61 L 203.51,57.17 L 203.59,57.54 L 204.02,59.27 L 204.37,60.29 L 205.01,62.96 L 205.17,64.91 L 205.10,66.12 L 205.01,67.39 L 204.92,68.11 L 204.72,69.61 L 204.58,70.48 L 204.28,72.29 L 204.09,73.33 L 203.67,75.50 L 203.43,76.74 L 202.73,78.88 L 202.47,79.32 L 202.34,79.42 L 202.09,79.56 L 201.98,79.49 L 201.57,79.68 L 201.24,80.17 L 201.06,80.56 L 200.68,81.44 L 200.49,81.99 L 200.12,83.17 L 199.95,83.83 L 199.10,86.36 L 198.46,87.62 L 198.11,88.03 L 197.39,88.70 L 197.01,88.80 L 196.25,88.82 L 195.87,88.58 L 195.83,88.17 L 195.79,87.51 L 195.77,87.01 L 195.72,85.90 L 195.69,85.19 L 195.63,83.68 L 195.59,82.80 L 195.52,80.94 L 195.48,79.90 L 195.41,77.75 L 195.37,76.58 L 195.20,71.68 L 195.12,69.00 L 194.50,49.50 L 167.00,48.94 L 156.30,48.71 L 153.08,48.64 L 151.61,48.60 L 148.76,48.53 L 147.50,48.49 L 145.11,48.43 L 144.10,48.40 L 142.23,48.34 L 141.52,48.31 L 140.25,48.26 L 139.86,48.24 L 139.27,48.21 L 139.25,48.19 L 138.86,47.50 L 138.96,47.01 L 139.16,46.78 L 139.66,46.35 L 140.01,46.21 L 140.79,45.97 L 141.25,45.96 L 143.65,45.50 L 145.35,44.86 L 146.03,44.50 L 146.67,44.14 L 146.91,43.97 L 147.32,43.65 L 147.42,43.51 L 147.52,43.26 L 147.42,43.18 L 147.13,43.04 L 146.81,43.04 L 145.46,43.26 L 144.74,43.61 L 144.60,43.84 L 143.88,44.15 L 142.95,44.32 L 142.31,44.38 L 140.93,44.49 L 140.12,44.52 L 138.44,44.54 L 137.94,44.53 L 138.18,44.52 L 142.74,43.90 L 143.62,43.72 L 145.56,43.10 L 146.55,42.75 L 148.73,41.76 L 149.85,41.22 L 152.29,39.87 L 156.22,37.41 L 157.36,36.66 L 159.52,35.33 L 160.57,34.71 L 162.41,33.71 L 163.27,33.26 L 164.59,32.69 L 165.73,32.45 L 166.08,32.58 L 166.63,32.53 L 167.00,32.03 L 167.00,31.87 L 167.62,31.64 L 168.02,31.54 L 169.28,31.42 L 169.97,31.38 L 171.67,31.38 M 205.36,76.47 L 202.55,83.50 L 205.36,76.47 M 62.84,76.44 L 62.67,75.86 L 62.03,72.60 M 61.66,70.73 L 61.65,70.69 L 61.65,70.66 M 61.38,68.97 L 61.25,68.15 L 61.21,66.65 M 61.14,61.33 L 61.14,61.05 L 61.19,60.77 M 61.76,57.34 L 61.86,56.73 L 62.05,56.18 M 68.18,44.43 L 65.92,47.64 L 64.95,49.27 L 64.01,50.88 L 63.62,51.64 L 63.57,51.74 L 63.90,50.80 L 64.68,49.18 L 67.02,45.83 L 68.30,44.16 L 68.69,43.75 Z" fill="rgba(23,41,121,1)"/>
<path d="M 74.00,39.15 L 74.07,39.25 L 73.99,39.59 L 73.92,39.78 L 73.56,40.31 L 72.70,41.28 L 71.73,42.29 L 69.98,44.31 L 69.14,45.32 L 67.65,47.35 L 66.95,48.36 L 65.74,50.38 L 65.17,51.39 L 64.23,53.40 L 63.79,54.41 L 63.13,56.42 L 62.83,57.42 L 62.44,59.41 L 62.28,60.41 L 62.17,62.38 L 62.31,65.33 L 62.39,65.94 L 62.63,67.39 L 62.76,68.15 L 63.11,69.81 L 63.47,71.51 L 64.40,75.16 L 64.88,76.97 L 65.90,80.29 L 66.15,81.07 L 66.64,82.43 L 67.32,84.11 L 67.51,84.52 L 67.79,85.71 L 67.92,86.36 L 68.07,87.99 L 68.13,88.85 L 68.14,90.85 L 68.01,94.19 L 67.95,95.07 L 67.86,96.54 L 67.82,97.23 L 67.77,98.33 L 67.76,98.85 L 67.77,99.64 L 67.79,100.00 L 67.87,100.53 L 67.96,101.00 L 68.40,101.34 L 69.50,101.33 L 70.37,101.18 L 71.87,100.91 L 72.57,100.77 L 73.77,100.54 L 74.89,100.30 L 76.38,99.88 L 77.03,99.67 L 77.78,99.23 L 78.39,98.44 L 78.46,98.25 L 78.32,97.38 L 78.20,96.87 L 77.74,95.50 L 77.47,94.76 L 76.75,93.06 L 75.45,90.34 L 74.83,89.13 L 73.85,86.98 L 73.39,85.95 L 72.75,84.09 L 72.47,83.20 L 72.17,81.56 L 72.07,80.76 L 72.12,79.26 L 72.20,78.52 L 72.62,77.09 L 72.88,76.37 L 73.68,74.92 L 74.12,74.19 L 75.30,72.65 L 77.29,70.39 L 76.92,70.93 L 76.62,71.57 L 76.07,72.92 L 75.83,73.71 L 75.39,75.40 L 75.19,76.39 L 74.64,81.31 L 74.77,84.28 L 75.08,85.60 L 75.86,88.14 L 76.49,89.24 L 77.91,91.31 L 78.87,92.16 L 81.14,94.40 L 82.29,95.76 L 82.68,96.38 L 83.32,97.58 L 83.46,98.13 L 83.60,99.19 L 83.49,99.68 L 83.12,100.62 L 82.75,101.05 L 81.88,101.88 L 81.25,102.27 L 79.86,103.02 L 78.96,103.37 L 77.05,104.05 L 75.90,104.37 L 73.29,105.19 L 71.76,105.78 L 71.08,106.12 L 69.78,106.84 L 69.19,107.26 L 68.05,108.17 L 67.53,108.71 L 66.49,109.87 L 65.99,110.57 L 65.00,112.04 L 64.50,112.91 L 63.48,114.76 L 62.95,115.85 L 61.85,118.14 L 61.25,119.48 L 59.34,124.29 L 58.40,127.33 L 58.10,128.77 L 57.60,131.61 L 57.53,132.97 L 57.48,135.64 L 57.63,136.92 L 58.05,139.46 L 58.42,140.69 L 59.29,143.12 L 59.90,144.31 L 61.24,146.67 L 62.08,147.84 L 63.88,150.16 L 64.95,151.31 L 67.36,154.46 L 67.88,155.39 L 68.03,155.77 L 68.23,156.46 L 68.18,156.67 L 68.56,158.19 L 69.36,159.27 L 69.93,159.66 L 70.13,159.84 L 69.81,159.60 L 69.24,159.21 L 68.12,158.67 L 66.97,158.52 L 66.78,158.64 L 66.61,159.52 L 66.72,161.32 L 66.81,161.79 L 67.05,162.47 L 67.19,162.76 L 67.57,163.12 L 67.78,163.26 L 68.38,163.35 L 68.70,163.32 L 68.62,163.35 L 68.46,163.54 L 68.19,163.97 L 68.11,164.27 L 68.00,164.92 L 68.00,165.33 L 68.20,167.18 L 68.50,168.16 L 68.69,168.35 L 68.92,168.45 L 69.22,168.49 L 69.96,168.57 L 70.50,168.60 L 71.68,168.66 L 72.42,168.69 L 74.00,168.74 L 74.92,168.76 L 76.84,168.79 L 77.90,168.80 L 80.10,168.82 L 81.29,168.82 L 86.25,168.81 L 88.94,168.77 L 108.50,168.50 L 108.74,163.50 L 108.88,160.98 L 109.00,158.94 L 109.08,157.82 L 109.41,153.20 L 109.58,151.19 L 110.18,143.89 L 113.34,144.19 L 116.50,144.50 L 116.79,155.44 L 116.98,159.79 L 117.18,162.44 L 117.31,163.55 L 117.57,165.61 L 117.71,166.32 L 117.86,166.97 L 117.93,167.20 L 118.08,167.60 L 118.16,167.69 L 118.80,168.04 L 119.57,168.24 L 120.16,168.33 L 121.49,168.49 L 122.40,168.56 L 124.38,168.68 L 125.65,168.73 L 128.37,168.82 L 130.05,168.86 L 133.61,168.92 L 135.74,168.94 L 140.23,168.98 L 142.86,168.99 L 145.55,168.99 L 147.00,169.00 L 149.96,169.00 L 151.55,169.00 L 157.80,169.00 L 161.58,168.99 L 163.28,168.99 L 166.55,168.97 L 168.02,168.96 L 170.83,168.93 L 172.08,168.91 L 174.47,168.85 L 175.52,168.82 L 177.52,168.74 L 178.38,168.68 L 180.02,168.57 L 180.72,168.50 L 182.05,168.34 L 182.60,168.25 L 184.53,167.82 L 185.15,167.52 L 186.18,166.87 L 186.46,166.44 L 186.87,165.52 L 186.93,164.94 L 187.00,163.69 L 187.00,162.93 L 187.10,161.39 L 187.29,160.71 L 187.50,160.50 L 187.98,160.17 L 188.37,160.10 L 189.25,160.00 L 189.88,160.00 L 192.24,159.60 L 193.58,159.01 L 193.89,158.64 L 194.17,157.58 L 194.33,156.16 L 194.39,155.07 L 194.46,153.91 L 194.49,153.23 L 194.55,151.81 L 194.57,151.00 L 194.62,149.30 L 194.64,148.34 L 194.68,146.36 L 194.70,145.25 L 194.73,142.98 L 194.75,141.72 L 194.77,139.14 L 194.78,137.73 L 194.80,134.84 L 194.80,133.27 L 194.81,130.05 L 194.82,128.32 L 194.82,124.77 L 194.82,122.87 L 194.81,118.98 L 194.81,116.91 L 194.80,112.67 L 194.79,110.42 L 194.77,105.82 L 194.76,103.39 L 194.50,49.50 L 162.00,48.89 L 155.43,48.79 L 151.21,48.73 L 149.21,48.72 L 145.30,48.69 L 143.50,48.69 L 139.99,48.68 L 138.42,48.69 L 135.42,48.71 L 134.13,48.73 L 131.72,48.78 L 130.77,48.81 L 129.04,48.88 L 128.47,48.92 L 127.52,49.01 L 127.40,49.06 L 127.53,48.99 L 129.02,48.50 L 129.59,48.37 L 130.44,48.09 L 130.82,47.94 L 131.29,47.60 L 131.49,47.41 L 131.64,46.95 L 131.53,46.10 L 131.41,45.72 L 131.45,45.19 L 131.54,44.96 L 132.18,44.69 L 132.60,44.58 L 134.09,44.50 L 134.53,44.49 L 135.60,44.49 L 137.53,44.52 L 138.44,44.54 L 140.12,44.52 L 140.93,44.49 L 142.31,44.38 L 142.95,44.32 L 143.88,44.15 L 144.60,43.84 L 144.74,43.61 L 145.46,43.26 L 146.81,43.04 L 147.13,43.04 L 147.42,43.18 L 147.52,43.26 L 147.42,43.51 L 147.32,43.65 L 146.91,43.97 L 146.67,44.14 L 146.03,44.50 L 145.35,44.86 L 143.65,45.50 L 141.25,45.96 L 140.79,45.97 L 140.01,46.21 L 139.66,46.35 L 139.16,46.78 L 138.96,47.01 L 138.86,47.50 L 139.25,48.19 L 139.27,48.21 L 139.86,48.24 L 140.25,48.26 L 141.52,48.31 L 142.23,48.34 L 144.10,48.40 L 145.11,48.43 L 147.50,48.49 L 148.76,48.53 L 151.61,48.60 L 153.08,48.64 L 156.30,48.71 L 167.00,48.94 L 194.50,49.50 L 195.12,69.00 L 195.20,71.68 L 195.37,76.58 L 195.41,77.75 L 195.48,79.90 L 195.52,80.94 L 195.59,82.80 L 195.63,83.68 L 195.69,85.19 L 195.72,85.90 L 195.77,87.01 L 195.79,87.51 L 195.83,88.17 L 195.87,88.58 L 196.25,88.82 L 197.01,88.80 L 197.39,88.70 L 198.11,88.03 L 198.46,87.62 L 199.10,86.36 L 199.95,83.83 L 200.12,83.17 L 200.49,81.99 L 200.68,81.44 L 201.06,80.56 L 201.24,80.17 L 201.57,79.68 L 201.98,79.49 L 202.09,79.56 L 202.34,79.42 L 202.47,79.32 L 202.73,78.88 L 203.43,76.74 L 203.67,75.50 L 204.09,73.33 L 204.28,72.29 L 204.58,70.48 L 204.72,69.61 L 204.92,68.11 L 205.01,67.39 L 205.10,66.12 L 205.17,64.91 L 205.01,62.96 L 204.37,60.29 L 204.02,59.27 L 203.59,57.54 L 203.51,57.17 L 203.45,56.61 L 203.51,56.16 L 203.63,56.04 L 203.38,55.25 L 202.46,53.65 L 202.01,52.99 L 201.42,51.91 L 201.18,51.41 L 201.04,50.77 L 201.03,50.51 L 201.35,50.46 L 202.34,51.20 L 202.53,51.39 L 203.01,52.14 L 203.26,52.57 L 203.81,53.71 L 205.45,57.86 L 206.12,59.87 L 206.79,63.87 L 207.00,65.88 L 206.76,70.00 L 206.53,72.09 L 205.36,76.47 L 202.55,83.50 L 201.70,85.28 L 200.35,88.48 L 199.74,90.02 L 198.85,92.83 L 198.47,94.20 L 198.06,96.71 L 197.91,97.94 L 197.98,100.25 L 198.07,101.38 L 198.63,103.58 L 198.97,104.67 L 200.03,106.85 L 200.62,107.94 L 202.18,110.20 L 205.09,113.75 L 206.37,115.19 L 208.60,117.99 L 209.66,119.38 L 211.47,122.10 L 212.32,123.45 L 213.71,126.13 L 214.36,127.46 L 215.35,130.10 L 215.79,131.42 L 216.38,134.05 L 216.63,135.37 L 216.82,138.02 L 216.87,139.35 L 216.69,142.04 L 215.99,146.14 L 215.63,147.65 L 214.54,150.91 L 213.94,152.56 L 212.47,155.89 L 211.69,157.54 L 209.97,160.65 L 207.24,164.75 L 204.76,168.00 L 211.34,168.00 L 212.74,168.06 L 213.39,168.10 L 214.42,168.22 L 214.87,168.28 L 215.42,168.45 L 215.59,168.74 L 215.57,168.77 L 215.06,168.82 L 214.73,168.85 L 213.65,168.90 L 213.05,168.92 L 211.43,168.97 L 210.57,168.99 L 208.46,169.03 L 207.35,169.06 L 204.79,169.10 L 203.45,169.12 L 200.47,169.15 L 198.93,169.17 L 195.57,169.21 L 193.85,169.23 L 190.14,169.26 L 188.25,169.27 L 184.24,169.30 L 182.20,169.32 L 177.92,169.34 L 173.58,169.37 L 164.27,169.41 L 159.52,169.42 L 149.63,169.45 L 144.63,169.46 L 134.46,169.48 L 129.36,169.48 L 119.21,169.48 L 114.17,169.48 L 104.35,169.47 L 99.51,169.46 L 90.32,169.43 L 85.83,169.41 L 77.57,169.37 L 75.58,169.36 L 71.82,169.33 L 69.98,169.32 L 66.56,169.29 L 64.89,169.27 L 61.85,169.24 L 60.37,169.22 L 57.74,169.18 L 56.48,169.17 L 54.30,169.12 L 53.27,169.10 L 51.57,169.06 L 50.79,169.03 L 49.62,168.99 L 49.10,168.96 L 48.50,168.91 L 43.50,168.31 L 48.75,168.16 L 49.47,168.14 L 50.79,168.07 L 51.42,168.03 L 52.46,167.93 L 52.93,167.89 L 53.59,167.78 L 54.00,167.62 L 54.00,167.57 L 53.73,167.02 L 53.55,166.69 L 52.99,165.68 L 52.68,165.13 L 51.90,163.78 L 50.57,161.54 L 49.72,160.13 L 48.27,157.06 L 47.59,155.50 L 46.51,152.28 L 46.03,150.67 L 45.39,147.49 L 45.00,143.00 L 45.00,141.82 L 45.22,139.37 L 45.37,138.13 L 45.88,135.59 L 46.46,133.03 L 48.40,127.81 L 49.50,125.20 L 52.37,120.12 L 57.57,113.00 L 58.73,111.66 L 60.67,109.09 L 61.59,107.81 L 63.06,105.30 L 63.74,104.05 L 64.76,101.53 L 65.22,100.26 L 65.79,97.66 L 66.03,96.34 L 66.17,93.58 L 66.19,92.17 L 65.92,89.17 L 65.73,87.63 L 65.05,84.32 L 63.60,78.92 L 62.84,76.44 L 61.83,71.68 L 61.41,69.34 L 61.08,64.97 L 61.00,62.83 L 61.35,58.94 L 62.65,53.77 L 62.90,53.12 L 63.62,51.64 L 64.01,50.88 L 64.95,49.27 L 65.92,47.64 L 68.18,44.43 L 68.74,43.67 L 69.84,42.30 L 70.38,41.65 L 71.38,40.58 L 71.85,40.09 L 72.66,39.42 L 73.58,39.00 L 73.79,39.00 M 71.77,162.57 L 71.45,162.74 L 70.65,163.00 L 70.49,163.00 L 71.29,162.66 L 71.73,162.43 L 71.88,162.15 M 203.72,118.73 L 202.79,119.11 L 202.27,119.39 L 201.58,119.93 L 201.30,120.20 L 201.09,120.76 L 201.04,121.04 L 201.30,121.68 L 202.20,122.80 L 202.69,123.29 L 203.47,123.80 L 203.82,123.97 L 204.33,123.84 L 204.55,123.69 L 204.78,122.93 L 204.86,122.47 L 204.81,121.08 L 204.76,120.46 L 204.63,119.61 L 204.55,119.25 L 204.30,118.86 L 204.15,118.72 M 196.26,115.39 L 196.19,115.77 L 196.12,116.79 L 196.09,117.28 L 196.34,118.41 L 196.50,118.98 L 197.01,120.07 L 197.28,120.59 L 197.93,121.38 L 198.89,121.96 L 199.00,121.97 L 199.56,121.47 L 199.87,121.16 L 200.61,120.25 L 200.97,119.77 L 201.55,118.72 L 201.95,117.50 L 201.96,117.22 L 201.68,117.23 L 201.00,118.00 L 200.80,118.32 L 200.50,118.70 L 200.37,118.84 L 200.21,118.88 L 200.14,118.85 L 200.06,118.53 L 200.02,117.63 L 200.01,117.25 L 199.95,116.75 L 199.90,116.54 L 199.72,116.36 L 199.61,116.31 L 199.28,116.43 L 198.58,116.93 L 198.30,117.16 L 197.87,117.43 L 197.67,117.52 L 197.36,117.50 L 197.22,117.46 L 196.99,117.14 L 196.70,116.30 L 196.61,115.95 L 196.47,115.54 L 196.40,115.38 L 196.31,115.36 M 116.98,81.76 L 116.91,91.09 L 116.86,93.93 L 116.83,95.24 L 116.76,97.79 L 116.72,98.92 L 116.64,101.10 L 116.60,102.03 L 116.50,103.77 L 116.45,104.45 L 116.34,105.68 L 116.29,106.09 L 116.18,106.75 L 116.12,106.84 L 115.57,107.47 L 115.15,107.66 L 114.88,107.65 L 114.27,107.55 L 113.86,107.39 L 112.95,106.99 L 112.35,106.68 L 110.90,106.04 L 109.75,105.61 L 109.12,105.41 L 106.56,104.65 L 105.47,104.46 L 102.46,103.63 L 100.76,102.87 L 100.10,102.40 L 98.92,101.43 L 98.56,100.90 L 98.00,99.80 L 98.00,99.24 L 98.56,97.65 L 99.44,96.15 L 100.08,95.26 L 101.49,93.40 L 102.33,92.40 L 104.11,90.39 L 105.08,89.39 L 106.17,88.05 L 106.61,87.09 L 106.70,86.43 L 106.81,84.98 L 106.76,83.93 L 106.70,82.81 L 106.64,82.14 L 106.52,80.73 L 106.44,79.89 L 106.08,76.82 L 105.80,75.00 L 105.63,74.19 L 105.28,72.65 L 105.08,71.98 L 104.65,70.71 L 104.41,70.17 L 103.69,68.86 L 104.28,69.64 L 105.40,71.42 L 105.93,72.32 L 106.70,73.92 L 107.04,74.71 L 107.49,76.32 L 107.68,77.15 L 107.89,79.07 L 108.00,82.63 L 108.00,83.40 L 107.98,84.72 L 107.97,85.34 L 107.92,86.39 L 107.85,87.38 L 107.52,88.83 L 107.32,89.50 L 106.61,90.65 L 104.97,92.53 L 104.51,93.01 L 103.78,93.86 L 103.45,94.28 L 102.99,95.03 L 102.80,95.39 L 102.61,96.07 L 102.56,96.40 L 102.65,97.03 L 102.74,97.34 L 103.12,97.95 L 103.35,98.26 L 104.03,98.87 L 104.41,99.18 L 105.39,99.84 L 107.22,100.88 L 108.05,101.33 L 109.44,101.98 L 110.09,102.25 L 111.14,102.45 L 111.63,102.48 L 112.40,102.09 L 112.75,101.81 L 113.29,100.69 L 113.54,100.03 L 113.90,98.03 L 113.98,97.47 L 114.11,96.16 L 114.18,95.48 L 114.29,93.91 L 114.34,93.08 L 114.43,91.23 L 114.47,90.26 L 114.55,88.10 L 114.59,86.98 L 114.65,84.51 L 114.75,80.41 L 114.79,79.09 L 114.85,76.67 L 114.88,75.50 L 114.94,73.37 L 115.00,71.31 L 115.17,67.97 L 115.25,66.42 L 115.49,63.97 L 115.63,62.85 L 115.99,61.14 L 116.19,60.36 L 116.71,59.22 L 116.99,58.70 L 117.00,58.69 M 89.32,66.26 L 85.82,66.56 L 83.83,66.82 L 82.99,67.00 L 81.40,67.40 L 80.74,67.67 L 79.51,68.24 L 80.06,67.80 L 81.45,67.21 L 81.83,67.08 L 82.74,66.88 L 83.23,66.79 L 84.39,66.64 L 85.02,66.57 L 86.52,66.45 L 89.23,66.27 L 90.28,66.20 M 96.12,66.02 L 97.02,66.04 L 98.12,66.14 L 97.07,66.09 L 96.06,66.08 L 92.07,66.11 L 93.06,66.06 L 94.20,66.02 M 119.00,57.19 L 119.07,57.16 L 119.17,57.12 M 124.59,52.49 L 123.23,54.83 L 122.81,55.16 L 122.91,55.06 L 124.57,52.49 L 124.63,52.35 M 125.91,50.22 L 126.34,49.77 L 126.69,49.46 L 127.36,49.08 Z" fill="rgba(19,17,87,1)"/>
<path d="M 68.50,163.50 L 68.42,163.60 L 68.46,163.54 L 68.62,163.35 L 68.67,163.33 M 71.77,162.57 L 71.92,162.02 L 71.91,161.72 L 71.41,160.96 L 69.93,159.66 L 69.36,159.27 L 68.56,158.19 L 68.18,156.67 L 68.23,156.46 L 68.03,155.77 L 67.88,155.39 L 67.36,154.46 L 65.46,151.98 L 66.29,152.81 L 69.75,155.91 L 70.74,156.67 L 71.13,156.91 L 71.84,157.31 L 72.04,157.34 L 73.46,157.73 L 74.45,158.15 L 74.82,158.38 L 75.29,158.92 L 75.39,159.36 L 75.35,159.60 L 74.92,160.63 L 74.44,161.13 L 73.31,162.10 L 72.60,162.44 L 71.11,163.00 L 70.65,163.00 L 71.45,162.74 M 95.33,137.32 L 95.70,137.83 L 95.80,138.20 L 95.96,139.00 L 95.96,139.48 L 95.92,140.49 L 95.83,141.03 L 95.28,143.28 L 94.77,144.34 L 94.23,145.37 L 93.91,145.82 L 93.23,146.66 L 92.84,146.98 L 91.37,148.01 L 90.56,148.37 L 88.96,148.96 L 88.37,148.97 L 86.50,148.58 L 85.46,147.97 L 85.10,147.55 L 84.49,146.66 L 84.40,146.17 L 84.39,145.17 L 84.67,144.71 L 85.46,143.63 L 86.18,142.83 L 86.61,142.41 L 88.48,140.69 L 89.50,139.88 L 91.56,138.36 L 92.45,137.84 L 93.30,137.37 L 93.65,137.23 L 94.29,137.00 L 94.51,137.00 M 61.58,147.15 L 61.24,146.67 L 60.74,145.80 M 89.52,142.66 L 89.19,142.86 L 88.74,143.49 L 88.68,144.61 L 88.89,145.16 L 89.41,145.50 L 89.56,145.52 L 89.92,145.39 L 90.61,144.91 L 90.98,144.60 L 91.42,143.86 L 91.58,143.50 L 91.46,142.93 L 91.24,142.58 L 90.58,142.39 L 90.23,142.36 M 58.75,141.60 L 59.67,143.85 L 59.29,143.12 L 58.42,140.69 L 58.35,140.44 M 58.04,129.14 L 57.58,132.10 L 57.53,133.52 L 57.57,136.31 L 57.77,137.65 L 58.29,140.25 L 58.05,139.46 L 57.63,136.92 L 57.48,135.64 L 57.53,132.97 L 57.60,131.61 L 58.10,128.77 L 58.31,127.77 M 144.85,127.61 L 150.18,127.66 L 144.85,127.61 M 58.34,127.62 L 58.40,127.33 L 59.34,124.29 L 61.25,119.48 L 59.28,124.48 M 142.84,127.33 L 141.72,127.17 L 141.70,127.17 M 140.73,126.87 L 140.27,126.73 L 140.23,126.72 M 133.22,123.10 L 136.00,124.86 L 137.39,125.65 L 140.15,126.69 L 137.46,125.70 L 136.09,124.93 L 133.36,123.21 L 132.78,122.74 M 121.02,116.21 L 120.04,117.23 L 119.61,117.72 L 119.06,118.64 L 118.84,119.09 L 118.70,119.86 L 118.68,120.23 L 118.91,120.81 L 119.07,121.08 L 119.65,121.42 L 119.98,121.55 L 120.87,121.60 L 121.35,121.58 L 122.52,121.28 L 124.43,120.45 L 124.23,120.59 L 123.33,121.34 L 120.90,123.05 L 119.33,123.86 L 118.60,124.09 L 117.19,124.43 L 116.58,124.42 L 115.43,124.27 L 114.99,123.99 L 114.61,123.41 L 114.56,122.83 L 114.62,122.48 L 115.08,120.94 L 115.53,120.13 L 116.56,118.53 L 117.15,117.95 L 117.74,117.43 L 118.04,117.26 L 118.62,117.00 L 118.89,117.00 L 120.44,116.52 L 121.15,116.11 M 128.29,119.42 L 129.39,120.09 L 129.70,120.31 L 130.43,120.87 L 131.76,121.93 L 131.95,122.08 L 130.41,120.86 L 129.54,120.22 L 129.17,119.98 L 128.03,119.36 M 122.68,111.46 L 123.20,112.53 L 123.40,113.01 L 123.45,113.69 L 123.41,114.01 L 122.96,114.59 L 122.62,114.89 L 123.09,114.41 L 123.41,113.85 L 123.42,113.54 L 123.33,112.87 L 123.13,112.40 L 122.64,111.40 M 120.44,101.89 L 120.50,103.11 L 120.77,105.37 L 120.92,106.47 L 121.37,108.38 L 122.25,110.68 L 122.23,110.63 L 121.35,108.34 L 120.91,106.44 L 120.76,105.35 L 120.50,103.08 L 120.44,101.87 L 120.41,100.93 M 82.97,100.82 L 82.47,101.52 L 82.08,101.84 L 81.22,102.45 L 80.63,102.73 L 79.37,103.28 L 78.59,103.55 L 77.23,103.98 L 78.96,103.37 L 79.86,103.02 L 81.25,102.27 L 81.88,101.88 L 82.75,101.05 L 83.00,100.76 M 74.73,80.66 L 74.79,81.10 L 74.97,81.92 L 75.14,82.19 L 75.73,83.79 L 75.98,85.15 L 75.98,85.78 L 76.45,87.57 L 77.12,88.49 L 77.55,88.66 L 78.34,89.27 L 79.00,90.02 L 79.37,90.51 L 80.89,92.80 L 81.57,94.14 L 82.43,95.98 L 82.29,95.76 L 81.14,94.40 L 78.87,92.16 L 77.91,91.31 L 76.49,89.24 L 75.86,88.14 L 75.08,85.60 L 74.77,84.28 L 74.64,81.31 L 74.73,80.52 M 77.62,70.12 L 77.03,71.13 L 76.76,71.72 L 75.74,74.29 L 75.39,75.66 L 75.15,76.75 L 75.19,76.39 L 75.39,75.40 L 75.83,73.71 L 76.07,72.92 L 76.62,71.57 L 76.92,70.93 L 77.64,69.89 L 78.03,69.40 L 78.51,69.00 M 69.22,163.11 L 68.75,163.29 L 69.08,163.13 L 70.00,163.00 L 70.35,163.00 Z" fill="rgba(62,58,101,1)"/>
<path d="M 138.94,87.72 L 139.57,87.91 L 140.01,88.16 L 140.98,88.79 L 141.58,89.28 L 142.86,90.38 L 143.62,91.11 L 148.00,95.42 L 152.25,91.24 L 154.33,89.33 L 155.44,88.46 L 155.89,88.20 L 156.73,87.81 L 157.07,87.78 L 157.72,87.83 L 158.00,88.00 L 158.56,88.65 L 158.56,89.22 L 158.34,89.62 L 157.75,90.52 L 157.21,91.15 L 155.95,92.53 L 155.04,93.46 L 150.58,98.00 L 155.00,102.50 L 157.08,104.74 L 158.00,105.88 L 158.25,106.31 L 158.60,107.10 L 158.58,107.40 L 158.44,107.96 L 158.20,108.20 L 157.40,108.58 L 156.75,108.49 L 156.31,108.25 L 155.36,107.62 L 154.74,107.08 L 153.37,105.86 L 152.50,105.00 L 148.00,100.58 L 143.62,104.89 L 141.64,106.71 L 140.56,107.57 L 140.14,107.83 L 139.37,108.23 L 139.10,108.26 L 138.63,108.21 L 138.50,108.01 L 138.49,107.41 L 138.69,106.83 L 138.88,106.47 L 139.85,104.84 L 140.57,103.90 L 142.11,101.98 L 142.97,101.09 L 144.70,99.40 L 145.50,98.81 L 145.58,98.19 L 145.29,97.49 L 144.99,97.04 L 144.30,96.05 L 143.82,95.48 L 142.77,94.28 L 142.13,93.63 L 140.24,91.54 L 139.32,90.35 L 139.01,89.86 L 138.51,88.95 L 138.40,88.62 L 138.30,88.04 L 138.39,87.89 L 138.66,87.68 Z" fill="rgba(100,114,149,1)"/>
<path d="M 85.10,147.55 L 85.46,147.97 L 86.50,148.58 L 88.03,148.90 L 87.43,148.97 L 86.77,148.76 L 85.54,148.15 L 85.04,147.55 L 84.90,147.27 M 84.40,146.17 L 84.43,146.29 L 84.39,146.22 L 84.40,146.03 M 96.60,137.11 L 97.18,137.48 L 97.71,137.90 L 97.91,138.19 L 98.28,138.84 L 98.39,139.25 L 98.51,140.52 L 98.31,141.35 L 98.03,141.80 L 97.37,142.74 L 96.83,143.30 L 95.61,144.50 L 94.76,145.25 L 93.60,146.20 L 93.91,145.82 L 94.23,145.37 L 94.77,144.34 L 95.28,143.28 L 95.83,141.03 L 95.92,140.49 L 95.96,139.48 L 95.96,139.00 L 95.80,138.20 L 95.70,137.83 L 95.33,137.32 L 94.73,137.09 L 95.06,137.05 M 88.88,140.38 L 89.13,140.15 L 89.38,139.98 M 116.56,118.53 L 115.53,120.13 L 115.08,120.94 L 114.62,122.48 L 114.56,122.83 L 114.61,123.41 L 114.99,123.99 L 115.43,124.27 L 116.58,124.42 L 117.19,124.43 L 118.60,124.09 L 119.33,123.86 L 120.90,123.05 L 123.33,121.34 L 124.23,120.59 L 125.55,119.67 L 126.17,119.31 L 126.43,119.29 L 125.71,119.71 L 125.24,120.03 L 123.15,121.54 L 122.00,122.50 L 118.65,124.97 L 117.70,125.55 L 117.33,125.72 L 116.67,126.00 L 116.49,126.00 L 114.82,125.80 L 113.80,125.49 L 113.39,125.26 L 112.62,124.78 L 112.38,124.50 L 112.00,123.92 L 112.00,123.62 L 112.25,122.93 L 112.64,122.34 L 112.92,121.99 L 114.25,120.53 L 115.06,119.79 L 116.74,118.35 L 116.76,118.34 M 98.00,99.24 L 98.55,97.66 L 98.56,97.65 M 99.31,96.36 L 99.43,96.17 L 99.43,96.17 M 100.03,95.32 L 100.06,95.28 L 100.07,95.28 M 106.17,88.05 L 105.08,89.39 L 104.11,90.39 L 102.33,92.40 L 101.49,93.40 L 100.26,95.02 L 101.45,93.43 L 102.29,92.44 L 104.05,90.44 L 105.01,89.46 L 106.32,87.73 M 97.07,66.09 L 98.71,66.17 L 100.38,66.38 L 101.25,66.60 L 102.69,67.62 L 103.35,68.25 L 104.41,70.17 L 104.65,70.71 L 105.08,71.98 L 105.28,72.65 L 105.63,74.19 L 105.80,75.00 L 106.08,76.82 L 106.44,79.89 L 106.52,80.73 L 106.64,82.14 L 106.70,82.81 L 106.76,83.93 L 106.80,84.77 L 106.70,84.58 L 106.14,83.88 L 105.65,83.70 L 105.05,83.06 L 104.67,82.27 L 104.50,81.72 L 104.18,80.51 L 104.04,79.77 L 103.79,78.22 L 103.70,77.34 L 103.33,74.60 L 103.00,73.07 L 102.78,72.44 L 102.29,71.27 L 101.97,70.80 L 101.25,69.94 L 100.78,69.61 L 99.78,69.02 L 99.14,68.81 L 97.78,68.43 L 96.94,68.31 L 95.15,68.12 L 94.08,68.07 L 91.82,68.00 L 90.48,68.00 L 87.80,68.01 L 86.34,68.03 L 85.74,68.06 L 84.62,68.13 L 84.16,68.19 L 83.31,68.32 L 82.96,68.42 L 81.73,68.91 L 81.22,69.34 L 80.22,70.33 L 79.59,71.08 L 77.75,73.74 L 77.32,74.58 L 77.18,74.93 L 76.97,75.60 L 76.96,75.83 L 76.91,76.89 L 76.85,77.93 L 76.81,78.57 L 76.63,81.34 L 76.51,82.80 L 76.39,85.37 L 76.43,86.64 L 76.51,87.09 L 76.73,87.89 L 76.91,88.14 L 77.32,88.57 L 77.12,88.49 L 76.45,87.57 L 75.98,85.78 L 75.98,85.15 L 75.73,83.79 L 75.14,82.19 L 74.97,81.92 L 74.79,81.10 L 74.73,80.66 L 74.74,79.55 L 74.80,78.40 L 75.39,75.66 L 75.74,74.29 L 76.76,71.72 L 77.03,71.13 L 77.62,70.12 L 78.55,68.96 L 79.01,68.52 L 80.06,67.85 L 80.62,67.55 L 82.07,67.11 L 82.87,66.91 L 85.01,66.61 L 85.60,66.55 L 86.97,66.43 L 89.32,66.26 L 91.65,66.11 L 96.06,66.08 M 128.43,119.58 L 129.17,119.98 L 129.54,120.22 L 130.41,120.86 L 131.95,122.08 L 128.96,119.90 M 79.00,90.02 L 78.34,89.27 L 77.55,88.66 L 77.48,88.63 L 77.60,88.68 L 78.38,89.29 L 79.02,90.02 L 79.38,90.52 L 80.89,92.80 L 79.37,90.51 Z" fill="rgba(85,60,62,1)"/>
<path d="M 106.87,86.51 L 106.35,87.68 L 105.01,89.46 L 106.41,87.49 L 106.88,86.38 M 77.49,88.63 L 77.32,88.57 L 77.32,88.57 M 94.08,68.07 L 95.15,68.12 L 96.94,68.31 L 97.78,68.43 L 99.14,68.81 L 99.78,69.02 L 100.78,69.61 L 101.25,69.94 L 101.97,70.80 L 102.29,71.27 L 102.78,72.44 L 103.00,73.07 L 103.33,74.60 L 103.70,77.34 L 103.79,78.22 L 104.04,79.77 L 104.18,80.51 L 104.50,81.72 L 104.67,82.27 L 105.05,83.06 L 105.65,83.70 L 106.14,83.88 L 106.40,84.21 L 105.91,84.10 L 105.51,84.12 L 104.62,84.23 L 104.01,84.35 L 102.44,84.57 L 101.70,84.54 L 101.44,84.40 L 100.99,84.05 L 100.83,83.74 L 100.54,83.01 L 100.40,82.47 L 99.44,80.66 L 98.47,80.00 L 97.88,80.00 L 95.97,79.65 L 94.59,79.13 L 94.06,78.81 L 92.00,78.11 L 91.29,78.17 L 90.88,78.29 L 90.03,78.57 L 89.53,78.81 L 87.12,79.65 L 85.54,80.00 L 85.02,80.00 L 83.50,80.59 L 82.67,81.45 L 82.50,82.00 L 81.95,83.21 L 81.45,83.75 L 81.10,83.90 L 80.32,84.13 L 79.77,84.15 L 78.56,84.13 L 77.75,84.05 L 76.47,84.56 L 76.43,84.63 L 76.51,82.80 L 76.63,81.34 L 76.81,78.57 L 76.85,77.93 L 76.91,76.89 L 76.96,75.83 L 76.97,75.60 L 77.18,74.93 L 77.32,74.58 L 77.75,73.74 L 79.59,71.08 L 80.22,70.33 L 81.22,69.34 L 81.73,68.91 L 82.96,68.42 L 83.31,68.32 L 84.16,68.19 L 84.62,68.13 L 85.74,68.06 L 86.34,68.03 L 87.80,68.01 L 90.48,68.00 L 91.82,68.00 Z" fill="rgba(122,72,39,1)"/>
<path d="M 180.02,168.57 L 178.38,168.68 L 177.52,168.74 L 175.52,168.82 L 174.47,168.85 L 172.08,168.91 L 170.83,168.93 L 168.02,168.96 L 166.55,168.97 L 163.28,168.99 L 161.58,168.99 L 157.80,169.00 L 151.55,169.00 L 149.96,169.00 L 147.00,169.00 L 145.55,168.99 L 142.86,168.99 L 140.23,168.98 L 135.74,168.94 L 133.61,168.92 L 130.05,168.86 L 128.37,168.82 L 125.65,168.73 L 124.38,168.68 L 122.40,168.56 L 122.38,168.56 L 124.35,168.68 L 125.61,168.73 L 128.32,168.82 L 129.98,168.85 L 133.52,168.91 L 135.64,168.93 L 140.11,168.97 L 142.72,168.97 L 145.40,168.98 L 146.84,168.98 L 149.79,168.99 L 151.37,168.98 L 157.85,168.97 L 162.00,168.94 L 163.95,168.91 L 167.77,168.87 L 169.52,168.84 L 172.92,168.77 L 174.44,168.74 L 177.33,168.66 L 178.56,168.61 L 180.22,168.55 M 109.58,151.19 L 109.41,153.20 L 109.08,157.82 L 109.00,158.94 L 108.88,160.98 L 108.74,163.50 L 108.50,168.50 L 88.94,168.77 L 86.25,168.81 L 81.29,168.82 L 80.10,168.82 L 77.90,168.80 L 76.84,168.79 L 74.92,168.76 L 74.00,168.74 L 72.42,168.69 L 71.68,168.66 L 70.50,168.60 L 69.96,168.57 L 69.22,168.49 L 68.92,168.45 L 68.69,168.35 L 68.50,168.16 L 68.20,167.18 L 68.00,165.33 L 68.00,164.89 L 68.11,164.22 L 68.19,163.92 L 68.50,163.50 L 68.68,163.32 L 69.22,163.11 L 70.35,163.00 L 71.11,163.00 L 72.60,162.44 L 73.31,162.10 L 74.44,161.13 L 74.92,160.63 L 75.35,159.60 L 75.39,159.36 L 75.29,158.92 L 75.01,158.60 L 75.03,158.61 L 75.50,159.00 L 76.45,159.53 L 77.29,159.84 L 77.77,159.95 L 79.85,160.30 L 80.85,160.26 L 83.05,160.13 L 85.15,159.97 L 86.42,159.87 L 89.10,159.65 L 90.55,159.53 L 93.51,159.28 L 95.01,159.14 L 97.98,158.88 L 99.37,158.75 L 102.07,158.50 L 103.21,158.38 L 105.36,158.17 L 106.12,158.08 L 106.83,158.00 L 107.09,157.97 L 107.54,157.91 L 107.67,157.88 L 108.18,157.28 L 108.53,156.40 L 108.70,155.77 L 109.02,154.38 L 109.16,153.54 L 109.42,151.77 L 109.52,150.78 L 110.03,145.76 M 143.89,50.18 L 147.94,50.21 L 150.32,50.23 L 172.50,50.46 L 150.29,50.75 L 143.85,50.84 L 140.25,50.91 L 138.77,50.95 L 136.01,51.03 L 134.91,51.08 L 132.88,51.19 L 132.11,51.25 L 130.72,51.38 L 130.24,51.46 L 129.39,51.64 L 129.13,51.74 L 128.72,51.96 L 128.65,52.09 L 128.58,52.36 L 128.65,52.52 L 129.39,53.25 L 130.37,53.59 L 131.19,53.70 L 132.07,53.80 L 132.61,53.84 L 133.76,53.91 L 134.45,53.93 L 135.90,53.97 L 136.74,53.98 L 138.52,54.00 L 139.55,54.00 L 143.60,53.93 L 146.02,53.82 L 147.01,53.74 L 148.81,53.57 L 149.40,53.46 L 149.93,53.36 L 150.10,53.30 L 150.39,53.18 L 150.42,53.12 L 150.91,52.95 L 151.58,52.84 L 152.08,52.80 L 153.18,52.70 L 153.88,52.66 L 155.35,52.58 L 156.20,52.55 L 158.00,52.49 L 158.99,52.47 L 161.05,52.43 L 162.16,52.42 L 166.81,52.39 L 169.34,52.41 L 173.00,52.45 L 175.21,52.48 L 176.22,52.50 L 179.96,52.59 L 181.45,52.67 L 184.22,52.85 L 185.28,53.00 L 187.21,53.33 L 187.92,53.57 L 189.18,54.09 L 189.60,54.44 L 190.32,55.21 L 190.54,55.70 L 190.88,56.76 L 190.96,57.42 L 191.08,58.83 L 191.10,59.68 L 191.18,61.62 L 191.25,62.35 L 191.32,62.44 L 191.46,62.45 L 191.57,62.20 L 191.82,61.55 L 192.00,61.00 L 192.38,60.15 L 192.57,60.14 L 192.65,60.44 L 192.77,61.23 L 192.81,61.94 L 192.88,63.59 L 192.90,64.75 L 192.96,66.48 L 193.02,67.23 L 193.17,68.66 L 193.27,69.21 L 193.49,70.22 L 193.62,70.53 L 193.89,71.00 L 194.03,71.00 L 194.46,70.29 L 194.60,69.51 L 194.76,103.39 L 194.77,105.82 L 194.79,110.42 L 194.80,112.67 L 194.81,116.91 L 194.81,118.98 L 194.82,122.87 L 194.82,124.77 L 194.82,128.32 L 194.81,130.05 L 194.80,133.27 L 194.80,134.84 L 194.78,137.73 L 194.77,139.14 L 194.75,141.72 L 194.73,142.98 L 194.70,145.25 L 194.68,146.36 L 194.64,148.34 L 194.62,149.30 L 194.57,151.00 L 194.55,151.81 L 194.49,153.23 L 194.46,153.91 L 194.39,155.07 L 194.33,156.16 L 194.17,157.58 L 193.89,158.64 L 193.58,159.01 L 192.24,159.60 L 189.88,160.00 L 189.25,160.00 L 188.37,160.10 L 187.98,160.17 L 187.50,160.50 L 187.29,160.71 L 187.10,161.39 L 187.00,162.93 L 187.00,163.69 L 186.93,164.94 L 186.87,165.52 L 186.46,166.44 L 186.18,166.87 L 185.15,167.52 L 185.03,167.58 L 185.12,167.36 L 185.32,166.22 L 185.41,165.30 L 185.49,164.31 L 185.53,163.71 L 185.61,162.45 L 185.64,161.72 L 185.71,160.18 L 185.74,159.29 L 185.80,157.44 L 185.82,156.40 L 185.87,154.22 L 185.90,153.00 L 185.94,150.48 L 185.96,149.08 L 186.00,146.20 L 186.02,144.61 L 186.05,141.34 L 186.07,139.55 L 186.10,135.87 L 186.11,133.87 L 186.13,129.77 L 186.14,127.55 L 186.16,123.00 L 186.17,120.55 L 186.19,115.53 L 186.19,112.85 L 186.20,101.87 L 186.20,94.87 L 186.19,91.59 L 186.16,85.16 L 186.14,82.22 L 186.10,76.52 L 186.07,73.99 L 186.01,69.17 L 185.97,67.15 L 185.94,65.18 L 185.92,64.31 L 185.88,62.63 L 185.86,61.90 L 185.82,60.52 L 185.79,59.95 L 185.75,58.89 L 185.73,58.48 L 185.68,57.76 L 185.65,57.53 L 185.60,57.17 L 185.58,57.12 L 184.73,56.87 L 183.52,56.72 L 182.63,56.65 L 180.67,56.52 L 179.45,56.46 L 176.87,56.35 L 175.38,56.30 L 172.28,56.22 L 170.57,56.18 L 167.07,56.12 L 165.21,56.09 L 157.52,56.02 L 153.52,56.02 L 145.51,56.03 L 141.70,56.08 L 137.94,56.13 L 136.17,56.16 L 132.71,56.23 L 131.13,56.27 L 128.07,56.37 L 126.74,56.42 L 124.22,56.54 L 123.19,56.61 L 121.31,56.75 L 120.65,56.83 L 119.53,56.99 L 119.29,57.08 L 119.03,57.18 L 120.46,56.58 L 121.62,56.10 L 123.23,54.83 L 124.59,52.49 L 124.77,51.77 L 125.00,51.43 L 125.00,51.55 L 125.04,52.36 L 125.14,52.64 L 125.25,52.64 L 125.51,52.55 L 125.72,52.37 L 126.21,51.93 L 126.57,51.57 L 127.20,51.12 L 127.77,50.87 L 128.17,50.77 L 129.06,50.58 L 129.66,50.50 L 130.97,50.37 L 131.81,50.32 L 133.65,50.24 L 134.80,50.21 L 137.26,50.17 L 138.77,50.17 L 141.97,50.16 M 146.53,156.26 L 147.96,156.27 L 150.90,156.28 L 152.48,156.30 L 156.46,156.33 L 158.90,156.35 L 160.02,156.37 L 164.24,156.42 L 165.99,156.45 L 169.24,156.53 L 170.55,156.57 L 172.95,156.67 L 173.88,156.73 L 175.56,156.86 L 176.17,156.94 L 177.23,157.11 L 177.58,157.21 L 178.16,157.43 L 178.30,157.56 L 178.50,157.84 L 178.50,158.00 L 178.44,158.31 L 178.30,158.44 L 177.92,158.68 L 177.58,158.79 L 176.77,158.98 L 176.16,159.06 L 174.80,159.21 L 173.88,159.28 L 171.85,159.39 L 170.54,159.44 L 167.73,159.53 L 165.99,159.56 L 162.27,159.63 L 160.03,159.66 L 157.73,159.69 L 156.47,159.70 L 153.90,159.73 L 152.50,159.74 L 146.77,159.78 L 143.22,159.78 L 141.59,159.78 L 138.43,159.75 L 137.02,159.73 L 134.29,159.69 L 133.10,159.65 L 130.84,159.58 L 129.89,159.54 L 128.12,159.45 L 127.44,159.39 L 126.20,159.27 L 125.79,159.21 L 125.12,159.07 L 125.00,158.99 L 124.13,158.20 L 124.03,157.75 L 124.24,157.56 L 124.86,157.20 L 125.46,157.06 L 126.88,156.79 L 127.92,156.69 L 130.22,156.51 L 131.72,156.45 L 134.99,156.34 L 137.01,156.30 L 139.09,156.28 L 140.24,156.27 L 142.60,156.26 L 143.88,156.26 M 70.82,156.67 L 71.23,156.92 L 71.97,157.32 L 72.19,157.35 L 72.54,157.47 L 72.04,157.34 L 71.84,157.31 L 71.13,156.91 L 70.74,156.67 L 69.75,155.91 L 66.29,152.81 L 69.79,155.92 M 138.70,148.07 L 141.64,148.08 L 143.19,148.09 L 149.55,148.17 L 152.79,148.23 L 159.25,148.37 L 162.26,148.46 L 165.21,148.55 L 166.58,148.60 L 169.24,148.71 L 170.43,148.76 L 172.71,148.88 L 173.67,148.94 L 175.47,149.06 L 176.15,149.12 L 177.37,149.24 L 177.73,149.31 L 178.27,149.44 L 178.25,149.50 L 178.00,149.67 L 177.60,149.75 L 176.61,149.91 L 175.88,149.98 L 174.25,150.12 L 173.24,150.18 L 171.07,150.31 L 169.83,150.36 L 167.23,150.47 L 165.80,150.51 L 162.87,150.60 L 161.32,150.64 L 154.89,150.76 L 151.57,150.79 L 144.92,150.83 L 141.79,150.82 L 138.72,150.80 L 137.28,150.78 L 134.48,150.74 L 133.21,150.71 L 130.79,150.64 L 129.75,150.59 L 127.81,150.50 L 127.05,150.44 L 125.68,150.32 L 125.25,150.25 L 124.56,150.10 L 124.51,150.01 L 124.45,149.14 L 124.84,148.62 L 125.20,148.48 L 126.23,148.31 L 127.42,148.23 L 128.23,148.19 L 130.01,148.13 L 131.08,148.11 L 133.34,148.08 L 134.62,148.07 L 137.26,148.06 M 113.36,144.19 L 116.50,144.50 L 113.34,144.19 L 110.21,143.89 L 110.21,143.89 M 156.20,140.00 L 158.74,140.01 L 159.90,140.01 L 164.28,140.03 L 166.09,140.05 L 169.46,140.10 L 170.81,140.13 L 173.30,140.21 L 174.26,140.26 L 175.99,140.38 L 176.61,140.46 L 177.71,140.62 L 178.06,140.72 L 178.65,140.93 L 178.80,141.06 L 179.00,141.34 L 179.00,141.50 L 178.94,141.81 L 178.80,141.94 L 178.42,142.18 L 178.07,142.28 L 177.24,142.47 L 176.62,142.54 L 175.23,142.68 L 174.28,142.74 L 172.19,142.83 L 170.85,142.87 L 167.94,142.93 L 166.14,142.95 L 162.29,142.98 L 159.98,142.99 L 157.59,143.00 L 156.29,143.00 L 153.62,143.00 L 152.17,143.00 L 141.70,142.95 L 138.53,142.91 L 137.08,142.89 L 134.27,142.84 L 133.03,142.81 L 130.65,142.75 L 129.65,142.72 L 127.78,142.65 L 127.06,142.61 L 125.77,142.53 L 125.37,142.49 L 124.74,142.40 L 124.69,142.36 L 124.31,141.70 L 124.43,141.33 L 124.71,141.17 L 125.43,140.88 L 126.05,140.76 L 127.48,140.54 L 128.48,140.45 L 130.70,140.29 L 132.15,140.24 L 135.27,140.13 L 137.20,140.10 L 139.19,140.06 L 140.29,140.05 L 142.55,140.03 L 143.79,140.02 L 146.32,140.01 L 147.70,140.01 L 150.53,140.00 L 152.06,140.00 M 147.11,131.19 L 150.69,131.21 L 152.57,131.23 L 156.53,131.28 L 158.96,131.31 L 160.07,131.32 L 164.28,131.39 L 166.01,131.42 L 169.26,131.50 L 170.56,131.55 L 172.96,131.66 L 173.88,131.72 L 175.56,131.85 L 176.17,131.94 L 177.23,132.11 L 177.58,132.21 L 178.16,132.43 L 178.30,132.56 L 178.50,132.84 L 178.50,133.00 L 178.44,133.31 L 178.30,133.44 L 177.92,133.68 L 177.57,133.79 L 176.76,133.98 L 176.15,134.06 L 174.78,134.22 L 173.84,134.28 L 171.80,134.40 L 170.48,134.45 L 167.65,134.54 L 165.90,134.58 L 162.15,134.65 L 159.90,134.68 L 157.58,134.71 L 156.32,134.72 L 153.72,134.75 L 152.32,134.77 L 147.76,134.81 L 144.97,134.83 L 143.70,134.83 L 141.23,134.84 L 140.10,134.83 L 137.93,134.82 L 136.95,134.81 L 135.07,134.79 L 134.23,134.77 L 132.61,134.72 L 131.90,134.69 L 129.31,134.56 L 128.37,134.45 L 126.69,134.23 L 126.16,134.07 L 125.28,133.74 L 125.10,133.53 L 124.90,133.09 L 125.01,132.81 L 125.36,132.24 L 125.70,131.90 L 126.40,131.71 L 127.33,131.59 L 128.01,131.54 L 129.52,131.45 L 130.47,131.41 L 132.50,131.33 L 133.69,131.30 L 136.19,131.25 L 137.60,131.23 L 140.51,131.20 L 142.10,131.19 L 145.36,131.19 M 144.85,127.61 L 148.83,127.64 L 147.72,127.73 L 146.03,127.78 L 145.33,127.77 L 144.02,127.72 L 143.57,127.66 L 142.82,127.51 L 142.71,127.40 L 142.29,127.25 M 151.52,65.00 L 158.17,65.03 L 161.29,65.08 L 164.37,65.13 L 165.81,65.17 L 168.60,65.24 L 169.86,65.29 L 172.29,65.39 L 173.32,65.45 L 175.27,65.57 L 176.02,65.64 L 177.39,65.78 L 177.82,65.86 L 178.51,66.02 L 178.57,66.11 L 178.91,66.94 L 178.94,67.39 L 178.85,67.49 L 177.97,67.65 L 176.72,67.77 L 175.83,67.83 L 173.91,67.96 L 172.76,68.01 L 170.37,68.12 L 169.08,68.17 L 165.26,68.38 L 163.07,68.58 L 162.21,68.71 L 160.64,68.97 L 160.15,69.11 L 159.36,69.41 L 159.31,69.57 L 159.33,70.32 L 159.61,70.80 L 159.88,71.03 L 160.48,71.47 L 160.90,71.68 L 161.79,72.07 L 162.34,72.25 L 164.76,72.89 L 166.27,73.10 L 169.48,73.42 L 171.29,73.44 L 174.83,73.54 L 176.49,73.67 L 177.04,73.79 L 177.95,74.06 L 178.18,74.26 L 178.50,74.70 L 178.50,75.00 L 178.30,75.65 L 177.98,76.01 L 177.73,76.15 L 176.47,76.60 L 175.50,76.64 L 173.62,76.73 L 172.62,76.79 L 172.24,76.82 L 171.54,76.90 L 171.30,76.96 L 170.86,77.08 L 170.73,77.16 L 170.43,77.58 L 170.53,77.96 L 170.88,78.83 L 171.18,79.51 L 172.31,81.24 L 173.11,81.92 L 173.41,81.89 L 176.68,81.93 L 177.53,82.11 L 177.86,82.23 L 178.48,82.51 L 178.68,82.66 L 179.01,83.00 L 179.06,83.17 L 179.07,83.54 L 178.95,83.72 L 178.60,84.08 L 178.28,84.24 L 177.54,84.57 L 177.00,84.71 L 175.57,85.65 L 175.00,86.64 L 175.00,87.21 L 175.57,88.77 L 176.43,89.56 L 177.00,89.71 L 178.25,90.38 L 178.81,91.04 L 178.93,91.40 L 179.05,92.12 L 178.93,92.43 L 178.55,93.01 L 178.15,93.17 L 177.77,93.83 L 177.51,94.74 L 177.37,95.38 L 177.11,96.78 L 177.00,97.60 L 176.77,99.32 L 176.69,100.25 L 176.53,102.17 L 176.45,103.25 L 176.43,103.70 L 176.41,105.27 L 176.47,105.76 L 176.66,106.56 L 176.85,106.75 L 177.30,107.00 L 177.62,107.00 L 178.59,107.37 L 178.86,107.91 L 178.75,108.25 L 177.92,109.13 L 177.02,109.50 L 176.53,109.51 L 175.00,110.18 L 174.11,111.17 L 173.88,111.81 L 173.58,112.74 L 173.49,113.20 L 173.51,113.34 L 173.57,113.57 L 173.65,113.60 L 173.86,113.59 L 174.01,113.49 L 174.71,113.37 L 175.00,113.65 L 175.00,113.94 L 175.61,114.69 L 176.51,115.00 L 177.08,115.00 L 178.29,115.11 L 178.80,115.28 L 178.92,115.40 L 179.07,115.66 L 179.02,115.81 L 178.86,116.12 L 178.67,116.29 L 177.66,116.96 L 176.84,117.24 L 175.02,117.73 L 173.92,117.81 L 171.76,118.09 L 170.52,118.40 L 169.98,118.62 L 168.94,119.12 L 168.47,119.46 L 167.57,120.17 L 167.15,120.62 L 166.30,121.62 L 165.92,122.17 L 165.83,122.38 L 165.73,122.74 L 165.78,122.84 L 165.95,122.98 L 166.15,122.95 L 167.13,122.89 L 168.15,122.86 L 168.79,122.85 L 171.67,122.85 L 173.25,122.88 L 176.00,123.01 L 177.33,123.17 L 177.77,123.30 L 178.52,123.58 L 178.72,123.78 L 179.00,124.21 L 179.00,124.50 L 178.66,125.24 L 178.02,125.60 L 177.44,125.72 L 176.08,125.93 L 175.06,125.99 L 173.99,126.05 L 173.35,126.07 L 172.02,126.11 L 171.25,126.12 L 164.90,126.29 L 163.03,126.37 L 162.28,126.41 L 160.91,126.49 L 160.50,126.53 L 159.50,126.63 L 158.78,126.70 L 157.23,126.86 L 156.32,126.95 L 155.10,127.07 L 156.35,126.78 L 157.23,126.54 L 158.87,125.91 L 159.68,125.56 L 161.29,124.68 L 162.53,123.95 L 164.80,122.33 L 165.90,121.50 L 167.86,119.68 L 168.81,118.74 L 170.47,116.73 L 171.26,115.69 L 172.62,113.49 L 173.25,112.37 L 174.29,109.99 L 174.77,108.78 L 175.49,106.23 L 175.81,104.94 L 176.20,102.23 L 176.42,98.00 L 176.41,96.43 L 176.16,93.48 L 176.00,92.05 L 175.44,89.36 L 175.13,88.06 L 174.25,85.62 L 173.77,84.43 L 172.56,82.22 L 171.92,81.14 L 170.37,79.14 L 169.55,78.17 L 167.66,76.36 L 166.66,75.48 L 164.40,73.85 L 160.60,71.58 L 159.79,71.16 L 157.99,70.45 L 157.06,70.13 L 155.06,69.63 L 153.02,69.17 L 148.66,68.88 L 146.48,68.83 L 142.24,69.35 L 141.21,69.53 L 139.27,70.05 L 136.60,71.06 L 135.20,71.72 L 132.48,73.51 L 131.15,74.47 L 128.67,76.77 L 127.47,77.97 L 125.36,80.64 L 122.80,84.85 L 122.97,84.50 L 123.96,82.45 L 124.50,81.27 L 124.71,80.76 L 125.40,78.93 L 125.54,78.28 L 125.66,77.14 L 125.52,76.75 L 125.11,76.07 L 124.72,75.83 L 124.08,75.33 L 123.86,75.02 L 123.87,74.88 L 123.94,74.60 L 124.09,74.48 L 124.46,74.23 L 124.75,74.12 L 125.42,73.90 L 125.87,73.81 L 126.84,73.62 L 127.44,73.53 L 128.73,73.37 L 129.49,73.30 L 131.08,73.16 L 132.00,73.10 L 132.79,72.88 L 133.47,72.57 L 133.85,72.35 L 135.44,71.33 L 136.18,70.70 L 138.85,68.40 L 131.71,68.15 L 129.16,68.05 L 127.76,67.98 L 127.20,67.94 L 126.17,67.86 L 125.78,67.81 L 125.07,67.70 L 124.83,67.63 L 124.12,67.30 L 124.09,67.04 L 124.21,66.47 L 124.47,66.05 L 125.21,65.80 L 126.25,65.65 L 127.01,65.58 L 128.68,65.45 L 129.72,65.40 L 131.91,65.29 L 133.17,65.25 L 135.79,65.17 L 137.23,65.13 L 140.18,65.08 L 141.74,65.05 L 148.19,64.99 M 128.96,119.90 L 131.95,122.08 L 133.36,123.21 L 136.09,124.93 L 137.46,125.70 L 140.27,126.73 L 140.86,126.91 L 140.61,126.87 L 139.82,126.78 L 138.11,126.61 L 137.12,126.55 L 135.06,126.44 L 133.96,126.42 L 131.09,126.29 L 129.36,126.13 L 128.60,126.03 L 127.14,125.80 L 126.53,125.66 L 125.39,125.37 L 124.94,125.21 L 124.14,124.87 L 123.88,124.68 L 123.45,124.30 L 123.38,124.10 L 123.35,123.70 L 123.50,123.49 L 123.91,123.07 L 124.29,122.86 L 125.95,122.42 L 127.33,122.37 L 127.95,122.49 L 128.98,122.64 L 129.40,122.63 L 129.49,122.56 L 129.59,122.39 L 129.52,122.23 L 129.31,121.87 L 129.10,121.62 L 128.53,120.51 L 128.49,119.84 L 128.63,119.70 M 121.35,108.34 L 122.23,110.63 L 121.44,108.69 L 121.05,107.13 L 121.01,106.84 M 121.79,87.51 L 121.51,88.49 L 121.06,90.73 L 120.67,93.03 L 120.55,95.15 L 120.57,94.38 L 120.60,93.71 L 120.78,91.25 L 120.96,90.24 L 121.38,88.32 L 121.71,87.40 L 122.34,85.82 M 124.94,54.00 L 124.37,54.29 L 124.33,54.72 L 124.50,55.00 L 124.87,55.52 L 125.07,55.71 L 125.44,56.00 L 125.56,56.00 L 125.87,55.71 L 126.00,55.27 L 126.00,55.00 L 125.69,54.29 L 125.23,54.00 M 143.50,48.69 L 145.30,48.69 L 149.21,48.72 L 151.21,48.73 L 155.43,48.79 L 162.00,48.89 L 155.43,48.79 L 151.20,48.74 L 149.20,48.72 L 145.29,48.70 L 143.48,48.69 L 139.96,48.70 L 138.39,48.71 L 135.37,48.73 L 134.08,48.76 L 131.65,48.81 L 130.69,48.84 L 128.95,48.92 L 128.37,48.96 L 127.40,49.06 L 127.37,49.07 L 127.38,49.07 L 127.52,49.01 L 128.47,48.92 L 129.04,48.88 L 130.77,48.81 L 131.72,48.78 L 134.13,48.73 L 135.42,48.71 L 138.42,48.69 L 139.99,48.68 M 125.71,119.71 L 126.45,119.28 L 127.15,119.00 L 127.29,119.00 L 127.47,119.08 L 126.82,119.28 L 125.94,119.71 L 125.42,120.03 L 123.15,121.54 L 125.24,120.03 Z" fill="rgba(209,219,241,1)"/>
<path d="M 95.23,144.84 L 94.01,145.92 L 93.25,146.56 L 91.64,147.93 L 90.67,148.74 L 88.97,150.44 L 88.27,151.48 L 88.12,151.94 L 87.97,152.84 L 88.10,153.23 L 88.49,153.98 L 88.88,154.29 L 89.79,154.87 L 90.44,155.09 L 91.87,155.50 L 92.76,155.63 L 94.68,155.85 L 95.82,155.89 L 98.22,155.90 L 99.59,155.84 L 102.54,155.60 L 104.35,155.37 L 105.12,155.24 L 106.55,154.95 L 107.06,154.79 L 107.92,154.48 L 108.08,154.32 L 108.57,153.51 L 108.89,152.67 L 109.04,152.15 L 109.61,149.81 L 109.74,148.65 L 109.52,150.78 L 109.42,151.77 L 109.16,153.54 L 109.02,154.38 L 108.70,155.77 L 108.53,156.40 L 108.18,157.28 L 107.67,157.88 L 107.54,157.91 L 107.09,157.97 L 106.83,158.00 L 106.12,158.08 L 105.82,158.11 L 106.00,158.00 L 106.67,157.52 L 106.87,157.30 L 106.83,157.23 L 106.67,157.13 L 106.45,157.11 L 105.91,157.10 L 105.50,157.11 L 103.35,157.41 L 101.69,157.78 L 101.00,158.00 L 99.93,158.34 L 99.63,158.46 L 99.20,158.65 L 99.23,158.71 L 99.35,158.75 L 97.98,158.88 L 95.01,159.14 L 93.51,159.28 L 90.55,159.53 L 89.10,159.65 L 86.42,159.87 L 85.29,159.96 L 88.20,159.53 L 89.50,159.26 L 90.73,159.00 L 91.21,158.87 L 92.07,158.63 L 92.31,158.52 L 92.66,158.33 L 92.59,158.26 L 92.28,158.14 L 91.82,158.12 L 90.64,157.85 L 89.88,157.48 L 89.52,157.22 L 88.16,156.00 L 87.68,155.25 L 86.87,153.69 L 86.79,152.95 L 86.76,152.23 L 86.85,151.91 L 87.09,151.31 L 87.33,151.07 L 87.71,150.49 L 87.75,150.09 L 87.66,149.88 L 87.41,149.45 L 87.17,149.21 L 86.61,148.71 L 86.45,148.60 L 86.77,148.76 L 87.43,148.97 L 88.97,148.78 L 89.78,148.59 L 91.63,147.61 L 92.60,147.02 L 94.76,145.25 L 95.56,144.54 M 84.75,144.73 L 84.45,145.28 L 84.39,146.22 L 84.91,147.29 L 84.65,147.05 L 84.00,146.17 L 84.00,145.90 L 84.34,145.21 L 84.86,144.50 L 85.10,144.22 M 98.53,140.78 L 98.18,141.77 L 97.66,142.41 L 97.08,143.08 L 96.68,143.48 L 95.80,144.33 L 95.62,144.49 L 96.83,143.30 L 97.37,142.74 L 98.03,141.80 L 98.31,141.35 L 98.51,140.54 M 96.78,137.17 L 97.08,137.35 L 97.65,137.79 L 97.87,138.10 L 98.26,138.80 L 98.26,138.81 L 97.91,138.19 L 97.71,137.90 L 97.18,137.48 L 96.64,137.14 M 91.07,138.81 L 91.79,138.25 L 92.15,138.05 M 92.46,137.89 L 92.87,137.66 L 93.38,137.45 L 93.97,137.25 M 96.05,137.00 L 96.53,137.11 L 95.06,137.05 L 94.30,137.13 L 94.36,137.11 L 94.81,137.03 L 95.67,136.94 M 66.25,110.21 L 66.49,109.87 L 66.52,109.84 M 73.83,105.02 L 72.13,105.67 L 71.39,106.03 L 69.98,106.78 L 69.35,107.21 L 68.15,108.12 L 67.60,108.67 L 66.65,109.70 L 67.53,108.71 L 68.05,108.17 L 69.19,107.26 L 69.78,106.84 L 71.08,106.12 L 71.76,105.78 L 73.29,105.19 L 74.37,104.85 M 115.16,107.67 L 114.88,107.66 L 114.28,107.57 L 113.88,107.41 L 112.98,107.02 L 112.38,106.71 L 109.34,105.47 L 109.75,105.61 L 110.90,106.04 L 112.35,106.68 L 112.95,106.99 L 113.86,107.39 L 114.27,107.55 L 114.88,107.65 L 115.15,107.66 L 115.57,107.47 L 116.12,106.84 L 115.57,107.47 M 109.12,105.41 L 109.16,105.42 L 109.11,105.40 M 102.88,103.74 L 102.78,103.72 L 102.74,103.71 M 98.47,80.00 L 99.44,80.66 L 100.40,82.47 L 100.54,83.01 L 100.83,83.74 L 100.99,84.05 L 101.44,84.40 L 101.70,84.54 L 102.44,84.57 L 104.01,84.35 L 104.62,84.23 L 105.51,84.12 L 105.91,84.10 L 106.43,84.22 L 106.65,84.31 L 106.88,84.69 L 107.00,85.59 L 107.00,86.10 L 106.41,87.49 L 105.01,89.46 L 104.05,90.44 L 102.29,92.44 L 101.45,93.43 L 100.06,95.28 L 99.43,96.17 L 98.55,97.66 L 98.00,99.24 L 98.00,99.80 L 98.56,100.90 L 98.92,101.43 L 100.10,102.40 L 100.76,102.87 L 102.35,103.58 L 100.75,103.06 L 99.89,102.70 L 98.31,102.00 L 97.80,101.68 L 97.35,101.37 L 97.21,101.23 L 97.00,100.96 L 97.00,100.85 L 96.72,100.68 L 96.27,100.66 L 95.95,100.70 L 94.41,100.98 L 93.42,101.28 L 90.00,101.88 L 87.99,101.68 L 86.92,101.28 L 84.86,100.75 L 84.38,100.75 L 84.23,100.79 L 84.00,100.92 L 84.00,101.04 L 83.43,101.55 L 82.54,102.02 L 81.88,102.29 L 80.45,102.86 L 79.87,103.06 L 80.63,102.73 L 81.22,102.45 L 82.08,101.84 L 82.47,101.52 L 82.97,100.82 L 83.17,100.45 L 83.32,99.60 L 83.36,99.16 L 83.19,98.13 L 83.06,97.59 L 82.59,96.33 L 81.57,94.14 L 80.89,92.80 L 79.37,90.51 L 79.00,90.02 L 78.34,89.27 L 77.55,88.66 L 77.00,88.44 L 76.34,87.55 L 76.08,87.06 L 75.99,85.95 L 76.01,85.42 L 76.47,84.56 L 77.75,84.05 L 78.56,84.13 L 79.77,84.15 L 80.32,84.13 L 81.10,83.90 L 81.45,83.75 L 81.81,83.37 L 80.85,85.30 L 80.53,86.34 L 80.00,88.40 L 80.00,89.28 L 80.60,91.94 L 81.51,93.92 L 82.12,94.87 L 83.43,96.72 L 84.14,97.45 L 85.58,98.73 L 86.26,99.02 L 88.08,99.59 L 89.09,99.65 L 91.17,99.61 L 92.24,99.38 L 94.37,98.79 L 95.40,98.29 L 97.40,97.17 L 98.29,96.43 L 99.82,95.12 L 100.65,94.35 L 100.97,94.00 L 102.01,92.65 L 102.21,91.94 L 102.41,90.43 L 102.25,89.43 L 102.05,88.37 L 101.90,87.75 L 101.55,86.43 L 101.33,85.65 L 100.47,82.96 L 99.93,81.66 L 99.66,81.22 L 99.12,80.47 L 98.82,80.28 L 98.20,80.00 M 83.79,80.66 L 83.51,80.95 L 82.35,82.37 L 82.22,82.61 L 82.50,82.00 L 82.67,81.45 L 83.50,80.59 L 84.34,80.26 M 89.53,78.81 L 87.16,79.65 L 85.62,80.00 L 85.54,80.00 L 87.12,79.65 M 97.88,80.00 L 97.85,80.00 L 95.96,79.65 L 94.59,79.13 L 95.97,79.65 M 112.62,144.12 L 112.63,144.12 L 113.39,144.20 L 116.50,144.50 L 113.36,144.19 M 84.42,80.23 L 85.02,80.00 L 85.14,80.00 Z" fill="rgba(188,150,144,1)"/>
<path d="M 157.52,56.02 L 165.21,56.09 L 167.07,56.12 L 170.57,56.18 L 172.28,56.22 L 175.38,56.30 L 176.87,56.35 L 179.45,56.46 L 180.67,56.52 L 182.63,56.65 L 183.52,56.72 L 184.73,56.87 L 185.58,57.12 L 185.60,57.17 L 185.65,57.53 L 185.68,57.76 L 185.73,58.48 L 185.75,58.89 L 185.79,59.95 L 185.82,60.52 L 185.86,61.90 L 185.88,62.63 L 185.92,64.31 L 185.94,65.18 L 185.97,67.15 L 186.01,69.17 L 186.07,73.99 L 186.10,76.52 L 186.14,82.22 L 186.16,85.16 L 186.19,91.59 L 186.20,94.87 L 186.20,101.87 L 186.19,112.85 L 186.19,115.53 L 186.17,120.55 L 186.16,123.00 L 186.14,127.55 L 186.13,129.77 L 186.11,133.87 L 186.10,135.87 L 186.07,139.55 L 186.05,141.34 L 186.02,144.61 L 186.00,146.20 L 185.96,149.08 L 185.94,150.48 L 185.90,153.00 L 185.87,154.22 L 185.82,156.40 L 185.80,157.44 L 185.74,159.29 L 185.71,160.18 L 185.64,161.72 L 185.61,162.45 L 185.53,163.71 L 185.49,164.31 L 185.41,165.30 L 185.32,166.22 L 185.12,167.36 L 184.78,168.16 L 184.69,168.21 L 183.87,168.32 L 183.35,168.37 L 181.75,168.47 L 180.85,168.52 L 178.56,168.61 L 177.33,168.66 L 174.44,168.74 L 172.92,168.77 L 169.52,168.84 L 167.77,168.87 L 163.95,168.91 L 162.00,168.94 L 157.85,168.97 L 151.37,168.98 L 149.79,168.99 L 146.84,168.98 L 145.40,168.98 L 142.72,168.97 L 140.11,168.97 L 135.64,168.93 L 133.52,168.91 L 129.98,168.85 L 128.32,168.82 L 125.61,168.73 L 124.35,168.68 L 122.38,168.56 L 121.48,168.49 L 120.15,168.33 L 119.56,168.24 L 118.79,168.04 L 118.47,167.94 L 118.16,167.69 L 118.08,167.60 L 117.93,167.20 L 117.86,166.97 L 117.71,166.32 L 117.57,165.61 L 117.31,163.55 L 117.18,162.44 L 116.98,159.79 L 116.79,155.44 L 116.50,144.50 L 113.39,144.20 L 112.63,144.12 L 111.62,144.12 L 111.48,144.13 L 111.80,144.08 L 112.99,144.00 L 113.88,144.00 L 117.01,143.66 L 118.86,143.12 L 119.65,142.71 L 121.16,141.79 L 121.77,141.21 L 122.90,139.97 L 123.31,139.25 L 124.04,137.73 L 124.25,136.88 L 124.55,135.14 L 124.52,134.20 L 124.37,132.27 L 124.11,131.26 L 123.47,129.20 L 122.95,128.14 L 121.82,125.95 L 121.21,125.05 L 120.93,124.84 L 120.36,124.56 L 120.04,124.61 L 119.34,124.82 L 118.87,125.07 L 118.17,125.26 L 118.65,124.97 L 122.00,122.50 L 123.15,121.54 L 125.42,120.03 L 125.94,119.71 L 126.82,119.28 L 127.76,119.00 L 128.19,119.00 L 128.68,119.19 L 128.68,119.66 L 128.49,119.84 L 128.53,120.51 L 129.10,121.62 L 129.31,121.87 L 129.52,122.23 L 129.59,122.39 L 129.49,122.56 L 129.40,122.63 L 128.98,122.64 L 127.95,122.49 L 127.33,122.37 L 125.95,122.42 L 124.29,122.86 L 123.91,123.07 L 123.50,123.49 L 123.35,123.70 L 123.38,124.10 L 123.45,124.30 L 123.88,124.68 L 124.14,124.87 L 124.94,125.21 L 125.39,125.37 L 126.53,125.66 L 127.14,125.80 L 128.60,126.03 L 129.36,126.13 L 131.09,126.29 L 133.96,126.42 L 135.06,126.44 L 137.12,126.55 L 138.11,126.61 L 139.82,126.78 L 140.61,126.87 L 141.78,127.07 L 142.71,127.40 L 142.82,127.51 L 143.57,127.66 L 144.02,127.72 L 145.33,127.77 L 146.03,127.78 L 147.72,127.73 L 150.50,127.52 L 152.42,127.33 L 156.32,126.95 L 157.23,126.86 L 158.78,126.70 L 159.50,126.63 L 160.50,126.53 L 160.91,126.49 L 162.28,126.41 L 163.03,126.37 L 164.90,126.29 L 171.25,126.12 L 172.02,126.11 L 173.35,126.07 L 173.99,126.05 L 175.06,125.99 L 176.08,125.93 L 177.44,125.72 L 178.02,125.60 L 178.66,125.24 L 179.00,124.50 L 179.00,124.21 L 178.72,123.78 L 178.52,123.58 L 177.77,123.30 L 177.33,123.17 L 176.00,123.01 L 173.25,122.88 L 171.67,122.85 L 168.79,122.85 L 168.15,122.86 L 167.13,122.89 L 166.15,122.95 L 165.95,122.98 L 165.78,122.84 L 165.73,122.74 L 165.83,122.38 L 165.92,122.17 L 166.30,121.62 L 167.15,120.62 L 167.57,120.17 L 168.47,119.46 L 168.94,119.12 L 169.98,118.62 L 170.52,118.40 L 171.76,118.09 L 173.92,117.81 L 175.02,117.73 L 176.84,117.24 L 177.66,116.96 L 178.67,116.29 L 178.86,116.12 L 179.02,115.81 L 179.07,115.66 L 178.92,115.40 L 178.80,115.28 L 178.29,115.11 L 177.08,115.00 L 176.51,115.00 L 175.61,114.69 L 175.00,113.94 L 175.00,113.65 L 174.71,113.37 L 174.01,113.49 L 173.86,113.59 L 173.65,113.60 L 173.57,113.57 L 173.51,113.34 L 173.49,113.20 L 173.58,112.74 L 173.88,111.81 L 174.11,111.17 L 175.00,110.18 L 176.53,109.51 L 177.02,109.50 L 177.92,109.13 L 178.75,108.25 L 178.86,107.91 L 178.59,107.37 L 177.62,107.00 L 177.30,107.00 L 176.85,106.75 L 176.66,106.56 L 176.47,105.76 L 176.41,105.27 L 176.43,103.70 L 176.45,103.25 L 176.53,102.17 L 176.69,100.25 L 176.77,99.32 L 177.00,97.60 L 177.11,96.78 L 177.37,95.38 L 177.51,94.74 L 177.77,93.83 L 178.15,93.17 L 178.55,93.01 L 178.93,92.43 L 179.05,92.12 L 178.93,91.40 L 178.81,91.04 L 178.25,90.38 L 177.00,89.71 L 176.43,89.56 L 175.57,88.77 L 175.00,87.21 L 175.00,86.64 L 175.57,85.65 L 177.00,84.71 L 177.54,84.57 L 178.28,84.24 L 178.60,84.08 L 178.95,83.72 L 179.07,83.54 L 179.06,83.17 L 179.01,83.00 L 178.68,82.66 L 178.48,82.51 L 177.86,82.23 L 177.53,82.11 L 176.68,81.93 L 173.41,81.89 L 173.11,81.92 L 172.31,81.24 L 171.18,79.51 L 170.88,78.83 L 170.53,77.96 L 170.43,77.58 L 170.73,77.16 L 170.86,77.08 L 171.30,76.96 L 171.54,76.90 L 172.24,76.82 L 172.62,76.79 L 173.62,76.73 L 175.50,76.64 L 176.47,76.60 L 177.73,76.15 L 177.98,76.01 L 178.30,75.65 L 178.50,75.00 L 178.50,74.70 L 178.18,74.26 L 177.95,74.06 L 177.04,73.79 L 176.49,73.67 L 174.83,73.54 L 171.29,73.44 L 169.48,73.42 L 166.27,73.10 L 164.76,72.89 L 162.34,72.25 L 161.79,72.07 L 160.90,71.68 L 160.48,71.47 L 159.88,71.03 L 159.61,70.80 L 159.33,70.32 L 159.31,69.57 L 159.36,69.41 L 160.15,69.11 L 160.64,68.97 L 162.21,68.71 L 163.07,68.58 L 165.26,68.38 L 169.08,68.17 L 170.37,68.12 L 172.76,68.01 L 173.91,67.96 L 175.83,67.83 L 176.72,67.77 L 177.97,67.65 L 178.85,67.49 L 178.94,67.39 L 178.91,66.94 L 178.57,66.11 L 178.51,66.02 L 177.82,65.86 L 177.39,65.78 L 176.02,65.64 L 175.27,65.57 L 173.32,65.45 L 172.29,65.39 L 169.86,65.29 L 168.60,65.24 L 165.81,65.17 L 164.37,65.13 L 161.29,65.08 L 158.17,65.03 L 151.52,65.00 L 148.19,64.99 L 141.74,65.05 L 140.18,65.08 L 137.23,65.13 L 135.79,65.17 L 133.17,65.25 L 131.91,65.29 L 129.72,65.40 L 128.68,65.45 L 127.01,65.58 L 126.25,65.65 L 125.21,65.80 L 124.47,66.05 L 124.21,66.47 L 124.09,67.04 L 124.12,67.30 L 124.83,67.63 L 125.07,67.70 L 125.78,67.81 L 126.17,67.86 L 127.20,67.94 L 127.76,67.98 L 129.16,68.05 L 131.71,68.15 L 138.85,68.40 L 136.18,70.70 L 135.44,71.33 L 133.85,72.35 L 133.47,72.57 L 132.79,72.88 L 132.00,73.10 L 131.08,73.16 L 129.49,73.30 L 128.73,73.37 L 127.44,73.53 L 126.84,73.62 L 125.87,73.81 L 125.42,73.90 L 124.75,74.12 L 124.46,74.23 L 124.09,74.48 L 123.94,74.60 L 123.87,74.88 L 123.86,75.02 L 124.08,75.33 L 124.72,75.83 L 125.11,76.07 L 125.52,76.75 L 125.66,77.14 L 125.54,78.28 L 125.40,78.93 L 124.71,80.76 L 124.50,81.27 L 123.96,82.45 L 122.97,84.50 L 122.45,85.55 L 121.71,87.40 L 121.38,88.32 L 120.96,90.24 L 120.78,91.25 L 120.60,93.71 L 120.57,94.38 L 120.53,95.90 L 120.51,98.50 L 120.52,100.14 L 120.61,102.84 L 120.68,104.11 L 120.91,106.17 L 121.05,107.13 L 121.44,108.69 L 122.23,110.63 L 122.63,111.37 L 123.13,112.40 L 123.33,112.87 L 123.42,113.54 L 123.41,113.85 L 123.09,114.41 L 122.13,115.38 L 121.64,115.82 L 120.55,116.52 L 119.27,117.00 L 119.08,117.00 L 118.52,117.23 L 118.22,117.37 L 117.49,117.84 L 116.74,118.35 L 116.31,118.72 L 118.97,116.35 L 117.39,112.31 L 115.83,109.49 L 114.43,107.96 L 113.52,107.34 L 112.96,107.01 L 112.98,107.02 L 113.88,107.41 L 114.28,107.57 L 114.88,107.66 L 115.16,107.67 L 115.57,107.47 L 116.12,106.84 L 116.18,106.75 L 116.29,106.09 L 116.34,105.68 L 116.45,104.45 L 116.50,103.76 L 116.60,102.02 L 116.64,101.09 L 116.72,98.91 L 116.76,97.77 L 116.83,95.22 L 116.86,93.91 L 116.91,91.06 L 116.98,81.73 L 117.00,57.95 L 119.29,57.08 L 119.53,56.99 L 120.65,56.83 L 121.31,56.75 L 123.19,56.61 L 124.22,56.54 L 126.74,56.42 L 128.07,56.37 L 131.13,56.27 L 132.71,56.23 L 136.17,56.16 L 137.94,56.13 L 141.70,56.08 L 145.51,56.03 L 153.52,56.02 M 90.73,159.00 L 89.50,159.26 L 88.20,159.53 L 86.38,159.80 L 86.80,159.72 L 87.67,159.57 L 89.48,159.23 L 90.50,159.03 L 91.12,158.90 M 142.60,156.26 L 140.24,156.27 L 139.09,156.28 L 137.01,156.30 L 134.99,156.34 L 131.72,156.45 L 130.22,156.51 L 127.92,156.69 L 126.88,156.79 L 125.46,157.06 L 124.86,157.20 L 124.24,157.56 L 124.03,157.75 L 124.13,158.20 L 125.00,158.99 L 125.12,159.07 L 125.79,159.21 L 126.20,159.27 L 127.44,159.39 L 128.12,159.45 L 129.89,159.54 L 130.84,159.58 L 133.10,159.65 L 134.29,159.69 L 137.02,159.73 L 138.43,159.75 L 141.59,159.78 L 143.22,159.78 L 146.77,159.78 L 152.50,159.74 L 153.90,159.73 L 156.47,159.70 L 157.73,159.69 L 160.03,159.66 L 162.27,159.63 L 165.99,159.56 L 167.73,159.53 L 170.54,159.44 L 171.85,159.39 L 173.88,159.28 L 174.80,159.21 L 176.16,159.06 L 176.77,158.98 L 177.58,158.79 L 177.92,158.68 L 178.30,158.44 L 178.44,158.31 L 178.50,158.00 L 178.50,157.84 L 178.30,157.56 L 178.16,157.43 L 177.58,157.21 L 177.23,157.11 L 176.17,156.94 L 175.56,156.86 L 173.88,156.73 L 172.95,156.67 L 170.55,156.57 L 169.24,156.53 L 165.99,156.45 L 164.24,156.42 L 160.02,156.37 L 158.90,156.35 L 156.46,156.33 L 152.48,156.30 L 150.90,156.28 L 147.96,156.27 L 146.53,156.26 L 143.88,156.26 M 74.78,158.36 L 75.15,158.66 L 76.49,159.56 L 76.45,159.54 L 75.50,159.00 L 75.03,158.61 L 73.83,157.93 L 72.19,157.35 L 73.72,157.83 M 89.52,157.22 L 89.88,157.48 L 90.64,157.85 L 91.82,158.12 L 92.28,158.14 L 92.30,158.15 L 91.82,158.13 L 90.64,157.86 L 89.88,157.49 L 89.52,157.22 L 88.44,156.25 M 134.62,148.07 L 133.34,148.08 L 131.08,148.11 L 130.01,148.13 L 128.23,148.19 L 127.42,148.23 L 126.23,148.31 L 125.20,148.48 L 124.84,148.62 L 124.45,149.14 L 124.51,150.01 L 124.56,150.10 L 125.25,150.25 L 125.68,150.32 L 127.05,150.44 L 127.81,150.50 L 129.75,150.59 L 130.79,150.64 L 133.21,150.71 L 134.48,150.74 L 137.28,150.78 L 138.72,150.80 L 141.79,150.82 L 144.92,150.83 L 151.57,150.79 L 154.89,150.76 L 161.32,150.64 L 162.87,150.60 L 165.80,150.51 L 167.23,150.47 L 169.83,150.36 L 171.07,150.31 L 173.24,150.18 L 174.25,150.12 L 175.88,149.98 L 176.61,149.91 L 177.60,149.75 L 178.00,149.67 L 178.25,149.50 L 178.27,149.44 L 177.73,149.31 L 177.37,149.24 L 176.15,149.12 L 175.47,149.06 L 173.67,148.94 L 172.71,148.88 L 170.43,148.76 L 169.24,148.71 L 166.58,148.60 L 165.21,148.55 L 162.26,148.46 L 159.25,148.37 L 152.79,148.23 L 149.55,148.17 L 143.19,148.09 L 141.64,148.08 L 138.70,148.07 L 137.26,148.06 M 150.53,140.00 L 147.70,140.01 L 146.32,140.01 L 143.79,140.02 L 142.55,140.03 L 140.29,140.05 L 139.19,140.06 L 137.20,140.10 L 135.27,140.13 L 132.15,140.24 L 130.70,140.29 L 128.48,140.45 L 127.48,140.54 L 126.05,140.76 L 125.43,140.88 L 124.71,141.17 L 124.43,141.33 L 124.31,141.70 L 124.69,142.36 L 124.74,142.40 L 125.37,142.49 L 125.77,142.53 L 127.06,142.61 L 127.78,142.65 L 129.65,142.72 L 130.65,142.75 L 133.03,142.81 L 134.27,142.84 L 137.08,142.89 L 138.53,142.91 L 141.70,142.95 L 152.17,143.00 L 153.62,143.00 L 156.29,143.00 L 157.59,143.00 L 159.98,142.99 L 162.29,142.98 L 166.14,142.95 L 167.94,142.93 L 170.85,142.87 L 172.19,142.83 L 174.28,142.74 L 175.23,142.68 L 176.62,142.54 L 177.24,142.47 L 178.07,142.28 L 178.42,142.18 L 178.80,141.94 L 178.94,141.81 L 179.00,141.50 L 179.00,141.34 L 178.80,141.06 L 178.65,140.93 L 178.06,140.72 L 177.71,140.62 L 176.61,140.46 L 175.99,140.38 L 174.26,140.26 L 173.30,140.21 L 170.81,140.13 L 169.46,140.10 L 166.09,140.05 L 164.28,140.03 L 159.90,140.01 L 158.74,140.01 L 156.20,140.00 L 152.06,140.00 M 142.10,131.19 L 140.51,131.20 L 137.60,131.23 L 136.19,131.25 L 133.69,131.30 L 132.50,131.33 L 130.47,131.41 L 129.52,131.45 L 128.01,131.54 L 127.33,131.59 L 126.40,131.71 L 125.70,131.90 L 125.36,132.24 L 125.01,132.81 L 124.90,133.09 L 125.10,133.53 L 125.28,133.74 L 126.16,134.07 L 126.69,134.23 L 128.37,134.45 L 129.31,134.56 L 131.90,134.69 L 132.61,134.72 L 134.23,134.77 L 135.07,134.79 L 136.95,134.81 L 137.93,134.82 L 140.10,134.83 L 141.23,134.84 L 143.70,134.83 L 144.97,134.83 L 147.76,134.81 L 152.32,134.77 L 153.72,134.75 L 156.32,134.72 L 157.58,134.71 L 159.90,134.68 L 162.15,134.65 L 165.90,134.58 L 167.65,134.54 L 170.48,134.45 L 171.80,134.40 L 173.84,134.28 L 174.78,134.22 L 176.15,134.06 L 176.76,133.98 L 177.57,133.79 L 177.92,133.68 L 178.30,133.44 L 178.44,133.31 L 178.50,133.00 L 178.50,132.84 L 178.30,132.56 L 178.16,132.43 L 177.58,132.21 L 177.23,132.11 L 176.17,131.94 L 175.56,131.85 L 173.88,131.72 L 172.96,131.66 L 170.56,131.55 L 169.26,131.50 L 166.01,131.42 L 164.28,131.39 L 160.07,131.32 L 158.96,131.31 L 156.53,131.28 L 152.57,131.23 L 150.69,131.21 L 147.11,131.19 L 145.36,131.19 M 113.31,125.22 L 113.19,125.19 L 112.74,124.88 L 112.65,124.80 M 112.58,124.74 L 112.00,124.19 L 112.00,123.92 L 112.38,124.50 M 152.93,74.54 L 154.54,74.88 L 157.62,76.07 L 159.13,76.74 L 161.92,78.55 L 163.27,79.52 L 165.64,81.89 L 166.77,83.14 L 168.61,86.01 L 170.64,90.85 L 170.97,91.99 L 171.41,94.26 L 171.58,95.39 L 171.71,97.62 L 171.73,98.73 L 171.55,100.91 L 171.42,102.00 L 170.94,104.12 L 170.66,105.17 L 169.87,107.22 L 169.45,108.24 L 168.37,110.21 L 167.79,111.18 L 166.41,113.05 L 164.03,115.74 L 163.18,116.59 L 161.38,118.06 L 160.47,118.76 L 158.56,119.93 L 157.60,120.48 L 155.61,121.34 L 154.61,121.74 L 152.58,122.29 L 151.56,122.52 L 149.51,122.74 L 148.48,122.82 L 146.44,122.71 L 145.43,122.62 L 143.42,122.18 L 142.43,121.92 L 140.50,121.13 L 138.85,120.38 L 135.91,118.50 L 134.50,117.50 L 132.05,115.18 L 130.89,113.98 L 128.97,111.31 L 128.08,109.94 L 126.73,107.01 L 126.12,105.51 L 125.36,102.40 L 125.06,100.83 L 124.94,97.61 L 124.95,96.00 L 125.49,92.77 L 127.08,88.00 L 127.75,86.54 L 129.13,84.14 L 129.84,83.00 L 131.47,81.11 L 132.34,80.21 L 134.41,78.63 L 138.22,76.40 L 139.78,75.60 L 143.04,74.63 L 144.69,74.23 L 148.01,74.03 L 149.66,74.02 M 138.39,87.89 L 138.30,88.04 L 138.40,88.62 L 138.51,88.95 L 139.01,89.86 L 139.32,90.35 L 140.24,91.54 L 142.13,93.63 L 142.77,94.28 L 143.82,95.48 L 144.30,96.05 L 144.99,97.04 L 145.29,97.49 L 145.58,98.19 L 145.50,98.81 L 144.70,99.40 L 142.97,101.09 L 142.11,101.98 L 140.57,103.90 L 139.85,104.84 L 138.88,106.47 L 138.69,106.83 L 138.49,107.41 L 138.50,108.01 L 138.63,108.21 L 139.10,108.26 L 139.37,108.23 L 140.14,107.83 L 140.56,107.57 L 141.64,106.71 L 143.62,104.89 L 148.00,100.58 L 152.50,105.00 L 153.37,105.86 L 154.74,107.08 L 155.36,107.62 L 156.31,108.25 L 156.75,108.49 L 157.40,108.58 L 158.20,108.20 L 158.44,107.96 L 158.58,107.40 L 158.60,107.10 L 158.25,106.31 L 158.00,105.88 L 157.08,104.74 L 155.00,102.50 L 150.58,98.00 L 155.04,93.46 L 155.95,92.53 L 157.21,91.15 L 157.75,90.52 L 158.34,89.62 L 158.56,89.22 L 158.56,88.65 L 158.00,88.00 L 157.72,87.83 L 157.07,87.78 L 156.73,87.81 L 155.89,88.20 L 155.44,88.46 L 154.33,89.33 L 152.25,91.24 L 148.00,95.42 L 143.62,91.11 L 142.86,90.38 L 141.58,89.28 L 140.98,88.79 L 140.01,88.16 L 139.57,87.91 L 138.94,87.72 L 138.66,87.68 M 99.89,102.70 L 100.75,103.06 L 102.78,103.72 L 106.00,104.54 L 106.96,104.73 L 107.13,104.78 L 106.00,104.55 L 102.77,103.72 L 100.74,103.05 L 99.88,102.70 L 99.51,102.53 M 145.29,48.70 L 149.20,48.72 L 151.20,48.74 L 155.43,48.79 L 162.00,48.89 L 194.50,49.50 L 194.78,60.25 L 194.83,61.98 L 194.84,64.85 L 194.83,66.18 L 194.73,68.22 L 194.66,69.13 L 194.46,70.29 L 194.03,71.00 L 193.89,71.00 L 193.62,70.53 L 193.49,70.22 L 193.27,69.21 L 193.17,68.66 L 193.02,67.23 L 192.96,66.48 L 192.90,64.75 L 192.88,63.59 L 192.81,61.94 L 192.77,61.23 L 192.65,60.44 L 192.57,60.14 L 192.38,60.15 L 192.00,61.00 L 191.82,61.55 L 191.57,62.20 L 191.46,62.45 L 191.32,62.44 L 191.25,62.35 L 191.18,61.62 L 191.10,59.68 L 191.08,58.83 L 190.96,57.42 L 190.88,56.76 L 190.54,55.70 L 190.32,55.21 L 189.60,54.44 L 189.18,54.09 L 187.92,53.57 L 187.21,53.33 L 185.28,53.00 L 184.22,52.85 L 181.45,52.67 L 179.96,52.59 L 176.22,52.50 L 175.21,52.48 L 173.00,52.45 L 169.34,52.41 L 166.81,52.39 L 162.16,52.42 L 161.05,52.43 L 158.99,52.47 L 158.00,52.49 L 156.20,52.55 L 155.35,52.58 L 153.88,52.66 L 153.18,52.70 L 152.08,52.80 L 151.58,52.84 L 150.91,52.95 L 150.42,53.12 L 150.39,53.18 L 150.10,53.30 L 149.93,53.36 L 149.40,53.46 L 148.81,53.57 L 147.01,53.74 L 146.02,53.82 L 143.60,53.93 L 139.55,54.00 L 138.52,54.00 L 136.74,53.98 L 135.90,53.97 L 134.45,53.93 L 133.76,53.91 L 132.61,53.84 L 132.07,53.80 L 131.19,53.70 L 130.37,53.59 L 129.39,53.25 L 128.65,52.52 L 128.58,52.36 L 128.65,52.09 L 128.72,51.96 L 129.13,51.74 L 129.39,51.64 L 130.24,51.46 L 130.72,51.38 L 132.11,51.25 L 132.88,51.19 L 134.91,51.08 L 136.01,51.03 L 138.77,50.95 L 140.25,50.91 L 143.85,50.84 L 150.29,50.75 L 172.50,50.46 L 150.32,50.23 L 147.94,50.21 L 143.89,50.18 L 141.97,50.16 L 138.77,50.17 L 137.26,50.17 L 134.80,50.21 L 133.65,50.24 L 131.81,50.32 L 130.97,50.37 L 129.66,50.50 L 129.06,50.58 L 128.17,50.77 L 127.77,50.87 L 127.20,51.12 L 126.57,51.57 L 126.21,51.93 L 125.72,52.37 L 125.51,52.55 L 125.25,52.64 L 125.14,52.64 L 125.04,52.36 L 125.00,51.55 L 125.00,51.11 L 125.66,50.17 L 127.25,49.12 L 127.40,49.06 L 128.37,48.96 L 128.95,48.92 L 130.69,48.84 L 131.65,48.81 L 134.08,48.76 L 135.37,48.73 L 138.39,48.71 L 139.96,48.70 L 143.48,48.69 M 125.69,54.29 L 126.00,55.00 L 126.00,55.27 L 125.87,55.71 L 125.56,56.00 L 125.44,56.00 L 125.07,55.71 L 124.87,55.52 L 124.50,55.00 L 124.33,54.72 L 124.37,54.29 L 124.94,54.00 L 125.23,54.00 Z" fill="rgba(235,243,250,1)"/>
<path d="M 84.65,147.05 L 86.21,148.43 L 86.61,148.71 L 87.17,149.21 L 87.41,149.45 L 87.66,149.88 L 87.75,150.09 L 87.71,150.49 L 87.33,151.07 L 87.09,151.31 L 86.85,151.91 L 86.76,152.23 L 86.79,152.95 L 86.88,153.68 L 87.68,155.25 L 88.16,156.00 L 89.52,157.22 L 89.88,157.49 L 90.64,157.86 L 91.82,158.13 L 92.33,158.15 L 92.90,158.22 L 93.11,158.27 L 93.06,158.39 L 92.96,158.46 L 92.27,158.65 L 90.50,159.03 L 89.48,159.23 L 87.67,159.57 L 86.80,159.72 L 85.29,159.99 L 83.85,160.23 L 81.72,160.50 L 80.76,160.60 L 79.42,160.60 L 78.82,160.57 L 78.00,160.33 L 77.59,160.17 L 76.54,159.59 L 75.15,158.66 L 74.78,158.36 L 73.72,157.83 L 72.19,157.35 L 71.97,157.32 L 71.23,156.92 L 70.93,156.74 L 71.24,156.90 L 71.99,157.21 L 72.36,157.26 L 73.11,157.31 L 73.52,157.24 L 74.36,157.03 L 74.85,156.83 L 75.86,156.39 L 76.47,156.08 L 77.74,155.40 L 78.50,154.99 L 80.61,153.47 L 81.80,152.23 L 82.29,151.48 L 83.21,149.91 L 83.56,149.00 L 84.20,147.09 L 84.30,146.59 M 106.45,157.11 L 106.67,157.13 L 106.83,157.23 L 106.87,157.30 L 106.67,157.52 L 106.00,158.00 L 105.59,158.27 L 104.06,158.66 L 101.50,158.89 L 100.77,158.86 L 99.84,158.82 L 99.46,158.80 L 99.23,158.71 L 99.20,158.65 L 99.63,158.46 L 99.93,158.34 L 101.00,158.00 L 101.69,157.78 L 103.35,157.41 L 105.50,157.11 L 105.91,157.10 M 59.88,144.10 L 60.69,145.48 L 62.43,148.21 L 63.47,149.51 L 65.64,152.07 L 66.87,153.26 L 67.81,154.16 L 66.29,152.81 L 65.06,151.58 L 63.01,149.12 L 62.04,147.89 L 60.50,145.40 L 59.79,144.15 L 58.75,141.60 L 58.72,141.50 M 111.31,144.16 L 111.31,144.15 L 111.51,144.13 M 121.82,125.95 L 122.95,128.14 L 123.47,129.20 L 124.11,131.26 L 124.37,132.27 L 124.52,134.20 L 124.55,135.14 L 124.25,136.88 L 124.04,137.73 L 123.31,139.25 L 122.90,139.97 L 121.77,141.21 L 121.16,141.79 L 119.65,142.71 L 118.86,143.12 L 117.01,143.66 L 114.27,143.95 L 117.47,143.42 L 119.64,142.50 L 120.50,141.82 L 122.04,140.46 L 122.65,139.59 L 122.80,139.00 L 122.98,137.70 L 122.95,136.71 L 122.91,135.65 L 122.86,135.01 L 122.76,133.64 L 122.69,132.82 L 122.43,130.05 L 122.27,128.53 L 122.17,127.92 L 121.99,126.79 L 121.88,126.35 L 121.72,125.81 M 95.15,126.05 L 96.23,126.17 L 96.67,126.42 L 97.46,127.02 L 97.64,127.51 L 97.58,129.29 L 97.05,130.80 L 96.61,131.47 L 95.48,133.61 L 95.08,134.86 L 95.06,135.37 L 95.14,136.28 L 95.36,136.56 L 95.89,136.97 L 95.67,136.94 L 94.81,137.03 L 94.36,137.11 L 93.38,137.45 L 92.87,137.66 L 91.79,138.25 L 88.25,140.97 L 87.73,141.46 L 88.18,140.97 L 89.43,140.00 L 91.08,138.67 L 91.97,137.89 L 92.32,137.54 L 93.45,136.24 L 93.66,135.64 L 93.84,134.45 L 93.62,133.78 L 92.98,132.37 L 92.38,131.46 L 91.63,130.17 L 91.36,129.48 L 91.33,129.18 L 91.34,128.62 L 91.46,128.34 L 91.75,127.80 L 92.00,127.49 L 93.46,126.41 L 94.59,126.05 M 58.52,140.94 L 58.30,140.31 L 58.23,139.98 M 98.21,138.63 L 98.26,138.80 L 97.96,138.27 M 97.54,137.66 L 97.60,137.75 L 97.32,137.54 M 96.38,137.00 L 96.61,137.13 L 96.06,137.00 M 58.29,127.85 L 58.33,127.64 L 58.43,127.33 M 118.85,125.08 L 116.77,125.66 L 115.24,125.69 L 114.53,125.55 L 114.18,125.45 L 114.53,125.55 L 115.24,125.69 L 116.78,125.65 L 118.87,125.07 M 59.03,125.34 L 59.28,124.48 L 59.68,123.47 M 119.97,124.63 L 120.04,124.61 L 120.14,124.59 M 60.65,121.01 L 61.25,119.48 L 61.86,118.12 L 62.48,116.82 M 115.83,109.49 L 117.10,111.79 L 115.75,109.41 M 107.63,104.89 L 110.31,105.73 L 111.55,106.19 L 113.52,107.34 L 114.43,107.96 L 115.67,109.32 L 114.24,107.84 L 113.22,107.20 L 110.97,106.01 L 109.49,105.51 L 107.95,105.02 L 107.08,104.79 L 106.66,104.69 M 71.40,106.08 L 69.20,107.33 L 69.35,107.21 L 69.98,106.78 L 71.39,106.03 L 72.13,105.67 L 72.52,105.53 M 96.72,100.68 L 97.00,100.85 L 97.00,100.96 L 97.21,101.23 L 97.35,101.37 L 97.80,101.68 L 98.31,102.00 L 99.88,102.70 L 100.74,103.05 L 102.77,103.72 L 104.69,104.22 L 104.25,104.12 L 101.98,103.75 L 100.70,103.69 L 100.11,103.76 L 98.94,103.98 L 98.32,104.20 L 97.04,104.72 L 96.29,105.11 L 93.35,106.42 L 91.79,106.88 L 91.11,106.89 L 89.81,106.79 L 89.15,106.53 L 87.83,105.87 L 87.07,105.33 L 83.97,104.04 L 81.47,103.68 L 80.08,103.75 L 77.23,104.04 L 75.77,104.43 L 73.36,105.20 L 73.83,105.02 L 76.79,104.06 L 77.78,103.77 L 79.59,103.16 L 80.45,102.86 L 81.88,102.29 L 82.54,102.02 L 83.43,101.55 L 84.00,101.04 L 84.00,100.92 L 84.23,100.79 L 84.38,100.75 L 84.86,100.75 L 86.92,101.28 L 87.99,101.68 L 90.00,101.88 L 93.42,101.28 L 94.41,100.98 L 95.95,100.70 L 96.27,100.66 M 94.06,78.81 L 94.59,79.13 L 95.96,79.65 L 97.85,80.00 L 98.20,80.00 L 98.33,80.06 L 97.75,80.08 L 96.53,80.28 L 96.41,80.40 L 96.44,80.46 L 96.58,80.59 L 96.75,80.66 L 97.80,81.38 L 98.03,81.90 L 97.93,82.14 L 97.58,82.60 L 97.21,82.76 L 96.35,83.01 L 95.75,83.02 L 94.81,83.07 L 94.42,83.16 L 94.35,83.22 L 94.27,83.38 L 94.35,83.48 L 94.58,83.71 L 94.80,83.86 L 95.67,84.71 L 95.98,85.34 L 95.93,85.59 L 96.00,87.50 L 96.17,87.83 L 96.30,87.69 L 96.56,87.23 L 96.69,86.75 L 97.15,85.72 L 97.60,85.23 L 97.91,85.08 L 98.56,84.84 L 98.97,84.82 L 99.85,84.83 L 100.37,84.92 L 100.81,84.56 L 100.80,83.98 L 101.33,85.65 L 101.55,86.43 L 101.90,87.75 L 102.05,88.37 L 102.25,89.43 L 102.41,90.43 L 102.21,91.94 L 102.01,92.65 L 100.97,94.00 L 100.65,94.35 L 99.82,95.12 L 98.29,96.43 L 97.40,97.17 L 95.40,98.29 L 94.37,98.79 L 92.24,99.38 L 91.17,99.61 L 89.09,99.65 L 88.08,99.59 L 86.26,99.02 L 85.58,98.73 L 84.14,97.45 L 83.43,96.72 L 82.12,94.87 L 81.51,93.92 L 80.60,91.94 L 80.00,89.28 L 80.00,88.40 L 80.53,86.34 L 80.85,85.30 L 81.83,83.31 L 82.35,82.37 L 83.51,80.95 L 83.79,80.66 L 84.35,80.25 L 85.14,80.00 L 85.62,80.00 L 87.16,79.65 L 89.53,78.81 L 90.03,78.57 L 90.88,78.29 L 91.29,78.17 L 92.00,78.11 M 100.47,82.96 L 100.66,83.57 L 100.62,83.46 L 100.46,82.93 M 110.41,144.88 L 110.68,144.59 L 110.89,144.44 L 110.67,144.60 L 110.40,144.89 L 110.10,145.97 L 109.74,148.59 L 110.10,145.96 Z" fill="rgba(242,195,203,1)"/>
<path d="M 107.92,154.48 L 107.06,154.79 L 106.55,154.95 L 105.12,155.24 L 104.35,155.37 L 102.54,155.60 L 99.59,155.84 L 102.59,155.59 L 104.42,155.35 L 105.19,155.20 L 106.63,154.89 L 107.15,154.72 L 108.04,154.36 M 111.84,144.08 L 111.31,144.15 L 110.68,144.59 L 110.41,144.88 L 110.10,145.96 L 109.74,148.59 L 109.60,149.85 L 109.12,151.84 L 109.17,151.60 L 109.61,148.77 L 109.65,147.20 L 109.71,145.42 L 109.77,144.44 L 109.81,144.04 L 110.01,142.65 L 110.21,142.22 L 110.68,141.49 L 111.08,141.25 L 111.99,140.83 L 112.65,140.63 L 114.71,139.98 L 115.87,139.58 L 116.35,139.40 L 118.06,138.71 L 118.60,138.38 L 119.49,137.72 L 119.70,137.36 L 120.00,136.60 L 120.00,136.14 L 119.55,134.21 L 118.85,133.21 L 118.36,132.89 L 117.29,132.37 L 116.67,132.34 L 115.39,132.42 L 114.73,132.72 L 112.49,133.21 L 111.00,133.04 L 110.24,132.69 L 107.83,132.31 L 106.15,132.65 L 105.33,133.09 L 103.74,134.13 L 103.05,134.88 L 101.77,136.50 L 101.31,137.50 L 100.57,138.91 L 100.41,139.08 L 100.35,139.06 L 100.25,138.95 L 100.22,138.78 L 100.19,138.35 L 100.19,138.02 L 100.20,137.25 L 100.23,136.74 L 100.29,135.60 L 100.34,134.89 L 100.44,133.35 L 100.51,132.43 L 100.67,130.05 L 100.74,128.70 L 100.76,128.13 L 100.76,126.09 L 100.67,125.35 L 100.42,124.03 L 100.17,123.50 L 99.61,122.51 L 99.20,122.00 L 97.29,119.64 L 92.53,122.43 L 87.77,125.22 L 88.38,130.86 L 88.58,132.88 L 88.66,134.01 L 88.67,134.48 L 88.60,136.15 L 88.38,136.79 L 87.79,137.97 L 87.24,138.54 L 85.96,139.73 L 85.00,140.49 L 82.50,142.49 L 84.74,139.94 L 85.90,138.51 L 86.33,137.79 L 86.38,137.47 L 86.38,136.85 L 86.22,136.50 L 85.82,135.76 L 85.48,135.28 L 83.58,133.59 L 81.88,132.69 L 81.08,132.52 L 78.86,131.64 L 77.77,130.83 L 77.61,130.44 L 76.82,129.41 L 76.08,129.06 L 75.65,129.05 L 74.77,129.16 L 74.33,129.38 L 73.46,129.94 L 73.09,130.39 L 71.57,131.44 L 70.05,132.05 L 69.12,132.29 L 67.15,132.72 L 66.08,132.85 L 63.89,133.04 L 62.81,133.02 L 60.56,133.50 L 59.30,134.24 L 58.98,134.74 L 58.39,135.63 L 58.17,135.91 L 58.14,135.89 L 58.12,135.76 L 58.18,135.52 L 58.35,134.95 L 58.50,134.50 L 58.81,133.38 L 59.06,132.38 L 59.19,131.80 L 59.74,129.33 L 59.96,128.13 L 61.16,124.27 L 61.71,123.03 L 62.01,122.50 L 62.60,121.49 L 62.89,121.13 L 63.88,119.83 L 64.63,118.78 L 65.01,118.22 L 66.57,115.91 L 67.17,114.92 L 69.43,112.03 L 71.30,110.24 L 72.30,109.49 L 74.31,108.12 L 75.26,107.69 L 77.07,107.00 L 77.79,107.00 L 78.77,107.20 L 79.60,107.51 L 80.07,107.73 L 82.07,108.81 L 83.00,109.50 L 86.71,111.37 L 89.43,111.91 L 90.92,111.82 L 94.01,111.40 L 95.71,110.84 L 97.44,110.21 L 98.34,109.81 L 100.19,108.95 L 101.16,108.43 L 102.74,107.73 L 103.67,107.55 L 104.19,107.64 L 105.31,107.92 L 106.07,108.25 L 107.74,109.04 L 108.91,109.64 L 110.88,110.78 L 112.04,111.56 L 112.50,111.93 L 113.34,112.64 L 113.60,112.95 L 114.00,113.51 L 114.00,113.71 L 113.80,114.52 L 113.49,115.25 L 113.27,115.68 L 112.19,117.51 L 111.50,118.41 L 109.73,120.96 L 109.32,121.65 L 109.20,121.91 L 109.00,122.37 L 109.00,122.48 L 109.22,123.15 L 109.57,123.68 L 109.83,123.97 L 111.03,125.20 L 111.79,125.80 L 113.36,126.95 L 114.10,127.35 L 114.83,127.71 L 115.15,127.82 L 115.76,128.00 L 115.99,128.00 L 117.45,128.36 L 118.33,128.93 L 118.72,129.34 L 119.45,130.24 L 119.75,130.78 L 120.29,131.89 L 120.49,132.50 L 120.81,133.73 L 120.88,134.35 L 120.95,135.58 L 120.88,136.15 L 120.67,137.28 L 120.44,137.76 L 119.90,138.67 L 119.49,139.01 L 117.50,140.08 L 115.69,140.73 L 114.82,140.90 L 113.33,141.30 L 112.53,141.61 L 112.23,141.78 L 111.69,142.11 L 111.53,142.29 L 111.27,142.63 L 111.24,142.80 L 111.25,143.12 L 111.36,143.26 L 111.65,143.54 L 111.90,143.65 L 112.48,143.84 L 112.88,143.90 L 113.74,144.00 L 113.07,144.00 M 117.47,143.42 L 116.72,143.55 L 117.53,143.39 M 119.64,142.50 L 117.69,143.32 L 119.68,142.46 Z" fill="rgba(249,192,78,1)"/>
<path d="M 84.97,144.75 L 84.42,146.00 L 84.20,147.09 L 83.56,149.00 L 83.21,149.91 L 82.29,151.48 L 81.80,152.23 L 80.61,153.47 L 78.50,154.99 L 77.74,155.40 L 76.47,156.08 L 75.86,156.39 L 74.85,156.83 L 74.36,157.03 L 73.67,157.20 L 73.87,157.04 L 74.35,156.62 L 75.37,155.70 L 75.94,155.14 L 77.12,153.99 L 77.73,153.36 L 80.20,150.75 L 81.25,149.52 L 82.26,148.32 L 82.66,147.80 L 83.40,146.81 L 83.63,146.43 L 84.66,144.97 L 85.55,143.86 L 85.63,143.78 M 66.86,153.25 L 68.20,154.53 L 68.82,155.09 L 68.86,155.13 L 68.62,154.91 L 68.10,154.43 L 66.87,153.26 L 65.64,152.07 L 65.64,152.07 M 60.98,145.93 L 60.69,145.48 L 60.69,145.47 M 60.63,145.37 L 59.88,144.10 L 59.88,144.09 M 57.37,137.10 L 58.63,141.29 L 59.74,143.79 L 58.63,141.30 L 57.38,137.13 L 57.33,136.88 M 97.79,123.37 L 98.10,123.46 L 98.66,123.68 L 98.87,123.88 L 99.24,124.32 L 99.36,124.63 L 99.54,125.32 L 99.57,125.75 L 99.57,126.69 L 99.51,127.26 L 99.34,128.47 L 99.19,129.18 L 98.86,130.67 L 98.63,131.53 L 98.10,133.88 L 97.89,135.30 L 97.86,135.92 L 97.84,137.12 L 97.89,137.64 L 98.01,138.34 L 97.54,137.66 L 96.38,137.00 L 95.92,137.00 L 95.36,136.56 L 95.14,136.28 L 95.06,135.37 L 95.08,134.86 L 95.48,133.61 L 96.61,131.47 L 97.05,130.80 L 97.58,129.29 L 97.64,127.51 L 97.46,127.02 L 96.67,126.42 L 96.23,126.17 L 95.15,126.05 L 94.59,126.05 L 93.46,126.41 L 92.00,127.49 L 91.75,127.80 L 91.46,128.34 L 91.34,128.62 L 91.33,129.18 L 91.36,129.48 L 91.63,130.17 L 92.38,131.46 L 92.98,132.37 L 93.62,133.78 L 93.84,134.45 L 93.66,135.64 L 93.45,136.24 L 92.32,137.54 L 91.97,137.89 L 91.08,138.67 L 89.43,140.00 L 88.54,140.70 L 89.28,140.05 L 91.36,138.15 L 92.16,137.25 L 92.31,136.88 L 92.44,136.17 L 92.30,135.78 L 91.89,134.96 L 91.53,134.41 L 90.57,132.59 L 90.16,131.39 L 90.06,130.81 L 89.95,129.67 L 89.99,129.12 L 90.16,128.06 L 90.35,127.57 L 90.79,126.61 L 91.11,126.19 L 91.82,125.37 L 92.26,125.02 L 93.22,124.38 L 93.78,124.13 L 94.98,123.67 L 95.66,123.53 L 97.03,123.35 M 59.08,125.32 L 58.18,128.41 L 57.87,129.86 L 57.34,132.68 L 57.25,133.90 L 57.21,135.58 L 57.19,135.33 L 57.18,134.67 L 57.28,133.19 L 57.43,131.66 L 58.23,128.09 L 58.71,126.25 L 59.50,123.98 M 59.68,123.46 L 60.12,122.23 L 60.37,121.66 M 67.26,108.86 L 65.74,110.82 L 64.99,112.04 L 63.85,114.01 L 63.97,113.76 L 64.32,113.09 L 64.96,111.95 L 65.58,110.88 L 66.74,109.36 L 67.34,108.66 L 68.23,107.97 M 83.97,104.04 L 87.07,105.33 L 87.83,105.87 L 89.15,106.53 L 89.81,106.79 L 91.11,106.89 L 91.79,106.88 L 93.35,106.42 L 96.29,105.11 L 97.04,104.72 L 98.32,104.20 L 98.94,103.98 L 99.75,103.83 L 99.12,104.10 L 98.66,104.48 L 97.72,105.38 L 97.09,106.06 L 94.16,108.53 L 92.18,109.49 L 91.18,109.62 L 89.19,109.64 L 88.21,109.31 L 86.25,108.40 L 85.29,107.59 L 81.85,105.71 L 79.13,105.02 L 77.68,104.95 L 74.76,105.01 L 73.35,105.33 L 72.25,105.66 L 72.82,105.38 L 75.77,104.43 L 77.23,104.04 L 80.08,103.75 L 81.47,103.68 M 114.24,107.84 L 114.50,108.11 L 114.24,107.84 M 113.22,107.20 L 113.42,107.33 L 113.21,107.20 M 105.27,104.34 L 107.08,104.79 L 107.95,105.02 L 109.49,105.51 L 110.97,106.01 L 113.02,107.10 L 110.93,106.00 L 109.44,105.50 L 107.88,105.00 L 107.00,104.77 L 105.19,104.32 M 99.34,80.29 L 100.00,80.92 L 100.00,81.17 L 100.18,82.04 L 100.62,83.46 L 100.79,83.91 L 100.81,84.56 L 100.37,84.92 L 99.85,84.83 L 98.97,84.82 L 98.56,84.84 L 97.91,85.08 L 97.60,85.23 L 97.15,85.72 L 96.69,86.75 L 96.56,87.23 L 96.30,87.69 L 96.17,87.83 L 96.00,87.50 L 95.93,85.59 L 95.98,85.34 L 95.67,84.71 L 94.80,83.86 L 94.58,83.71 L 94.35,83.48 L 94.27,83.38 L 94.35,83.22 L 94.42,83.16 L 94.81,83.07 L 95.75,83.02 L 96.35,83.01 L 97.21,82.76 L 97.58,82.60 L 97.93,82.14 L 98.03,81.90 L 97.80,81.38 L 96.75,80.66 L 96.58,80.59 L 96.44,80.46 L 96.41,80.40 L 96.53,80.28 L 97.75,80.08 L 98.37,80.06 M 93.25,146.56 L 94.01,145.92 L 95.23,144.84 L 95.80,144.33 L 96.68,143.48 L 97.08,143.08 L 97.66,142.41 L 98.18,141.77 L 98.53,140.78 L 98.45,139.97 L 98.63,140.64 L 98.58,141.11 L 98.48,141.36 L 98.22,141.88 L 97.98,142.19 L 97.44,142.83 L 97.04,143.22 L 96.15,144.06 L 95.56,144.59 L 94.28,145.70 L 93.47,146.39 L 91.73,147.85 L 90.67,148.74 L 91.64,147.93 Z" fill="rgba(244,198,168,1)"/>
<path d="M 77.73,153.36 L 77.12,153.99 L 75.94,155.14 L 75.37,155.70 L 74.35,156.62 L 73.87,157.04 L 73.11,157.63 L 72.38,158.00 L 72.30,158.00 L 72.30,158.00 L 72.78,157.72 L 73.37,157.27 L 73.77,156.94 L 75.58,155.38 L 76.64,154.39 L 77.98,153.09 M 100.76,128.13 L 100.74,128.70 L 100.67,130.05 L 100.51,132.43 L 100.44,133.35 L 100.34,134.89 L 100.29,135.60 L 100.23,136.74 L 100.20,137.25 L 100.19,138.02 L 100.19,138.35 L 100.22,138.78 L 100.25,138.95 L 100.35,139.06 L 100.41,139.08 L 100.57,138.91 L 101.31,137.50 L 101.77,136.50 L 103.05,134.88 L 103.74,134.13 L 105.33,133.09 L 106.15,132.65 L 107.83,132.31 L 110.24,132.69 L 111.00,133.04 L 112.49,133.21 L 114.73,132.72 L 115.39,132.42 L 116.67,132.34 L 117.29,132.37 L 118.36,132.89 L 118.85,133.21 L 119.55,134.21 L 120.00,136.14 L 120.00,136.60 L 119.70,137.36 L 119.49,137.72 L 118.60,138.38 L 118.06,138.71 L 116.35,139.40 L 115.87,139.58 L 114.71,139.98 L 112.65,140.63 L 111.99,140.83 L 111.08,141.25 L 110.68,141.49 L 110.21,142.22 L 110.01,142.65 L 109.81,144.04 L 109.77,144.44 L 109.71,145.42 L 109.65,147.20 L 109.61,148.77 L 109.17,151.60 L 109.04,152.24 L 108.73,153.23 L 108.22,154.18 L 108.04,154.36 L 107.15,154.72 L 106.63,154.89 L 105.19,155.20 L 104.42,155.35 L 102.59,155.59 L 99.59,155.84 L 98.22,155.90 L 95.82,155.89 L 94.68,155.85 L 92.76,155.63 L 91.87,155.50 L 90.44,155.09 L 89.79,154.87 L 88.88,154.29 L 88.49,153.98 L 88.10,153.23 L 87.97,152.84 L 88.12,151.94 L 88.27,151.48 L 88.97,150.44 L 90.67,148.74 L 91.73,147.85 L 93.47,146.39 L 94.28,145.70 L 95.56,144.59 L 96.15,144.06 L 97.04,143.22 L 97.44,142.83 L 97.98,142.19 L 98.22,141.88 L 98.48,141.36 L 98.58,141.11 L 98.63,140.64 L 98.37,139.65 L 98.68,140.00 L 99.07,140.00 L 99.43,139.78 L 99.65,139.44 L 99.73,139.19 L 100.01,138.01 L 100.01,137.25 L 100.06,135.79 L 100.14,134.54 L 100.19,133.84 L 100.45,130.87 L 100.62,129.50 L 100.76,127.84 M 76.08,129.06 L 76.82,129.41 L 77.61,130.44 L 77.77,130.83 L 78.86,131.64 L 81.08,132.52 L 81.88,132.69 L 83.58,133.59 L 85.48,135.28 L 85.82,135.76 L 86.22,136.50 L 86.38,136.85 L 86.38,137.47 L 86.33,137.79 L 85.90,138.51 L 84.74,139.94 L 82.50,142.49 L 85.00,140.49 L 85.96,139.73 L 86.05,139.65 L 84.75,140.95 L 84.33,141.48 L 84.20,141.69 L 84.00,142.07 L 84.00,142.18 L 84.12,142.83 L 84.36,142.93 L 84.96,142.98 L 85.43,142.78 L 86.48,142.24 L 87.15,141.76 L 88.47,140.75 L 88.24,140.95 L 86.06,143.28 L 85.55,143.86 L 84.66,144.97 L 83.63,146.43 L 83.40,146.81 L 82.66,147.80 L 82.26,148.32 L 81.25,149.52 L 80.20,150.75 L 78.58,152.46 L 78.66,152.34 L 78.70,152.19 L 78.53,152.28 L 78.05,152.57 L 77.62,152.89 L 74.92,154.38 L 74.01,154.73 L 73.59,154.83 L 72.81,155.00 L 72.50,155.00 L 70.00,154.39 L 68.31,153.44 L 67.54,152.75 L 66.04,151.25 L 65.43,150.36 L 64.33,148.49 L 63.99,147.48 L 62.89,145.02 L 62.50,144.45 L 62.32,144.27 L 61.98,144.00 L 61.84,144.00 L 61.26,143.63 L 61.17,143.09 L 61.29,142.75 L 61.33,142.03 L 61.21,141.37 L 61.09,140.99 L 60.44,139.32 L 59.95,138.50 L 59.07,136.80 L 58.72,135.76 L 58.67,135.22 L 58.67,135.21 L 58.98,134.74 L 59.30,134.24 L 60.56,133.50 L 62.81,133.02 L 63.89,133.04 L 66.08,132.85 L 67.15,132.72 L 69.12,132.29 L 70.05,132.05 L 71.57,131.44 L 73.09,130.39 L 73.46,129.94 L 74.33,129.38 L 74.77,129.16 L 75.65,129.05 M 88.62,132.90 L 88.71,133.92 L 88.73,134.34 L 88.73,135.84 L 88.60,136.38 L 88.26,137.36 L 87.92,137.78 L 87.84,137.88 L 88.38,136.79 L 88.60,136.15 L 88.67,134.48 L 88.66,134.01 L 88.58,132.88 L 88.38,130.86 L 87.77,125.22 L 88.43,131.08 M 99.54,125.30 L 99.57,125.74 L 99.58,126.67 L 99.52,127.24 L 99.36,128.44 L 99.22,129.15 L 98.90,130.64 L 98.68,131.50 L 97.95,135.03 L 97.86,135.88 L 97.89,135.30 L 98.10,133.88 L 98.63,131.53 L 98.86,130.67 L 99.19,129.18 L 99.34,128.47 L 99.51,127.26 L 99.57,126.69 L 99.57,125.75 L 99.54,125.32 L 99.37,124.67 M 91.89,134.96 L 91.91,135.00 L 91.89,134.96 M 59.74,129.33 L 59.19,131.80 L 59.06,132.38 L 58.81,133.38 L 58.64,133.98 L 58.71,133.41 L 58.95,131.94 L 59.17,131.00 L 59.85,128.75 M 99.35,124.62 L 99.36,124.63 L 99.32,124.53 M 99.24,124.31 L 99.24,124.32 L 99.03,124.06 M 98.66,123.68 L 98.66,123.68 L 98.28,123.53 M 98.09,123.46 L 98.09,123.46 L 98.06,123.45 M 97.79,123.37 L 97.79,123.37 L 97.12,123.36 M 67.17,114.92 L 66.57,115.91 L 65.01,118.22 L 64.63,118.78 L 63.88,119.83 L 63.56,120.25 L 63.74,119.90 L 64.57,118.60 L 66.26,116.06 L 67.16,114.90 L 67.83,114.08 M 97.03,123.35 L 95.66,123.53 L 97.03,123.35 M 75.26,107.69 L 74.31,108.12 L 72.59,109.29 L 72.70,109.21 L 74.51,107.96 L 75.37,107.58 L 77.04,107.00 L 77.07,107.00 Z" fill="rgba(244,167,52,1)"/>
<path d="M 66.86,153.25 L 65.63,152.07 L 63.46,149.51 L 62.42,148.20 L 60.68,145.47 L 59.87,144.09 L 58.63,141.29 L 57.37,137.10 L 57.19,136.21 L 57.25,133.90 L 57.34,132.68 L 57.87,129.86 L 58.18,128.41 L 59.08,125.32 L 59.57,123.76 L 60.77,120.61 L 61.39,119.05 L 62.78,116.07 L 63.49,114.62 L 64.99,112.04 L 65.74,110.82 L 67.26,108.86 L 69.45,106.87 L 70.62,106.16 L 73.35,105.33 L 74.76,105.01 L 77.68,104.95 L 79.13,105.02 L 81.85,105.71 L 85.29,107.59 L 86.25,108.40 L 88.21,109.31 L 89.19,109.64 L 91.18,109.62 L 92.18,109.49 L 94.16,108.53 L 97.09,106.06 L 97.72,105.38 L 98.66,104.48 L 99.12,104.10 L 100.00,103.72 L 100.47,103.59 L 101.64,103.65 L 104.12,104.09 L 105.16,104.31 L 107.00,104.77 L 107.88,105.00 L 109.44,105.50 L 110.93,106.00 L 113.20,107.20 L 114.23,107.83 L 115.74,109.39 L 117.38,112.27 L 118.97,116.35 L 115.49,119.45 L 114.53,120.30 L 113.02,121.99 L 112.71,122.38 L 112.28,123.04 L 112.00,123.76 L 112.00,124.19 L 112.73,124.88 L 113.19,125.18 L 114.53,125.55 L 115.24,125.69 L 116.77,125.66 L 118.85,125.08 L 119.52,124.72 L 120.49,124.52 L 120.70,124.52 L 121.06,124.71 L 121.24,124.84 L 121.52,125.31 L 121.65,125.58 L 121.88,126.35 L 121.99,126.79 L 122.17,127.92 L 122.27,128.53 L 122.43,130.05 L 122.69,132.82 L 122.76,133.64 L 122.86,135.01 L 122.91,135.65 L 122.95,136.71 L 122.98,137.70 L 122.80,139.00 L 122.65,139.59 L 122.04,140.46 L 120.50,141.82 L 119.68,142.46 L 117.54,143.39 L 114.28,144.00 L 113.74,144.00 L 112.88,143.90 L 112.48,143.84 L 111.90,143.65 L 111.65,143.54 L 111.36,143.26 L 111.25,143.12 L 111.24,142.80 L 111.27,142.63 L 111.53,142.29 L 111.69,142.11 L 112.23,141.78 L 112.53,141.61 L 113.33,141.30 L 114.82,140.90 L 115.69,140.73 L 117.50,140.08 L 119.49,139.01 L 119.90,138.67 L 120.44,137.76 L 120.67,137.28 L 120.88,136.15 L 120.95,135.58 L 120.88,134.35 L 120.81,133.73 L 120.49,132.50 L 120.29,131.89 L 119.75,130.78 L 119.45,130.24 L 118.72,129.34 L 118.33,128.93 L 117.45,128.36 L 115.99,128.00 L 115.76,128.00 L 115.15,127.82 L 114.83,127.71 L 114.10,127.35 L 113.36,126.95 L 111.79,125.80 L 111.03,125.20 L 109.83,123.97 L 109.57,123.68 L 109.22,123.15 L 109.00,122.48 L 109.00,122.37 L 109.20,121.91 L 109.32,121.65 L 109.73,120.96 L 111.50,118.41 L 112.19,117.51 L 113.27,115.68 L 113.49,115.25 L 113.80,114.52 L 114.00,113.71 L 114.00,113.51 L 113.60,112.95 L 113.34,112.64 L 112.50,111.93 L 112.04,111.56 L 110.88,110.78 L 108.91,109.64 L 107.74,109.04 L 106.07,108.25 L 105.31,107.92 L 104.19,107.64 L 103.67,107.55 L 102.74,107.73 L 101.16,108.43 L 100.19,108.95 L 98.34,109.81 L 97.44,110.21 L 95.71,110.84 L 94.01,111.40 L 90.92,111.82 L 89.43,111.91 L 86.71,111.37 L 83.00,109.50 L 82.07,108.81 L 80.07,107.73 L 79.60,107.51 L 78.77,107.20 L 77.79,107.00 L 77.04,107.00 L 75.37,107.58 L 74.51,107.96 L 72.70,109.21 L 71.78,109.91 L 69.91,111.71 L 68.98,112.67 L 67.16,114.90 L 66.26,116.06 L 64.57,118.60 L 63.74,119.90 L 62.28,122.64 L 61.58,124.02 L 60.43,126.83 L 59.17,131.00 L 58.95,131.94 L 58.71,133.41 L 58.63,134.09 L 58.67,135.22 L 58.72,135.76 L 59.07,136.80 L 59.95,138.50 L 60.44,139.32 L 61.09,140.99 L 61.21,141.37 L 61.33,142.03 L 61.29,142.75 L 61.17,143.09 L 61.26,143.63 L 61.84,144.00 L 61.98,144.00 L 62.32,144.27 L 62.50,144.45 L 62.89,145.02 L 63.99,147.48 L 64.33,148.49 L 65.43,150.36 L 66.04,151.25 L 67.54,152.75 L 68.31,153.44 L 70.00,154.39 L 72.50,155.00 L 72.81,155.00 L 73.59,154.83 L 74.01,154.73 L 74.92,154.38 L 77.62,152.89 L 78.05,152.57 L 78.53,152.28 L 78.70,152.19 L 78.66,152.34 L 78.57,152.47 L 78.02,153.05 L 76.64,154.39 L 75.58,155.38 L 73.77,156.94 L 73.37,157.27 L 72.78,157.72 L 72.29,158.00 L 72.22,158.00 L 71.71,157.63 L 71.40,157.38 L 70.49,156.60 L 70.00,156.17 L 68.82,155.09 L 68.20,154.53 M 84.00,142.18 L 84.00,142.07 L 84.20,141.69 L 84.33,141.48 L 84.75,140.95 L 86.55,139.15 L 87.14,138.63 L 87.92,137.78 L 88.26,137.36 L 88.60,136.38 L 88.73,135.84 L 88.73,134.34 L 88.71,133.92 L 88.62,132.90 L 88.43,131.08 L 87.77,125.22 L 92.53,122.43 L 97.29,119.64 L 99.26,122.07 L 99.66,122.56 L 100.21,123.49 L 100.45,123.96 L 100.72,125.00 L 100.82,125.55 L 100.84,126.90 L 100.62,129.50 L 100.45,130.87 L 100.19,133.84 L 100.14,134.54 L 100.06,135.79 L 100.01,137.25 L 100.01,138.01 L 99.73,139.19 L 99.65,139.44 L 99.43,139.78 L 99.07,140.00 L 98.68,140.00 L 98.16,139.41 L 97.94,139.02 L 97.78,137.71 L 97.75,136.97 L 97.95,135.03 L 98.68,131.50 L 98.90,130.64 L 99.22,129.15 L 99.36,128.44 L 99.52,127.24 L 99.58,126.67 L 99.57,125.74 L 99.54,125.30 L 99.35,124.62 L 99.24,124.31 L 98.86,123.87 L 98.66,123.68 L 98.09,123.46 L 97.79,123.37 L 97.03,123.35 L 95.66,123.53 L 94.98,123.67 L 93.78,124.13 L 93.22,124.38 L 92.26,125.02 L 91.82,125.37 L 91.11,126.19 L 90.79,126.61 L 90.35,127.57 L 90.16,128.06 L 89.99,129.12 L 89.95,129.67 L 90.06,130.81 L 90.16,131.39 L 90.57,132.59 L 91.53,134.41 L 91.89,134.96 L 92.30,135.78 L 92.45,136.16 L 92.33,136.85 L 92.20,137.21 L 91.45,138.07 L 89.50,139.87 L 88.62,140.64 L 87.15,141.76 L 86.48,142.24 L 85.43,142.78 L 84.96,142.98 L 84.36,142.93 L 84.12,142.83 Z" fill="rgba(237,188,105,1)"/>
</g>
</svg>