<svg xmlns="http://www.w3.org/2000/svg" width="200" height="200" viewBox="0 0 200 200">
<g>
<path d="M 20.39,174.58 L 20.87,175.05 L 21.46,175.24 L 22.84,175.59 L 23.76,175.72 L 23.71,175.71 L 22.80,175.63 L 21.50,175.41 L 20.94,175.29 L 20.52,175.03 L 20.43,174.88 L 20.39,174.58 M 38.43,175.54 L 38.28,175.56 L 38.45,175.53 M 35.00,170.60 L 35.96,171.12 L 37.48,172.03 L 38.17,172.47 L 39.13,173.21 L 39.53,173.56 L 39.92,174.15 L 40.04,174.42 L 39.97,174.60 L 39.63,174.04 L 39.05,173.47 L 38.63,173.13 L 36.66,171.66 L 35.45,170.89 L 34.80,170.49 M 29.81,165.01 L 28.98,166.53 L 28.61,166.98 L 28.43,167.60 L 27.33,167.30 L 25.68,167.08 L 24.11,167.09 L 23.33,167.18 L 21.92,167.46 L 21.24,167.76 L 21.00,168.00 L 20.59,168.54 L 20.46,168.92 L 20.27,169.66 L 20.32,167.71 L 20.36,166.23 L 20.46,164.00 L 30.24,164.00 M 37.96,139.14 L 37.44,141.39 L 37.15,142.59 L 36.41,145.32 L 35.63,148.14 L 33.73,154.23 L 33.25,155.72 L 32.84,156.92 L 34.28,152.25 L 35.74,147.35 L 36.65,144.15 L 37.04,142.70 L 37.76,139.93 L 38.02,138.83 L 38.02,138.83 M 42.55,143.34 L 42.73,145.84 L 43.00,150.95 L 43.00,150.96 L 42.73,145.86 L 42.55,143.36 L 42.13,139.84 M 23.47,117.59 L 23.29,120.39 L 22.91,126.15 L 22.71,129.15 L 22.29,135.18 L 22.09,138.12 L 21.68,143.90 L 21.49,146.50 L 21.30,149.05 L 21.21,150.22 L 21.18,150.61 L 21.32,148.43 L 21.49,145.63 L 21.92,139.37 L 22.65,129.00 L 22.75,127.56 L 22.94,124.91 L 23.04,123.63 L 23.20,121.26 L 23.37,118.96 L 23.63,115.09 L 23.63,115.00 M 39.58,132.49 L 39.44,132.81 L 39.11,133.84 L 39.02,134.15 L 39.22,133.25 L 39.48,132.55 L 39.60,132.34 L 39.84,132.00 L 39.86,132.00 M 24.14,91.24 L 24.19,92.15 L 24.27,94.08 L 24.30,95.22 L 24.33,97.60 L 24.32,98.98 L 24.30,101.86 L 24.27,103.50 L 24.23,104.75 L 24.17,105.97 L 24.13,106.75 L 24.03,108.44 L 23.98,109.42 L 23.96,109.69 L 24.02,108.69 L 24.13,106.15 L 24.24,103.71 L 24.28,99.57 L 24.28,98.52 L 24.25,96.34 L 24.17,92.72 L 24.14,91.34 L 24.11,90.87 M 43.16,58.74 L 43.57,59.11 L 44.33,59.96 L 44.59,60.49 L 45.00,61.60 L 45.00,62.19 L 44.90,63.09 L 44.73,63.49 L 44.57,63.59 L 44.22,63.73 L 43.96,63.71 L 43.38,63.62 L 43.00,63.50 L 41.11,63.46 L 39.90,63.96 L 39.43,64.43 L 38.37,65.31 L 37.80,65.56 L 36.64,65.93 L 36.06,65.94 L 34.91,65.81 L 34.38,65.57 L 33.37,64.95 L 32.96,64.45 L 32.37,63.60 L 32.20,63.12 L 32.22,62.89 L 32.34,62.43 L 32.51,62.18 L 32.92,61.65 L 33.25,61.32 L 35.11,60.13 L 36.66,59.54 L 37.36,59.47 L 39.47,59.07 L 40.68,58.70 L 40.99,58.51 L 42.26,58.35 M 183.80,129.29 L 184.00,131.46 L 184.00,133.52 L 184.00,131.46 Z" fill="rgba(0,0,0,1)"/>
<path d="M 42.19,129.18 L 44.26,132.85 L 45.36,135.93 L 45.76,137.77 L 46.48,141.64 L 46.69,143.84 L 47.01,148.41 L 47.02,150.93 L 47.09,154.75 L 47.20,157.09 L 47.27,158.08 L 47.44,159.91 L 47.55,160.56 L 47.76,161.65 L 47.87,161.83 L 49.30,162.68 L 50.79,162.92 L 51.61,162.83 L 54.26,162.53 L 54.08,163.66 L 54.01,164.11 L 53.90,164.81 L 53.79,165.47 L 53.74,165.84 L 53.92,166.55 L 54.07,166.90 L 54.71,167.64 L 55.10,168.01 L 56.28,168.84 L 58.75,170.29 L 59.78,170.84 L 61.14,171.66 L 59.97,170.99 L 58.95,170.48 L 55.24,168.29 L 54.31,167.61 L 54.00,167.32 L 53.48,166.80 L 53.41,166.62 L 52.91,166.08 L 52.32,165.79 L 51.91,165.69 L 51.03,165.51 L 50.49,165.46 L 49.35,165.39 L 48.70,165.41 L 44.50,165.50 L 43.90,176.00 L 43.85,176.00 L 44.11,170.51 L 44.18,169.01 L 44.09,166.44 L 44.05,165.88 L 43.93,165.05 L 43.68,164.35 L 43.59,164.25 L 43.42,163.28 L 43.34,162.68 L 43.20,160.88 L 43.14,159.90 L 43.05,157.50 L 43.00,153.50 L 43.00,150.95 L 42.73,145.84 L 42.55,143.34 L 42.02,138.92 L 41.87,137.90 L 41.55,136.11 L 41.39,135.27 L 41.04,133.92 L 40.86,133.32 L 40.50,132.51 L 39.95,132.00 L 39.84,132.00 L 39.60,132.34 L 39.48,132.55 L 39.23,133.23 L 40.39,126.87 M 63.72,175.03 L 62.87,175.36 L 62.37,175.52 L 60.88,175.73 L 60.05,175.83 L 57.91,175.94 L 54.19,176.00 L 57.90,175.93 L 60.05,175.81 L 60.88,175.72 L 62.38,175.49 L 62.89,175.34 L 63.73,175.01 M 125.61,174.25 L 124.97,174.71 L 124.43,175.00 L 124.00,175.00 L 122.98,174.59 L 123.34,174.70 L 124.23,174.86 L 124.71,174.69 L 125.65,174.22 M 122.62,174.41 L 122.44,174.32 L 122.37,174.27 M 127.95,172.33 L 127.81,172.44 L 128.51,171.82 M 118.98,170.46 L 118.98,170.44 L 119.36,171.10 M 37.19,141.95 L 38.04,138.67 L 38.32,137.46 L 38.26,137.78 L 38.02,138.83 L 37.76,139.93 L 37.04,142.70 L 36.65,144.15 L 35.74,147.35 L 34.28,152.25 L 30.65,164.00 L 34.27,152.25 M 162.47,154.91 L 164.29,154.66 L 167.88,153.93 L 169.55,153.26 L 172.80,151.74 L 174.26,150.71 L 176.39,149.01 L 174.27,150.71 L 172.81,151.74 L 169.56,153.26 L 167.89,153.93 L 164.30,154.66 L 162.48,154.92 L 158.68,154.76 L 152.88,153.45 L 158.67,154.76 M 177.07,148.47 L 177.06,148.48 L 177.42,148.07 M 58.43,136.94 L 57.81,140.74 L 58.38,136.94 M 184.00,131.46 L 184.00,131.52 L 183.81,129.41 M 183.80,129.29 L 183.80,129.31 L 183.61,128.38 M 181.95,123.28 L 180.98,121.39 L 181.95,123.28 M 22.30,59.00 L 21.37,59.27 L 22.30,59.00 L 22.48,59.00 L 22.90,58.73 L 22.48,59.00 Z" fill="rgba(44,103,159,1)"/>
<path d="M 20.24,163.18 L 20.69,163.55 L 21.10,163.68 L 22.06,163.88 L 22.78,163.93 L 24.40,164.00 L 20.03,164.00 L 20.12,163.03 M 28.06,163.93 L 29.33,163.80 L 29.76,163.69 L 30.51,163.43 L 30.71,163.26 L 31.00,162.86 L 30.65,164.00 L 25.50,164.00 M 24.13,106.98 L 24.03,109.54 L 23.81,114.92 L 23.67,118.00 L 23.18,128.50 L 24.24,117.67 L 25.31,106.84 L 37.40,107.55 L 42.15,107.91 L 44.98,108.19 L 46.13,108.35 L 48.24,108.66 L 48.93,108.81 L 49.55,108.96 L 49.76,109.04 L 50.09,109.18 L 50.13,109.25 L 50.42,109.97 L 50.64,110.74 L 50.75,111.23 L 51.20,113.41 L 51.36,114.62 L 51.76,116.65 L 52.16,118.15 L 52.40,118.92 L 52.91,120.46 L 53.19,121.17 L 53.77,122.54 L 54.05,123.11 L 55.38,126.88 L 55.69,128.40 L 55.81,129.26 L 56.01,131.06 L 56.07,132.07 L 56.17,134.18 L 56.18,135.37 L 56.18,137.85 L 56.14,139.25 L 56.04,142.14 L 55.96,143.77 L 55.76,147.13 L 55.63,149.00 L 55.11,156.50 L 56.72,146.72 L 58.32,136.94 L 58.38,136.94 L 56.44,149.72 L 54.94,159.59 L 54.90,159.35 L 54.68,159.28 L 54.15,159.29 L 53.74,159.53 L 52.85,160.18 L 52.29,160.75 L 51.35,161.71 L 51.08,162.02 L 50.66,162.55 L 50.65,162.69 L 50.75,162.91 L 50.80,162.92 L 50.79,162.92 L 49.30,162.68 L 47.87,161.83 L 47.76,161.65 L 47.55,160.56 L 47.44,159.91 L 47.27,158.08 L 47.20,157.09 L 47.09,154.75 L 47.02,150.93 L 47.01,148.41 L 46.69,143.84 L 46.48,141.64 L 45.76,137.77 L 45.36,135.93 L 44.26,132.85 L 42.19,129.18 L 40.39,126.87 L 39.14,133.68 L 39.06,134.15 L 38.82,135.29 L 38.69,135.89 L 38.37,137.26 L 38.24,137.81 L 38.39,137.14 L 38.63,135.89 L 40.37,126.84 L 42.25,129.17 L 43.30,130.46 L 43.66,130.85 L 43.68,130.79 L 43.61,130.50 L 43.41,130.07 L 42.92,129.03 L 42.52,128.22 L 41.12,126.06 L 40.68,125.63 L 40.50,125.53 L 40.15,125.41 L 40.02,125.49 L 39.54,126.11 L 39.16,126.86 L 38.95,127.38 L 38.53,128.49 L 38.31,129.16 L 37.87,130.56 L 37.64,131.33 L 36.76,134.62 L 36.38,136.37 L 35.67,139.88 L 35.44,141.50 L 34.54,145.82 L 34.16,147.18 L 33.96,147.76 L 33.56,148.83 L 33.37,149.20 L 32.42,152.08 L 32.05,154.29 L 32.07,155.20 L 32.12,156.41 L 32.20,156.67 L 32.38,156.96 L 32.56,156.71 L 32.75,156.39 L 32.87,156.13 L 33.13,155.53 L 33.29,155.12 L 33.63,154.22 L 33.83,153.66 L 33.86,153.58 L 31.00,162.86 L 31.00,162.61 L 30.83,161.96 L 30.51,161.71 L 30.21,161.69 L 29.52,161.69 L 28.99,161.78 L 27.81,162.02 L 27.00,162.23 L 25.04,162.64 L 23.98,162.76 L 23.55,162.75 L 22.75,162.66 L 22.41,162.53 L 21.78,162.23 L 21.50,162.00 L 20.75,161.44 L 20.40,161.28 L 20.29,161.31 L 20.28,161.32 L 20.56,158.25 L 20.62,157.68 L 20.74,156.19 L 20.81,155.39 L 20.96,153.48 L 21.04,152.48 L 21.21,150.22 L 21.22,150.12 L 21.22,151.50 L 21.25,157.50 L 22.05,153.00 L 22.61,148.65 L 22.74,147.11 L 22.77,146.41 L 22.83,145.05 L 22.83,144.50 L 22.78,142.51 L 22.72,141.76 L 22.66,141.66 L 22.52,141.62 L 22.42,141.85 L 22.17,142.46 L 22.00,143.00 L 21.69,144.44 L 21.58,145.29 L 21.68,143.90 L 22.09,138.12 L 22.29,135.18 L 22.71,129.15 L 22.91,126.15 L 23.29,120.39 L 23.47,117.59 L 23.78,112.65 L 23.85,111.50 L 23.98,109.42 L 24.03,108.44 L 24.13,106.75 L 24.14,106.51 M 54.50,162.50 L 53.46,162.62 L 53.64,162.57 L 54.47,161.94 L 54.63,161.53 L 54.68,161.30 M 23.88,88.62 L 23.99,89.51 L 24.18,91.46 L 24.24,92.70 L 24.32,95.38 L 24.32,97.02 L 24.32,97.06 L 24.30,95.22 L 24.27,94.08 L 24.19,92.15 L 24.14,91.24 L 24.00,89.73 L 23.92,89.03 L 23.72,87.91 L 23.67,87.67 M 23.42,86.74 L 23.58,87.32 L 23.59,87.35 L 23.33,86.61 L 23.28,86.49 M 23.01,85.99 L 23.06,86.08 L 22.97,85.96 M 159.78,65.48 L 160.23,66.19 L 160.39,66.63 L 160.64,67.55 L 160.66,67.98 L 160.62,68.81 L 160.44,69.09 L 160.05,69.57 L 159.79,69.73 L 159.24,70.00 L 159.00,70.00 L 158.21,69.73 L 157.71,69.34 L 157.56,69.09 L 157.34,67.98 L 157.46,67.07 L 157.61,66.63 L 157.98,65.78 L 158.22,65.48 L 158.73,65.00 L 159.00,65.00 M 169.13,34.47 L 170.76,34.68 L 171.54,34.90 L 174.55,36.38 L 176.47,37.91 L 177.27,38.83 L 178.76,40.74 L 179.24,41.72 L 180.00,43.67 L 180.00,44.54 L 179.69,46.25 L 179.19,47.54 L 178.83,48.22 L 177.10,51.01 L 175.98,52.31 L 173.64,54.78 L 172.46,55.63 L 171.30,56.40 L 170.76,56.65 L 169.71,57.03 L 169.26,57.04 L 167.28,57.48 L 165.69,58.11 L 165.00,58.50 L 163.44,59.36 L 162.89,59.58 L 161.94,59.90 L 161.65,59.85 L 161.20,59.60 L 161.13,59.26 L 161.09,58.43 L 161.18,57.79 L 161.68,56.60 L 162.36,55.76 L 162.88,55.30 L 164.04,54.36 L 164.81,53.85 L 166.47,52.80 L 167.50,52.23 L 170.32,50.63 L 171.85,49.72 L 172.47,49.32 L 173.59,48.57 L 174.01,48.24 L 174.77,47.59 L 175.02,47.28 L 175.46,46.68 L 175.57,46.38 L 175.72,45.78 L 175.71,45.46 L 175.45,44.10 L 175.08,43.20 L 173.42,40.43 L 172.04,39.16 L 171.20,38.82 L 169.43,38.31 L 168.39,38.34 L 166.22,38.60 L 164.98,39.01 L 163.07,39.56 L 162.03,39.76 L 161.62,39.78 L 160.87,39.77 L 160.58,39.68 L 160.05,39.45 L 159.86,39.26 L 159.26,38.16 L 159.33,37.44 L 159.57,37.10 L 160.16,36.43 L 160.62,36.14 L 161.64,35.57 L 162.26,35.34 L 163.59,34.90 L 164.33,34.75 L 165.87,34.49 L 166.68,34.44 L 168.31,34.40 Z" fill="rgba(58,149,228,1)"/>
<path d="M 55.76,147.17 L 55.68,148.38 L 55.76,147.17 M 54.19,123.35 L 55.44,127.03 L 55.72,128.54 L 55.83,129.41 L 55.90,130.14 L 55.81,129.26 L 55.69,128.40 L 55.38,126.88 L 54.05,123.11 L 53.77,122.54 L 53.68,122.34 M 23.29,127.38 L 23.18,128.50 L 23.29,126.23 M 50.59,102.41 L 50.70,103.07 L 50.74,103.54 L 50.80,104.58 L 50.82,105.21 L 50.83,106.53 L 50.82,107.25 L 50.92,111.77 L 50.99,112.40 L 50.75,111.23 L 50.64,110.74 L 50.42,109.97 L 50.13,109.25 L 50.09,109.18 L 49.76,109.04 L 49.55,108.96 L 48.93,108.81 L 48.24,108.66 L 46.13,108.35 L 44.98,108.19 L 42.15,107.91 L 41.21,107.84 L 41.32,107.84 L 42.00,107.85 L 44.43,107.84 L 45.77,107.77 L 46.25,107.72 L 47.09,107.59 L 47.28,107.51 L 47.50,107.33 L 47.34,107.23 L 46.91,106.77 L 46.82,106.38 L 46.87,106.15 L 47.04,105.63 L 47.23,105.32 L 47.67,104.65 L 48.00,104.25 L 49.45,102.66 L 49.86,102.29 L 50.02,102.18 L 50.30,102.00 L 50.38,102.00 M 12.31,77.32 L 12.79,77.60 L 13.09,77.88 L 13.73,78.53 L 14.12,79.00 L 15.25,80.06 L 16.24,80.76 L 16.81,81.08 L 19.21,82.28 L 20.35,82.57 L 22.37,83.18 L 23.30,83.59 L 23.59,83.81 L 24.05,84.29 L 24.14,84.57 L 24.22,85.19 L 24.15,85.57 L 24.13,86.72 L 24.35,86.97 L 24.56,86.77 L 25.08,86.52 L 25.45,86.57 L 25.64,86.69 L 26.40,87.42 L 26.74,88.06 L 27.39,89.51 L 27.60,90.39 L 27.96,92.22 L 27.97,93.17 L 28.17,95.20 L 28.54,96.41 L 28.88,97.02 L 29.67,98.26 L 30.28,98.97 L 31.64,100.48 L 32.58,101.42 L 34.72,103.40 L 36.05,104.46 L 36.67,104.86 L 37.85,105.56 L 38.38,105.78 L 39.40,106.11 L 39.83,106.13 L 41.10,106.23 L 41.48,106.31 L 41.42,106.37 L 41.14,106.51 L 40.74,106.61 L 39.76,106.84 L 39.00,107.00 L 37.46,107.38 L 37.17,107.54 L 25.31,106.84 L 24.77,112.31 L 24.77,112.19 L 24.77,111.50 L 24.74,109.03 L 24.68,108.09 L 24.63,107.94 L 24.50,107.87 L 24.39,108.13 L 24.16,108.86 L 24.04,109.35 L 24.13,106.98 L 24.25,102.59 L 24.30,100.51 L 24.32,97.02 L 24.32,95.38 L 24.24,92.70 L 24.18,91.46 L 23.99,89.51 L 23.88,88.62 L 23.58,87.32 L 23.42,86.74 L 23.01,85.99 L 22.25,85.40 L 20.84,84.97 L 18.20,83.88 L 16.93,83.31 L 14.67,82.01 L 13.60,81.35 L 11.86,79.93 L 10.41,78.24 L 10.59,78.31 L 10.74,78.24 L 11.04,78.01 L 11.19,77.78 L 11.70,77.30 L 12.08,77.23 M 8.61,74.97 L 8.49,74.68 L 8.40,74.29 M 8.31,73.91 L 8.17,73.30 L 8.06,72.62 L 8.07,72.48 M 8.98,69.36 L 8.61,70.11 L 8.17,71.17 L 8.23,70.75 L 8.71,69.60 L 9.00,69.04 L 9.89,67.98 L 9.94,67.93 M 21.37,60.71 L 21.91,61.01 L 22.25,61.02 L 22.89,61.23 L 22.60,61.60 L 22.10,61.91 L 21.50,62.37 L 21.33,62.61 L 21.36,62.71 L 21.52,62.90 L 21.73,62.99 L 22.22,63.16 L 22.60,63.26 L 23.12,63.50 L 23.09,63.69 L 22.88,63.80 L 22.36,64.01 L 21.92,64.13 L 20.92,64.36 L 20.25,64.48 L 17.25,65.25 L 16.55,65.53 L 16.34,65.66 L 16.00,65.91 L 16.00,66.01 L 15.37,66.82 L 14.50,67.20 L 14.00,67.28 L 12.99,67.36 L 12.61,67.26 L 11.98,66.97 L 11.97,66.66 L 11.84,66.39 L 12.39,66.02 L 14.12,65.13 L 17.19,63.85 L 18.04,63.54 L 19.48,62.95 L 20.16,62.66 L 21.19,62.15 L 21.64,61.92 L 22.13,61.55 L 22.17,61.22 L 21.77,61.09 L 21.29,60.65 L 21.10,60.42 L 21.06,60.12 M 21.05,59.67 L 21.05,59.67 L 21.37,59.27 L 22.30,59.00 L 21.38,59.29 Z" fill="rgba(64,78,198,1)"/>
<path d="M 50.91,109.89 L 50.98,110.87 L 51.13,112.74 L 51.23,113.56 L 51.43,115.14 L 51.56,115.84 L 52.09,118.27 L 51.49,115.82 L 51.22,114.52 L 50.92,111.77 L 50.85,108.72 M 21.58,62.38 L 21.57,62.62 L 21.73,62.71 L 22.15,62.90 L 22.54,62.97 L 23.43,63.11 L 24.06,63.17 L 25.59,63.43 L 26.41,63.69 L 26.72,63.87 L 27.26,64.23 L 27.43,64.45 L 27.71,64.91 L 27.74,65.17 L 27.74,65.71 L 27.63,66.00 L 27.35,66.60 L 27.11,66.92 L 26.55,67.57 L 26.16,67.91 L 25.32,68.59 L 24.80,68.95 L 23.64,69.73 L 23.06,70.13 L 22.87,70.28 L 22.55,70.53 L 22.50,70.60 L 22.45,70.70 L 22.54,70.69 L 22.79,70.63 L 23.02,70.54 L 23.57,70.32 L 23.96,70.16 L 24.83,69.78 L 25.04,69.69 L 24.74,69.87 L 24.13,70.31 L 23.53,70.95 L 23.29,71.34 L 23.12,72.07 L 23.08,72.43 L 23.27,73.07 L 23.40,73.38 L 23.90,73.91 L 24.18,74.15 L 24.93,74.54 L 25.73,74.89 L 27.87,75.08 L 28.98,75.07 L 31.42,74.39 L 31.66,74.30 L 31.67,74.37 L 31.77,74.54 L 32.43,75.33 L 33.05,75.84 L 34.05,76.90 L 34.64,77.78 L 34.88,78.30 L 35.73,80.55 L 35.91,81.88 L 36.26,83.83 L 36.53,84.83 L 36.67,85.18 L 36.96,85.79 L 37.11,85.94 L 37.40,86.15 L 37.55,86.11 L 37.85,85.93 L 37.99,85.69 L 38.26,85.12 L 38.39,84.70 L 38.63,83.75 L 38.73,83.13 L 38.93,81.80 L 39.00,81.00 L 39.34,78.10 L 39.61,76.80 L 39.81,76.39 L 40.26,75.71 L 40.59,75.53 L 41.31,75.24 L 41.82,75.17 L 44.68,75.42 L 46.81,76.12 L 47.85,76.67 L 49.90,77.90 L 50.77,78.64 L 52.37,80.20 L 52.88,81.04 L 55.04,83.93 L 56.67,85.50 L 57.56,86.10 L 59.41,87.17 L 60.42,87.52 L 62.47,88.09 L 63.57,88.18 L 65.63,88.43 L 66.54,88.68 L 66.82,88.87 L 67.27,89.32 L 67.37,89.66 L 67.50,90.43 L 67.50,90.97 L 66.87,93.14 L 65.83,94.29 L 65.00,94.71 L 62.07,95.59 L 59.65,95.92 L 58.46,95.95 L 56.13,95.92 L 55.25,95.76 L 54.42,95.58 L 54.12,95.45 L 53.61,95.18 L 53.50,95.00 L 52.69,94.29 L 51.97,94.00 L 51.62,94.00 L 51.03,94.49 L 50.77,95.36 L 50.69,96.12 L 50.58,97.87 L 50.58,99.13 L 50.58,100.45 L 50.59,101.22 L 50.62,102.62 L 50.59,102.41 L 50.38,102.00 L 50.30,102.00 L 50.02,102.18 L 49.86,102.29 L 49.45,102.66 L 48.00,104.25 L 47.67,104.65 L 47.23,105.32 L 47.04,105.63 L 46.87,106.15 L 46.82,106.38 L 46.91,106.77 L 47.34,107.23 L 47.50,107.33 L 47.28,107.51 L 47.09,107.59 L 46.25,107.72 L 45.77,107.77 L 44.43,107.84 L 42.00,107.85 L 41.32,107.84 L 40.18,107.81 L 39.66,107.80 L 38.82,107.77 L 38.43,107.75 L 37.88,107.70 L 37.64,107.68 L 37.35,107.62 L 37.14,107.56 L 37.46,107.38 L 39.00,107.00 L 39.76,106.84 L 40.74,106.61 L 41.14,106.51 L 41.42,106.37 L 41.48,106.31 L 41.10,106.23 L 39.83,106.13 L 39.40,106.11 L 38.38,105.78 L 37.85,105.56 L 36.67,104.86 L 36.05,104.46 L 34.72,103.40 L 32.58,101.42 L 31.64,100.48 L 30.28,98.97 L 29.67,98.26 L 28.88,97.02 L 28.54,96.41 L 28.17,95.20 L 27.97,93.17 L 27.96,92.22 L 27.60,90.39 L 27.39,89.51 L 26.74,88.06 L 26.40,87.42 L 25.64,86.69 L 25.45,86.57 L 25.08,86.52 L 24.56,86.77 L 24.35,86.97 L 24.13,86.72 L 24.15,85.57 L 24.22,85.19 L 24.14,84.57 L 24.05,84.29 L 23.59,83.81 L 23.30,83.59 L 22.37,83.18 L 20.35,82.57 L 19.21,82.28 L 16.81,81.08 L 16.24,80.76 L 15.25,80.06 L 14.12,79.00 L 13.73,78.53 L 13.09,77.88 L 12.79,77.60 L 12.31,77.32 L 12.08,77.23 L 11.70,77.30 L 11.19,77.78 L 11.04,78.01 L 10.79,78.20 L 10.79,77.71 L 10.77,77.33 L 10.70,76.49 L 10.65,75.95 L 10.51,74.81 L 10.42,74.13 L 10.22,71.99 L 10.19,70.80 L 10.23,70.33 L 10.34,69.48 L 10.45,69.18 L 10.71,68.68 L 10.89,68.57 L 11.66,67.73 L 11.98,67.02 L 11.97,66.69 L 11.78,66.28 L 11.51,66.30 L 11.32,66.43 L 10.46,67.23 L 9.96,67.90 L 9.91,67.97 L 9.96,67.90 L 10.46,67.22 L 11.32,66.41 L 11.51,66.28 L 11.78,66.26 L 11.97,66.66 L 11.98,66.97 L 12.61,67.26 L 12.99,67.36 L 14.00,67.28 L 14.50,67.20 L 15.37,66.82 L 16.00,66.01 L 16.00,65.91 L 16.34,65.66 L 16.55,65.53 L 17.25,65.25 L 20.25,64.48 L 20.92,64.36 L 21.92,64.13 L 22.36,64.01 L 22.88,63.80 L 23.09,63.69 L 23.12,63.50 L 22.60,63.26 L 22.22,63.16 L 21.73,62.99 L 21.52,62.90 L 21.36,62.71 L 21.33,62.61 L 21.50,62.37 L 22.03,61.97 M 9.16,76.45 L 9.18,76.49 L 9.17,76.48 L 8.85,75.77 L 8.85,75.77 M 32.98,71.07 L 32.86,72.56 L 32.67,73.10 L 32.47,73.60 L 32.34,73.76 L 32.06,74.00 L 31.98,74.00 L 32.47,73.18 L 32.73,72.58 L 32.97,71.08 L 32.98,71.04 Z" fill="rgba(67,80,223,1)"/>
<path d="M 20.75,161.44 L 21.50,162.00 L 21.78,162.23 L 22.41,162.53 L 22.75,162.66 L 23.55,162.75 L 23.98,162.76 L 25.04,162.64 L 27.00,162.23 L 27.81,162.02 L 28.99,161.78 L 29.52,161.69 L 30.21,161.69 L 30.51,161.71 L 30.83,161.96 L 31.00,162.61 L 31.00,162.86 L 30.71,163.26 L 30.51,163.43 L 29.76,163.69 L 29.33,163.80 L 28.06,163.93 L 25.50,164.00 L 24.40,164.00 L 22.78,163.93 L 22.06,163.88 L 21.10,163.68 L 20.69,163.55 L 20.24,163.18 L 20.07,162.97 L 20.00,162.38 L 20.00,162.05 L 20.06,161.61 L 20.11,161.44 L 20.29,161.31 L 20.40,161.28 M 54.90,159.35 L 55.01,159.96 L 54.63,161.53 L 54.47,161.94 L 53.64,162.57 L 52.07,163.00 L 51.58,163.00 L 50.99,162.95 L 50.75,162.91 L 50.65,162.69 L 50.66,162.55 L 51.08,162.02 L 51.35,161.71 L 52.29,160.75 L 52.85,160.18 L 53.74,159.53 L 54.15,159.29 L 54.68,159.28 M 22.66,141.66 L 22.72,141.76 L 22.78,142.51 L 22.83,144.50 L 22.83,145.05 L 22.77,146.41 L 22.74,147.11 L 22.61,148.65 L 22.05,153.00 L 21.25,157.50 L 21.22,151.50 L 21.22,149.85 L 21.44,146.53 L 21.51,145.76 L 21.69,144.44 L 22.00,143.00 L 22.17,142.46 L 22.42,141.85 L 22.52,141.62 M 40.50,125.53 L 40.68,125.63 L 41.12,126.06 L 42.52,128.22 L 42.92,129.03 L 43.41,130.07 L 43.61,130.50 L 43.68,130.79 L 43.66,130.85 L 43.30,130.46 L 42.25,129.17 L 40.37,126.84 L 38.63,135.89 L 38.39,137.14 L 37.77,139.94 L 37.44,141.37 L 36.70,144.28 L 36.33,145.71 L 35.58,148.38 L 34.52,151.72 L 34.26,152.45 L 33.83,153.66 L 33.63,154.22 L 33.29,155.12 L 33.13,155.53 L 32.87,156.13 L 32.75,156.39 L 32.56,156.71 L 32.38,156.96 L 32.20,156.67 L 32.12,156.41 L 32.07,155.20 L 32.05,154.29 L 32.42,152.08 L 33.37,149.20 L 33.56,148.83 L 33.96,147.76 L 34.16,147.18 L 34.54,145.82 L 35.44,141.50 L 35.67,139.88 L 36.38,136.37 L 36.76,134.62 L 37.64,131.33 L 37.87,130.56 L 38.31,129.16 L 38.53,128.49 L 38.95,127.38 L 39.16,126.86 L 39.54,126.11 L 40.02,125.49 L 40.15,125.41 M 55.57,127.41 L 55.85,128.22 L 56.39,129.80 L 56.61,130.49 L 57.04,131.81 L 57.22,132.37 L 57.53,133.43 L 57.65,133.86 L 57.85,134.65 L 57.91,134.95 L 58.00,135.47 L 58.00,135.62 L 58.58,136.26 L 59.62,136.59 L 60.53,136.71 L 61.51,136.83 L 62.11,136.88 L 63.39,136.98 L 64.14,137.02 L 65.74,137.10 L 66.66,137.13 L 68.25,137.18 L 58.32,136.94 L 56.72,146.72 L 55.11,156.50 L 55.63,149.00 L 55.76,147.17 L 55.95,143.87 L 56.03,142.27 L 56.13,139.40 L 56.17,138.01 L 56.17,135.53 L 56.16,134.34 L 56.07,132.22 L 56.01,131.20 L 55.83,129.41 L 55.72,128.54 L 55.44,127.05 M 24.63,107.94 L 24.68,108.09 L 24.74,109.03 L 24.77,111.50 L 24.77,112.19 L 24.72,113.91 L 24.68,114.82 L 24.56,116.79 L 24.04,122.50 L 23.29,128.50 L 23.27,120.50 L 23.26,118.30 L 23.47,113.97 L 23.54,112.97 L 23.71,111.30 L 24.00,109.50 L 24.16,108.86 L 24.39,108.13 L 24.50,107.87 M 183.22,126.86 L 183.48,127.71 L 183.53,127.94 L 183.48,127.71 L 183.22,126.86 L 183.18,126.75 M 177.96,115.50 L 180.98,121.39 L 181.96,123.30 L 182.36,124.44 L 182.27,124.21 L 181.45,122.35 L 180.95,121.39 L 177.90,115.50 L 177.94,99.54 M 50.97,110.32 L 51.30,112.95 L 51.66,115.49 L 51.88,116.56 L 52.33,118.54 L 52.59,119.24 L 53.86,122.69 L 53.53,122.04 L 52.57,119.68 L 52.14,118.48 L 51.56,115.84 L 51.43,115.14 L 51.23,113.56 L 51.13,112.74 L 50.98,110.87 L 50.91,109.89 L 50.80,107.64 L 50.77,106.90 M 51.12,94.58 L 51.04,94.86 L 50.77,96.20 L 50.69,97.16 L 50.58,99.19 L 50.58,99.13 L 50.58,97.87 L 50.69,96.12 L 50.77,95.36 L 51.03,94.49 L 51.26,94.30 M 52.69,94.29 L 53.50,95.00 L 52.69,94.29 L 51.97,94.00 L 51.97,94.00 M 170.73,33.43 L 171.99,33.69 L 174.38,34.60 L 175.54,35.11 L 177.59,36.45 L 180.12,38.88 L 180.74,39.65 L 181.46,41.68 L 181.73,42.75 L 181.80,45.15 L 181.75,46.36 L 181.17,48.82 L 179.58,52.24 L 179.39,52.53 L 179.07,53.21 L 178.92,53.59 L 178.68,54.57 L 178.56,55.11 L 178.38,56.57 L 178.29,57.37 L 178.17,59.46 L 178.11,60.61 L 178.03,63.52 L 177.99,65.09 L 177.95,68.98 L 177.94,70.02 L 177.93,72.32 L 177.92,73.51 L 177.92,75.61 L 177.87,72.23 L 177.84,70.67 L 177.78,67.65 L 177.74,66.30 L 177.66,63.74 L 177.61,62.65 L 177.51,60.62 L 177.46,59.82 L 177.34,58.39 L 177.28,57.93 L 177.16,57.17 L 177.09,57.07 L 176.33,56.49 L 175.59,56.29 L 175.14,56.28 L 173.14,56.46 L 172.02,56.82 L 169.75,57.71 L 168.76,58.34 L 167.80,59.00 L 167.40,59.37 L 166.66,60.12 L 166.40,60.52 L 165.44,61.84 L 164.91,62.33 L 164.61,62.39 L 163.98,62.39 L 163.54,62.22 L 162.56,61.79 L 161.85,61.42 L 160.42,60.57 L 159.79,60.04 L 159.62,59.76 L 159.37,59.19 L 159.37,58.85 L 159.43,58.14 L 159.57,57.70 L 160.56,55.41 L 161.46,54.14 L 162.04,53.62 L 163.31,52.63 L 164.11,52.23 L 165.81,51.47 L 166.85,51.16 L 170.37,49.75 L 172.02,48.66 L 172.51,48.01 L 173.27,46.64 L 173.33,45.84 L 173.25,44.15 L 172.91,43.16 L 172.21,41.64 L 171.65,40.80 L 171.33,40.47 L 169.97,39.39 L 169.20,39.22 L 167.62,39.14 L 166.82,39.49 L 166.03,39.91 L 165.65,40.22 L 164.89,40.90 L 164.54,41.35 L 163.26,42.85 L 162.60,43.39 L 162.25,43.45 L 161.51,43.42 L 160.99,43.22 L 159.83,42.69 L 158.96,42.25 L 157.60,41.71 L 156.40,41.42 L 155.53,41.30 L 154.60,41.19 L 154.05,41.15 L 152.87,41.06 L 152.17,41.02 L 151.68,40.99 L 153.87,40.98 L 156.02,38.24 L 156.77,37.29 L 158.27,35.82 L 159.03,35.16 L 160.67,34.22 L 161.52,33.81 L 163.45,33.33 L 166.85,33.04 L 168.15,33.02 M 160.20,64.19 L 161.62,64.74 L 162.32,65.25 L 163.16,66.01 L 163.47,66.53 L 163.51,66.85 L 163.49,67.54 L 163.37,68.01 L 163.06,69.05 L 162.79,69.75 L 162.19,71.28 L 161.89,71.76 L 161.28,72.54 L 160.87,72.68 L 159.97,72.80 L 159.30,72.66 L 157.81,72.23 L 156.75,71.84 L 154.97,71.05 L 154.29,70.50 L 154.18,70.13 L 154.11,69.32 L 154.28,68.75 L 154.75,67.45 L 155.16,66.55 L 156.42,64.87 L 157.53,64.19 L 158.17,64.08 L 159.49,64.00 M 158.73,65.00 L 158.22,65.48 L 157.98,65.78 L 157.61,66.63 L 157.46,67.07 L 157.34,67.98 L 157.56,69.09 L 157.71,69.34 L 158.21,69.73 L 159.00,70.00 L 159.24,70.00 L 159.79,69.73 L 160.05,69.57 L 160.44,69.09 L 160.62,68.81 L 160.66,67.98 L 160.64,67.55 L 160.39,66.63 L 160.23,66.19 L 159.78,65.48 L 159.00,65.00 M 166.68,34.44 L 165.87,34.49 L 164.33,34.75 L 163.59,34.90 L 162.26,35.34 L 161.64,35.57 L 160.62,36.14 L 160.16,36.43 L 159.57,37.10 L 159.33,37.44 L 159.26,38.16 L 159.86,39.26 L 160.05,39.45 L 160.58,39.68 L 160.87,39.77 L 161.62,39.78 L 162.03,39.76 L 163.07,39.56 L 164.98,39.01 L 166.22,38.60 L 168.39,38.34 L 169.43,38.31 L 171.20,38.82 L 172.04,39.16 L 173.42,40.43 L 175.08,43.20 L 175.45,44.10 L 175.71,45.46 L 175.72,45.78 L 175.57,46.38 L 175.46,46.68 L 175.02,47.28 L 174.77,47.59 L 174.01,48.24 L 173.59,48.57 L 172.47,49.32 L 171.85,49.72 L 170.32,50.63 L 167.50,52.23 L 166.47,52.80 L 164.81,53.85 L 164.04,54.36 L 162.88,55.30 L 162.36,55.76 L 161.68,56.60 L 161.18,57.79 L 161.09,58.43 L 161.13,59.26 L 161.20,59.60 L 161.65,59.85 L 161.94,59.90 L 162.89,59.58 L 163.44,59.36 L 165.00,58.50 L 165.69,58.11 L 167.28,57.48 L 169.26,57.04 L 169.71,57.03 L 170.76,56.65 L 171.30,56.40 L 172.46,55.63 L 173.64,54.78 L 175.98,52.31 L 177.10,51.01 L 178.83,48.22 L 179.19,47.54 L 179.69,46.25 L 180.00,44.54 L 180.00,43.67 L 179.24,41.72 L 178.76,40.74 L 177.27,38.83 L 176.47,37.91 L 174.55,36.38 L 171.54,34.90 L 170.76,34.68 L 169.13,34.47 L 168.31,34.40 M 29.62,51.09 L 29.25,51.35 L 28.51,51.76 L 28.51,51.76 L 29.25,51.35 L 29.62,51.09 L 29.70,51.01 Z" fill="rgba(74,145,206,1)"/>
<path d="M 61.26,87.61 L 63.74,87.86 L 65.20,87.78 L 66.87,87.71 L 67.78,87.68 L 68.15,87.69 L 69.40,87.76 L 69.77,87.91 L 70.35,88.28 L 70.50,88.62 L 70.71,89.41 L 70.78,90.00 L 70.73,91.32 L 70.48,92.11 L 70.22,92.49 L 69.61,93.25 L 69.15,93.65 L 68.12,94.48 L 67.43,94.95 L 64.17,96.57 L 61.91,97.17 L 60.79,97.23 L 58.56,97.18 L 57.50,96.91 L 55.43,96.20 L 54.52,95.60 L 55.25,95.76 L 56.13,95.92 L 58.46,95.95 L 59.65,95.92 L 62.07,95.59 L 65.00,94.71 L 65.83,94.29 L 66.87,93.14 L 67.50,90.97 L 67.50,90.43 L 67.37,89.66 L 67.27,89.32 L 66.82,88.87 L 66.54,88.68 L 65.63,88.43 L 63.57,88.18 L 62.47,88.09 L 60.42,87.52 L 60.09,87.41 M 52.69,94.29 L 53.50,95.00 L 53.52,95.03 L 52.53,94.47 L 51.55,94.05 L 51.62,94.00 L 51.97,94.00 M 60.06,87.40 L 59.41,87.17 L 59.02,86.94 M 33.02,69.95 L 33.03,70.72 L 33.77,73.24 L 34.83,74.78 L 35.50,75.35 L 36.89,76.34 L 37.56,76.50 L 38.21,76.59 L 38.51,76.53 L 39.06,76.34 L 39.29,76.11 L 40.53,75.35 L 41.56,75.09 L 42.15,75.07 L 43.37,75.11 L 44.02,75.23 L 45.35,75.54 L 46.03,75.79 L 46.61,76.05 L 44.68,75.42 L 41.82,75.17 L 41.31,75.24 L 40.59,75.53 L 40.26,75.71 L 39.81,76.39 L 39.61,76.80 L 39.34,78.10 L 39.00,81.00 L 38.93,81.80 L 38.73,83.13 L 38.63,83.75 L 38.39,84.70 L 38.26,85.12 L 37.99,85.69 L 37.85,85.93 L 37.55,86.11 L 37.40,86.15 L 37.11,85.94 L 36.96,85.79 L 36.67,85.18 L 36.53,84.83 L 36.26,83.83 L 35.91,81.88 L 35.73,80.55 L 34.88,78.30 L 34.64,77.78 L 34.05,76.90 L 33.05,75.84 L 32.43,75.33 L 31.77,74.54 L 31.67,74.37 L 31.64,74.15 L 31.89,74.00 L 32.06,74.00 L 32.34,73.76 L 32.47,73.60 L 32.67,73.10 L 32.86,72.56 L 32.98,71.07 L 32.99,70.32 L 32.86,69.43 M 52.54,80.48 L 52.88,81.04 L 52.88,81.04 L 52.54,80.48 M 48.73,77.01 L 49.93,77.91 L 51.09,78.85 L 51.60,79.38 L 51.94,79.78 L 50.77,78.64 L 49.90,77.90 L 47.85,76.67 L 47.09,76.27 M 11.97,66.69 L 11.98,67.02 L 11.66,67.73 L 10.89,68.57 L 10.71,68.68 L 10.45,69.18 L 10.34,69.48 L 10.23,70.33 L 10.19,70.80 L 10.22,71.99 L 10.42,74.13 L 10.51,74.81 L 10.65,75.95 L 10.70,76.49 L 10.77,77.33 L 10.79,77.71 L 10.79,78.25 L 10.78,78.49 L 10.70,78.74 L 10.65,78.83 L 10.49,78.79 L 10.41,78.74 L 10.17,78.43 L 10.05,78.23 L 9.73,77.64 L 9.56,77.31 L 9.16,76.45 L 8.84,75.75 L 8.34,74.11 L 8.00,72.06 L 8.00,71.56 L 8.61,70.10 L 8.98,69.35 L 9.96,67.90 L 10.46,67.23 L 11.32,66.43 L 11.51,66.30 L 11.78,66.28 M 21.14,60.02 L 21.94,60.58 L 22.60,60.85 L 24.08,61.35 L 25.00,61.50 L 26.95,61.94 L 27.93,62.30 L 28.28,62.53 L 28.91,63.03 L 29.12,63.36 L 29.48,64.07 L 29.59,64.52 L 30.42,66.33 L 31.20,67.25 L 31.59,67.40 L 31.63,67.44 L 31.37,67.43 L 31.07,67.45 L 30.25,67.62 L 27.29,68.67 L 26.57,68.99 L 25.38,69.53 L 24.83,69.78 L 23.96,70.16 L 23.57,70.32 L 23.02,70.54 L 22.79,70.63 L 22.54,70.69 L 22.45,70.70 L 22.50,70.60 L 22.55,70.53 L 22.87,70.28 L 23.06,70.13 L 23.64,69.73 L 24.80,68.95 L 25.32,68.59 L 26.16,67.91 L 26.55,67.57 L 27.11,66.92 L 27.35,66.60 L 27.63,66.00 L 27.74,65.71 L 27.74,65.17 L 27.71,64.91 L 27.43,64.45 L 27.26,64.23 L 26.72,63.87 L 26.41,63.69 L 25.59,63.43 L 24.06,63.17 L 23.43,63.11 L 22.54,62.97 L 22.15,62.90 L 21.73,62.71 L 21.57,62.62 L 21.58,62.38 L 22.07,61.94 L 22.56,61.62 L 22.86,61.24 L 22.25,61.02 L 21.91,61.01 L 21.37,60.71 L 21.00,60.00 L 21.00,59.89 M 51.88,116.56 L 51.66,115.49 L 51.30,112.95 L 50.97,110.32 L 50.63,104.53 L 50.57,103.13 L 50.57,101.49 L 50.62,103.45 L 50.70,104.88 L 51.12,110.76 L 51.44,113.34 L 51.78,115.82 L 51.98,116.82 L 52.38,118.66 L 52.59,119.24 L 52.33,118.54 Z" fill="rgba(87,86,185,1)"/>
<path d="M 38.23,76.59 L 38.21,76.59 L 38.12,76.58 M 34.95,74.88 L 35.62,75.36 L 36.87,76.17 L 37.56,76.50 L 37.62,76.51 L 37.56,76.50 L 36.89,76.34 L 35.50,75.35 L 34.83,74.78 L 34.82,74.76 M 39.06,76.34 L 38.98,76.37 L 39.08,76.32 M 28.61,62.65 L 29.38,63.65 L 29.56,64.37 L 30.69,66.43 L 31.91,67.68 L 32.58,68.04 L 34.08,69.20 L 34.76,70.09 L 34.91,70.50 L 35.08,71.29 L 34.93,71.56 L 34.48,72.00 L 34.00,72.00 L 33.46,72.16 L 33.03,70.72 L 33.02,69.95 L 32.60,68.60 L 31.59,67.40 L 31.20,67.25 L 30.42,66.33 L 29.59,64.52 L 29.48,64.07 L 29.12,63.36 L 28.91,63.03 L 28.28,62.53 L 28.18,62.46 M 24.59,56.52 L 24.52,57.14 L 24.45,58.37 L 24.51,58.94 L 24.71,60.04 L 24.92,60.50 L 25.41,61.33 L 25.77,61.59 L 26.06,61.74 L 25.00,61.50 L 24.08,61.35 L 22.60,60.85 L 21.94,60.58 L 21.14,60.02 L 20.85,59.74 L 20.93,59.30 L 21.02,59.21 L 21.40,59.08 L 22.30,59.00 L 22.48,59.00 L 22.90,58.73 L 23.12,58.55 L 23.58,57.99 L 24.84,55.56 L 24.93,55.32 M 25.18,54.64 L 25.24,54.47 L 25.39,54.25 M 26.44,52.79 L 26.59,52.62 L 26.73,52.52 M 29.29,51.33 L 28.58,51.76 L 28.27,51.80 L 26.91,52.39 L 27.20,52.18 L 28.18,51.81 L 28.51,51.76 L 29.25,51.35 L 29.48,51.19 M 29.65,51.06 L 29.64,51.07 L 29.82,50.89 Z" fill="rgba(159,110,117,1)"/>
<path d="M 184.00,133.57 L 183.30,137.40 L 182.84,139.27 L 181.32,142.65 L 180.47,144.28 L 178.25,147.13 L 177.06,148.48 L 174.26,150.71 L 172.80,151.74 L 169.55,153.26 L 167.88,153.93 L 165.80,154.35 L 166.00,153.91 L 166.00,153.50 L 165.71,152.44 L 165.28,152.00 L 165.00,152.00 L 164.29,152.44 L 164.00,153.09 L 164.00,153.50 L 164.11,154.29 L 164.29,154.56 L 164.37,154.64 L 164.29,154.66 L 162.47,154.91 L 158.67,154.76 L 152.88,153.45 L 148.50,151.90 L 144.76,155.90 L 143.94,156.77 L 142.83,158.08 L 142.36,158.69 L 141.84,159.65 L 141.64,160.11 L 141.60,160.98 L 141.98,162.44 L 142.38,163.49 L 142.63,165.09 L 142.66,165.81 L 142.14,166.81 L 141.93,167.06 L 142.20,166.62 L 142.60,165.56 L 142.55,164.83 L 142.28,163.24 L 141.90,162.24 L 140.86,159.50 L 137.96,163.00 L 135.90,165.69 L 135.42,166.42 L 135.27,166.68 L 135.03,167.15 L 135.03,167.25 L 135.12,167.45 L 135.28,167.54 L 135.70,167.71 L 136.00,167.78 L 136.27,167.82 L 135.07,167.87 L 134.39,167.94 L 133.19,168.32 L 132.59,168.57 L 131.34,169.41 L 129.07,171.32 L 128.51,171.82 L 127.59,172.64 L 127.15,173.03 L 126.41,173.63 L 125.72,174.18 L 124.71,174.69 L 124.23,174.86 L 123.34,174.70 L 122.87,174.56 L 121.69,173.89 L 121.20,173.60 L 120.15,172.44 L 118.98,170.44 L 118.06,168.03 L 116.22,168.02 L 117.61,167.95 L 118.21,167.90 L 119.30,167.79 L 119.64,167.72 L 120.18,167.58 L 120.23,167.50 L 120.52,167.32 L 120.69,167.41 L 120.76,167.55 L 120.98,168.37 L 120.98,169.08 L 121.19,171.10 L 121.48,172.15 L 121.67,172.33 L 122.28,172.68 L 122.82,172.80 L 124.02,173.00 L 124.67,173.00 L 125.72,172.89 L 126.26,172.70 L 126.45,172.54 L 126.77,172.19 L 126.87,171.95 L 127.00,171.42 L 127.00,171.08 L 127.71,169.19 L 128.74,167.84 L 129.40,167.33 L 130.78,166.09 L 132.03,164.83 L 132.76,164.06 L 135.91,160.61 L 137.47,158.75 L 140.33,155.49 L 141.86,153.93 L 142.50,153.41 L 143.71,152.54 L 144.25,152.31 L 145.29,151.99 L 145.81,151.98 L 148.10,151.73 L 149.35,151.36 L 149.79,151.09 L 150.54,150.51 L 150.68,150.18 L 150.80,149.48 L 150.57,149.11 L 150.29,148.25 L 150.53,148.01 L 150.84,148.06 L 151.57,148.26 L 152.08,148.52 L 153.19,149.15 L 153.86,149.61 L 155.24,150.34 L 156.31,150.68 L 156.96,150.77 L 158.32,150.91 L 159.15,150.92 L 160.92,150.88 L 161.99,150.81 L 167.52,149.79 L 170.73,148.53 L 172.10,147.62 L 174.68,145.61 L 175.72,144.32 L 177.63,141.56 L 178.32,139.91 L 180.31,136.28 L 181.01,135.36 L 181.33,135.05 L 181.95,134.52 L 182.20,134.44 L 183.06,133.92 L 183.50,133.40 L 183.66,133.08 L 184.00,132.05 M 141.78,167.24 L 141.32,167.40 L 141.90,167.10 M 132.91,153.72 L 132.62,153.79 L 132.90,153.71 L 133.40,153.47 M 133.58,153.38 L 133.49,153.42 L 133.99,153.02 M 138.00,131.56 L 138.25,127.98 L 138.42,127.05 L 138.53,126.67 L 138.74,125.99 L 138.86,125.76 L 139.10,125.38 L 139.22,125.31 L 139.47,125.26 L 139.59,125.37 L 139.82,125.68 L 139.93,125.99 L 140.13,126.71 L 140.21,127.24 L 140.44,128.21 L 140.63,128.42 L 140.75,128.30 L 141.03,127.88 L 141.22,127.42 L 141.64,126.32 L 141.92,125.50 L 143.42,121.91 L 144.00,120.73 L 144.29,120.22 L 144.86,119.25 L 145.11,118.89 L 146.26,116.90 L 146.46,116.37 L 146.49,116.18 L 146.51,115.85 L 146.45,115.78 L 146.62,115.02 L 147.24,114.28 L 147.73,113.89 L 148.64,113.19 L 148.97,112.98 L 149.00,113.00 L 148.97,113.14 L 148.82,113.34 L 148.44,113.85 L 148.13,114.25 L 147.45,115.49 L 147.48,116.00 L 147.76,116.00 L 148.88,115.59 L 149.60,114.99 L 149.87,114.62 L 150.35,113.85 L 150.43,113.49 L 150.48,112.81 L 150.27,112.61 L 150.32,112.32 L 150.93,112.42 L 151.44,112.62 L 152.63,112.87 L 152.92,112.67 L 152.75,112.40 L 152.80,112.05 L 153.12,111.88 L 153.41,111.83 L 154.06,111.75 L 154.49,111.75 L 155.42,111.77 L 155.97,111.83 L 158.85,111.76 L 159.61,111.60 L 159.88,111.49 L 160.35,111.24 L 160.44,111.09 L 161.12,110.51 L 161.80,110.23 L 162.23,110.15 L 164.18,109.98 L 165.36,110.11 L 167.83,110.50 L 169.09,110.89 L 171.58,111.78 L 172.66,112.40 L 176.82,114.78 L 177.40,112.64 L 177.56,111.45 L 177.66,110.16 L 177.70,109.30 L 177.77,107.44 L 177.80,106.33 L 177.86,104.00 L 177.88,102.68 L 177.92,99.97 L 177.94,98.50 L 177.94,98.10 L 177.90,115.50 L 180.95,121.39 L 181.45,122.35 L 182.27,124.21 L 182.65,125.12 L 183.22,126.86 L 183.48,127.71 L 183.79,129.24 L 183.57,128.89 L 183.18,128.40 L 182.93,128.24 L 182.38,128.00 L 182.05,128.00 L 181.12,127.78 L 180.50,127.41 L 180.19,127.13 L 179.00,125.76 L 178.51,124.75 L 176.94,121.80 L 175.93,120.29 L 175.36,119.67 L 174.16,118.50 L 173.41,117.95 L 171.77,116.84 L 170.69,116.22 L 166.11,114.43 L 162.73,113.89 L 160.97,113.94 L 157.40,114.25 L 155.64,114.72 L 152.14,115.88 L 150.51,116.77 L 148.58,117.91 L 147.47,118.66 L 147.03,118.99 L 146.25,119.64 L 146.01,119.90 L 145.66,120.36 L 145.69,120.50 L 145.34,121.72 L 144.71,122.77 L 144.27,123.25 L 143.38,124.49 L 143.25,125.00 L 143.47,125.00 L 143.74,125.37 L 143.56,125.91 L 143.30,126.25 L 142.79,127.23 L 142.53,128.08 L 142.43,128.57 L 142.15,130.73 L 142.15,131.93 L 142.25,134.35 L 142.45,135.46 L 142.93,137.57 L 143.32,138.32 L 144.05,139.95 L 144.21,140.81 L 144.09,141.23 L 143.71,142.11 L 143.28,142.68 L 142.27,143.92 L 141.50,144.80 L 138.47,148.27 L 138.21,148.57 L 141.03,145.12 L 139.41,141.06 L 139.02,140.09 L 138.40,138.79 L 138.09,138.22 L 137.39,137.57 L 137.00,137.31 L 135.87,137.09 L 133.36,137.00 L 138.00,137.00 M 128.91,137.81 L 128.39,138.44 L 128.33,138.59 L 128.29,139.26 L 128.29,139.64 L 128.35,140.68 L 128.43,141.78 L 128.82,144.66 L 128.82,144.69 L 128.44,142.67 L 128.31,141.16 L 128.21,139.74 L 128.24,139.20 L 128.34,138.26 L 128.48,138.04 L 129.08,137.64 L 129.45,137.51 M 129.71,137.42 L 129.77,137.40 L 129.81,137.39 M 140.00,133.00 L 139.29,133.29 L 139.00,133.72 L 139.00,134.00 L 139.11,134.53 L 139.29,134.71 L 139.72,135.00 L 140.00,135.00 L 140.71,134.71 L 141.00,134.28 L 141.00,134.00 L 140.71,133.29 L 140.28,133.00 M 175.59,56.29 L 176.33,56.49 L 177.09,57.07 L 177.16,57.17 L 177.28,57.93 L 177.34,58.39 L 177.46,59.82 L 177.51,60.62 L 177.61,62.65 L 177.66,63.74 L 177.74,66.30 L 177.78,67.65 L 177.84,70.67 L 177.87,72.23 L 177.92,75.65 L 177.94,77.40 L 177.96,81.13 L 177.96,85.79 L 177.95,84.11 L 177.90,77.50 L 177.85,74.40 L 177.80,71.35 L 177.77,69.93 L 177.70,67.16 L 177.66,65.91 L 177.58,63.50 L 177.54,62.47 L 177.45,60.52 L 177.40,59.76 L 177.29,58.36 L 177.24,57.91 L 177.12,57.16 L 177.06,57.07 L 176.31,56.49 L 175.59,56.29 M 169.75,57.71 L 168.76,58.34 L 167.80,59.01 L 167.40,59.37 L 166.66,60.12 L 166.66,60.12 L 167.40,59.37 L 167.80,59.00 L 168.76,58.34 L 169.75,57.71 L 171.94,56.85 M 172.02,56.82 L 172.02,56.82 L 172.06,56.81 M 132.34,137.00 L 132.63,137.00 L 132.03,137.04 Z" fill="rgba(221,125,70,1)"/>
<path d="M 27.33,167.30 L 29.28,167.82 L 29.55,167.85 L 30.36,168.13 L 30.80,168.31 L 31.87,168.82 L 32.97,169.38 L 35.45,170.89 L 36.66,171.66 L 38.63,173.13 L 39.05,173.47 L 39.63,174.04 L 40.00,174.66 L 40.00,174.78 L 39.79,175.01 L 39.65,175.12 L 39.19,175.31 L 38.67,175.50 L 37.04,175.77 L 36.16,175.89 L 34.00,176.04 L 32.88,176.10 L 30.48,176.12 L 29.28,176.12 L 26.93,176.01 L 25.79,175.95 L 23.78,175.72 L 22.84,175.59 L 21.46,175.24 L 20.87,175.05 L 20.39,174.58 L 20.24,174.20 L 20.11,172.75 L 20.18,170.33 L 20.24,169.77 L 20.46,168.92 L 20.59,168.54 L 21.00,168.00 L 21.24,167.76 L 21.92,167.46 L 23.33,167.18 L 24.11,167.09 L 25.68,167.08 M 51.03,165.51 L 51.91,165.69 L 52.32,165.79 L 52.91,166.08 L 53.41,166.62 L 53.48,166.80 L 54.00,167.32 L 54.31,167.61 L 55.24,168.29 L 58.95,170.48 L 59.97,170.99 L 61.56,171.90 L 62.28,172.33 L 63.27,173.08 L 63.69,173.43 L 64.07,174.04 L 64.19,174.32 L 63.95,174.78 L 63.76,175.00 L 62.89,175.34 L 62.38,175.49 L 60.88,175.72 L 60.05,175.81 L 57.90,175.93 L 53.95,176.00 L 43.90,176.00 L 44.39,167.44 L 44.54,167.73 L 45.12,168.10 L 45.95,168.55 L 46.40,168.69 L 47.34,168.91 L 47.87,168.93 L 48.97,168.92 L 49.60,168.83 L 50.92,168.59 L 51.68,168.39 L 52.73,168.00 L 53.20,167.70 L 53.32,167.54 L 53.50,167.21 L 53.49,167.04 L 53.40,166.71 L 53.26,166.55 L 52.46,165.93 L 51.74,165.70 L 50.87,165.49 M 45.00,165.79 L 44.63,166.06 L 44.46,166.25 L 44.50,165.50 L 46.19,165.46 Z" fill="rgba(222,183,53,1)"/>
<path d="M 72.56,162.22 L 72.61,162.66 L 72.43,163.09 L 71.92,164.04 L 71.52,164.57 L 70.75,165.53 L 70.41,165.87 L 70.31,165.88 L 70.14,165.82 L 70.10,165.64 L 70.04,165.18 L 70.03,164.81 L 70.30,163.59 L 70.70,162.85 L 70.97,162.58 L 71.53,162.12 L 71.81,162.04 L 72.35,162.01 M 125.67,147.62 L 125.75,147.89 L 125.90,148.52 L 125.94,149.01 L 126.00,150.09 L 126.00,150.80 L 125.96,153.00 L 125.89,153.77 L 125.82,154.46 L 125.77,154.67 L 125.68,155.00 L 125.62,155.00 L 125.28,154.72 L 125.08,154.28 L 124.99,153.97 L 124.68,152.51 L 124.61,151.64 L 124.52,149.88 L 124.57,149.14 L 124.65,148.45 L 124.72,148.19 L 124.88,147.72 L 124.99,147.61 L 125.43,147.42 M 124.39,140.24 L 124.62,140.61 L 124.71,140.88 L 125.00,142.17 L 125.00,143.00 L 124.99,144.38 L 124.95,144.83 L 124.85,145.59 L 124.76,145.76 L 124.53,145.96 L 124.35,145.88 L 123.95,145.62 L 123.67,145.33 L 123.12,144.06 L 122.99,142.88 L 123.02,142.27 L 123.17,141.10 L 123.33,140.69 L 123.72,140.00 L 124.00,140.00 M 57.50,96.91 L 58.56,97.18 L 60.79,97.23 L 61.91,97.17 L 62.12,97.12 L 61.91,97.18 L 60.79,97.23 L 58.56,97.18 L 57.50,96.91 L 55.43,96.20 L 55.43,96.20 M 68.38,94.27 L 68.33,94.31 L 68.41,94.25 M 74.06,80.78 L 75.12,80.86 L 75.57,80.98 L 76.40,81.28 L 76.71,81.49 L 77.27,81.97 L 77.43,82.26 L 77.66,82.89 L 77.65,83.25 L 77.52,84.00 L 77.30,84.40 L 76.76,85.24 L 76.32,85.68 L 74.44,87.26 L 73.13,88.12 L 72.67,88.30 L 71.49,89.27 L 71.00,90.23 L 70.99,90.72 L 70.71,91.60 L 70.57,91.82 L 70.73,91.32 L 70.78,90.00 L 70.71,89.41 L 70.50,88.62 L 70.35,88.28 L 69.77,87.91 L 69.40,87.76 L 68.15,87.69 L 67.78,87.68 L 66.87,87.71 L 65.20,87.78 L 63.74,87.86 L 61.33,87.62 L 63.29,87.73 L 64.54,87.55 L 66.88,87.11 L 67.92,86.79 L 68.23,86.57 L 68.74,86.08 L 68.85,85.73 L 69.00,84.95 L 69.00,84.41 L 69.37,82.53 L 69.91,81.61 L 70.25,81.48 L 72.27,80.93 L 73.51,80.76 M 55.28,84.30 L 52.90,81.08 L 52.83,80.97 M 24.59,58.72 L 25.45,59.00 L 26.00,59.00 L 27.41,59.42 L 28.00,60.03 L 28.00,60.43 L 28.53,61.64 L 29.32,62.14 L 29.85,62.22 L 30.96,62.25 L 31.55,62.08 L 32.72,61.62 L 33.23,61.19 L 35.12,60.06 L 36.60,59.48 L 37.23,59.39 L 39.38,59.07 L 39.57,59.04 L 39.47,59.07 L 37.36,59.47 L 36.66,59.54 L 35.11,60.13 L 33.25,61.32 L 32.92,61.65 L 32.51,62.18 L 32.34,62.43 L 32.22,62.89 L 32.20,63.12 L 32.37,63.60 L 32.96,64.45 L 33.37,64.95 L 34.38,65.57 L 34.91,65.81 L 36.06,65.94 L 36.64,65.93 L 37.80,65.56 L 38.37,65.31 L 39.43,64.43 L 39.90,63.96 L 41.11,63.46 L 43.00,63.50 L 43.38,63.62 L 43.96,63.71 L 44.22,63.73 L 44.57,63.59 L 44.73,63.49 L 44.80,63.32 L 44.79,64.28 L 44.59,65.35 L 44.17,67.26 L 43.88,68.05 L 43.69,68.23 L 43.29,68.47 L 43.01,68.41 L 42.39,68.21 L 41.95,67.97 L 40.59,67.62 L 40.04,67.86 L 39.96,68.17 L 39.93,68.87 L 40.14,69.32 L 40.69,70.29 L 41.20,70.80 L 41.80,71.65 L 41.79,72.00 L 41.56,72.00 L 40.64,71.56 L 39.92,70.93 L 39.61,70.52 L 38.43,69.64 L 37.57,69.63 L 37.12,69.91 L 36.24,70.94 L 36.28,71.64 L 36.56,71.95 L 37.31,72.51 L 37.91,72.70 L 39.23,73.00 L 40.06,73.00 L 42.14,73.22 L 42.62,73.38 L 42.77,73.47 L 43.00,73.66 L 43.00,73.76 L 43.32,74.20 L 43.82,74.59 L 44.18,74.82 L 45.70,75.67 L 45.35,75.54 L 44.02,75.23 L 43.37,75.11 L 42.15,75.07 L 41.56,75.09 L 40.53,75.35 L 39.29,76.11 L 39.08,76.32 L 38.63,76.53 L 38.40,76.61 L 37.85,76.56 L 37.56,76.50 L 36.87,76.17 L 35.62,75.36 L 34.95,74.88 L 34.00,74.02 L 33.59,73.61 L 33.17,72.96 L 33.02,72.66 L 33.15,72.25 L 34.00,72.00 L 34.48,72.00 L 34.93,71.56 L 35.08,71.29 L 34.91,70.50 L 34.76,70.09 L 34.08,69.20 L 32.58,68.04 L 31.91,67.68 L 30.69,66.43 L 29.56,64.37 L 29.38,63.65 L 28.61,62.65 L 27.09,62.00 L 26.57,62.00 L 25.77,61.59 L 25.41,61.33 L 24.92,60.50 L 24.71,60.04 L 24.51,58.94 L 24.47,58.58 M 25.88,53.52 L 25.46,54.14 L 25.40,54.23 L 25.71,53.67 L 26.03,53.17 L 26.83,52.42 L 28.27,51.80 L 26.84,52.56 Z" fill="rgba(209,159,174,1)"/>
<path d="M 50.09,165.31 L 51.74,165.70 L 52.46,165.93 L 53.26,166.55 L 53.40,166.71 L 53.49,167.04 L 53.50,167.21 L 53.32,167.54 L 53.20,167.70 L 52.73,168.00 L 51.68,168.39 L 50.92,168.59 L 49.60,168.83 L 48.97,168.92 L 47.87,168.93 L 47.34,168.91 L 46.40,168.69 L 45.95,168.55 L 45.12,168.10 L 44.54,167.73 L 44.16,167.01 L 44.09,166.66 L 44.63,166.06 L 45.00,165.79 L 46.32,165.43 L 49.00,165.27 M 144.06,139.99 L 144.09,140.18 L 144.06,139.98 M 143.38,138.44 L 143.75,139.28 L 143.32,138.32 L 142.93,137.57 M 152.21,115.90 L 149.10,118.02 L 147.18,119.81 L 146.41,120.74 L 145.04,122.61 L 144.67,123.44 L 144.35,124.24 L 144.30,124.59 L 144.26,125.24 L 144.36,125.50 L 144.30,126.81 L 143.84,127.72 L 143.44,128.05 L 142.41,129.82 L 142.15,131.08 L 142.15,130.73 L 142.43,128.57 L 142.53,128.08 L 142.79,127.23 L 143.30,126.25 L 143.56,125.91 L 143.74,125.37 L 143.47,125.00 L 143.25,125.00 L 143.38,124.49 L 144.27,123.25 L 144.71,122.77 L 145.34,121.72 L 145.69,120.50 L 145.66,120.36 L 146.01,119.90 L 146.25,119.64 L 147.03,118.99 L 147.47,118.66 L 148.58,117.91 L 150.51,116.77 L 152.14,115.88 L 152.44,115.78 M 161.53,109.08 L 164.71,109.40 L 166.34,109.85 L 169.61,110.96 L 170.39,111.36 L 169.09,110.89 L 167.83,110.50 L 165.36,110.11 L 164.18,109.98 L 162.23,110.15 L 161.80,110.23 L 161.12,110.51 L 160.44,111.09 L 160.35,111.24 L 159.88,111.49 L 159.61,111.60 L 158.85,111.76 L 155.97,111.83 L 155.42,111.77 L 154.49,111.75 L 154.06,111.75 L 153.41,111.83 L 153.12,111.88 L 152.80,112.05 L 152.75,112.40 L 152.92,112.67 L 152.63,112.87 L 151.44,112.62 L 150.93,112.42 L 150.32,112.32 L 150.27,112.61 L 150.48,112.81 L 150.43,113.49 L 150.35,113.85 L 149.87,114.62 L 149.60,114.99 L 148.88,115.59 L 147.76,116.00 L 147.48,116.00 L 147.45,115.49 L 148.13,114.25 L 148.44,113.85 L 148.82,113.34 L 148.97,113.14 L 149.00,113.00 L 148.97,112.98 L 148.64,113.19 L 147.73,113.89 L 147.24,114.28 L 146.62,115.02 L 146.45,115.78 L 146.51,115.85 L 146.49,116.18 L 146.46,116.37 L 146.26,116.90 L 145.11,118.89 L 144.86,119.25 L 144.29,120.22 L 144.00,120.73 L 143.42,121.91 L 141.92,125.50 L 141.64,126.32 L 141.22,127.42 L 141.03,127.88 L 140.75,128.30 L 140.63,128.42 L 140.44,128.21 L 140.21,127.24 L 140.13,126.71 L 139.93,125.99 L 139.82,125.68 L 139.59,125.37 L 139.47,125.26 L 139.22,125.31 L 139.10,125.38 L 138.94,125.64 L 138.97,125.54 L 139.68,123.48 L 140.14,122.50 L 141.14,120.57 L 141.75,119.66 L 143.03,117.88 L 143.76,117.06 L 145.30,115.47 L 146.17,114.74 L 147.95,113.35 L 148.93,112.73 L 150.95,111.56 L 152.04,111.07 L 156.79,109.49 L 159.94,109.02 M 177.40,112.64 L 176.82,114.78 L 173.85,113.08 L 174.09,113.20 L 174.48,113.38 L 175.81,113.93 L 176.20,113.98 L 176.83,113.93 L 177.00,113.69 L 177.28,113.07 L 177.40,112.64 M 157.28,114.28 L 157.40,114.25 L 157.47,114.25 M 61.06,87.60 L 59.98,87.44 L 58.84,86.93 L 59.99,87.44 L 61.07,87.60 L 63.29,87.73 L 64.54,87.55 L 63.29,87.73 M 57.10,86.05 L 57.10,86.05 L 57.00,85.95 M 177.12,57.16 L 177.24,57.91 L 177.29,58.36 L 177.40,59.76 L 177.45,60.52 L 177.54,62.47 L 177.58,63.50 L 177.66,65.91 L 177.70,67.16 L 177.77,69.93 L 177.80,71.35 L 177.85,74.40 L 177.90,77.50 L 177.95,83.32 L 177.90,77.47 L 177.85,74.38 L 177.79,71.34 L 177.76,69.91 L 177.70,67.14 L 177.66,65.89 L 177.58,63.49 L 177.53,62.46 L 177.44,60.51 L 177.39,59.75 L 177.29,58.36 L 177.24,57.90 L 177.12,57.16 M 50.52,78.47 L 50.78,78.70 L 50.48,78.45 M 43.79,74.44 L 44.62,74.93 L 46.36,75.92 L 47.31,76.36 L 49.84,78.03 L 47.02,76.27 L 45.91,75.79 L 44.18,74.82 L 43.82,74.59 L 43.32,74.20 L 43.17,74.00 M 41.84,72.00 L 41.63,72.00 L 41.29,72.11 L 41.28,72.30 L 41.36,72.43 L 41.93,73.08 L 42.11,73.22 L 40.06,73.00 L 39.23,73.00 L 37.91,72.70 L 37.31,72.51 L 36.56,71.95 L 36.28,71.64 L 36.24,70.94 L 37.12,69.91 L 37.57,69.63 L 38.43,69.64 L 39.61,70.52 L 39.92,70.93 L 40.64,71.56 L 41.56,72.00 L 41.79,72.00 L 41.80,71.65 L 41.20,70.80 L 41.82,71.65 M 163.25,114.01 L 161.58,113.98 L 159.80,114.04 L 160.97,113.94 L 162.73,113.89 L 166.11,114.43 L 170.69,116.22 L 166.47,114.58 Z" fill="rgba(229,157,117,1)"/>
<path d="M 144.88,142.03 L 145.92,144.00 L 146.57,144.79 L 147.30,145.47 L 147.77,145.86 L 149.90,147.47 L 150.84,148.06 L 150.53,148.01 L 150.29,148.25 L 150.57,149.11 L 150.80,149.48 L 150.68,150.18 L 150.54,150.51 L 149.79,151.09 L 149.35,151.36 L 148.10,151.73 L 145.81,151.98 L 145.29,151.99 L 144.25,152.31 L 143.71,152.54 L 142.50,153.41 L 141.86,153.93 L 140.33,155.49 L 137.47,158.75 L 135.91,160.61 L 132.76,164.06 L 132.03,164.83 L 130.78,166.09 L 129.40,167.33 L 128.74,167.84 L 127.71,169.19 L 127.00,171.08 L 127.00,171.42 L 126.87,171.95 L 126.77,172.19 L 126.45,172.54 L 126.26,172.70 L 125.72,172.89 L 124.67,173.00 L 124.02,173.00 L 122.82,172.80 L 122.28,172.68 L 121.67,172.33 L 121.48,172.15 L 121.19,171.10 L 120.98,169.08 L 120.98,168.37 L 120.76,167.55 L 120.69,167.41 L 120.52,167.32 L 120.23,167.50 L 120.18,167.58 L 120.15,167.59 L 120.51,166.92 L 121.32,165.88 L 121.91,165.21 L 123.20,163.79 L 123.98,162.98 L 125.61,161.32 L 126.50,160.46 L 129.20,157.75 L 130.54,156.27 L 130.98,155.70 L 131.70,154.67 L 131.82,154.33 L 131.89,153.79 L 131.68,153.71 L 131.08,152.94 L 130.64,151.94 L 130.41,151.25 L 129.97,149.78 L 129.75,148.94 L 129.63,148.43 L 129.77,148.99 L 130.00,149.83 L 130.47,151.30 L 130.71,151.98 L 131.18,152.99 L 131.84,153.77 L 132.06,153.85 L 132.62,153.79 L 132.91,153.72 L 133.58,153.38 L 135.77,151.42 L 136.11,151.02 L 136.98,149.99 L 137.44,149.46 L 138.47,148.27 L 141.50,144.80 L 142.26,143.93 L 143.26,142.70 L 143.68,142.13 L 144.07,141.25 L 144.20,140.83 L 144.08,140.12 M 165.71,152.44 L 166.00,153.50 L 166.00,153.91 L 165.71,154.56 L 165.00,155.00 L 164.72,155.00 L 164.29,154.56 L 164.11,154.29 L 164.00,153.50 L 164.00,153.09 L 164.29,152.44 L 165.00,152.00 L 165.28,152.00 M 155.17,150.08 L 156.04,150.30 L 159.52,150.91 L 159.15,150.92 L 158.32,150.91 L 156.96,150.77 L 156.31,150.68 L 155.24,150.34 L 153.86,149.61 L 153.78,149.56 M 175.72,144.32 L 174.68,145.61 L 172.10,147.62 L 170.73,148.53 L 169.49,149.02 L 169.54,148.99 L 171.20,148.15 L 171.97,147.64 L 175.61,144.41 L 176.26,143.53 M 178.51,124.75 L 179.00,125.76 L 180.19,127.13 L 180.50,127.41 L 181.12,127.78 L 182.05,128.00 L 182.38,128.00 L 182.93,128.24 L 183.18,128.40 L 183.57,128.89 L 183.91,129.43 L 184.11,130.90 L 184.13,131.66 L 183.66,133.08 L 183.50,133.40 L 183.06,133.92 L 182.20,134.44 L 181.95,134.52 L 181.33,135.05 L 181.01,135.36 L 180.31,136.28 L 178.44,139.69 L 179.27,137.58 L 179.56,136.07 L 179.97,133.00 L 179.90,131.46 L 179.58,128.38 L 179.15,126.90 L 178.14,124.05 M 142.13,133.88 L 142.40,135.29 L 142.61,136.06 L 143.09,137.64 L 143.39,138.46 L 143.38,138.44 L 142.93,137.57 L 142.38,135.56 L 142.15,134.55 L 142.11,133.77 M 140.71,133.29 L 141.00,134.00 L 141.00,134.28 L 140.71,134.71 L 140.00,135.00 L 139.72,135.00 L 139.29,134.71 L 139.11,134.53 L 139.00,134.00 L 139.00,133.72 L 139.29,133.29 L 140.00,133.00 L 140.28,133.00 M 173.41,117.95 L 174.16,118.50 L 175.36,119.67 L 175.93,120.29 L 176.94,121.80 L 178.01,123.80 L 177.34,122.66 L 175.60,120.09 L 174.47,118.99 L 172.60,117.40 M 153.49,115.24 L 152.21,115.90 L 153.52,115.23 L 156.04,114.57 M 163.25,114.01 L 166.47,114.58 L 169.78,115.86 L 166.22,114.57 L 163.00,114.03 L 161.35,114.01 L 158.06,114.13 L 156.53,114.44 L 156.62,114.42 L 158.21,114.10 L 161.58,113.98 M 28.00,60.03 L 28.00,60.43 L 28.53,61.64 L 28.00,60.43 L 28.00,60.03 L 27.41,59.42 L 26.00,59.00 L 27.41,59.42 Z" fill="rgba(240,116,49,1)"/>
<path d="M 54.14,123.25 L 56.04,127.00 L 138.11,127.00 L 139.56,123.82 L 138.97,125.54 L 138.65,126.59 L 138.25,128.76 L 138.00,132.13 L 138.00,137.00 L 132.34,137.00 L 130.23,137.31 L 129.77,137.40 L 129.08,137.64 L 128.48,138.04 L 128.35,138.25 L 128.26,139.16 L 128.24,139.69 L 128.34,141.10 L 128.48,142.61 L 129.14,146.28 L 129.33,147.19 L 129.75,148.94 L 129.97,149.78 L 130.41,151.25 L 130.64,151.94 L 131.08,152.94 L 131.68,153.71 L 131.89,153.79 L 131.82,154.33 L 131.70,154.67 L 130.98,155.70 L 130.54,156.27 L 129.20,157.75 L 126.50,160.46 L 125.61,161.32 L 123.98,162.98 L 123.20,163.79 L 121.91,165.21 L 121.32,165.88 L 120.51,166.92 L 120.00,167.86 L 120.00,168.17 L 119.78,168.60 L 119.25,168.78 L 119.20,168.76 L 118.58,168.72 L 118.19,168.70 L 116.95,168.65 L 116.25,168.62 L 114.46,168.56 L 113.50,168.53 L 111.23,168.46 L 110.04,168.43 L 107.36,168.36 L 105.98,168.32 L 102.96,168.25 L 99.87,168.17 L 93.00,168.03 L 67.50,167.50 L 67.17,165.19 L 67.05,164.34 L 67.26,162.99 L 67.44,162.36 L 68.32,161.39 L 68.86,160.95 L 70.51,160.30 L 73.96,159.60 L 74.62,159.51 L 75.72,159.35 L 76.23,159.26 L 77.06,159.05 L 77.83,158.82 L 78.80,157.96 L 79.00,157.68 L 79.34,156.96 L 79.49,156.56 L 79.76,155.53 L 79.89,154.97 L 80.13,153.58 L 80.54,151.00 L 80.73,149.76 L 81.26,147.53 L 81.40,147.03 L 81.67,146.24 L 82.04,145.49 L 82.15,145.35 L 82.29,144.82 L 82.35,144.53 L 82.40,143.75 L 82.13,140.99 L 81.42,137.50 L 69.71,137.22 L 68.60,137.19 L 66.66,137.13 L 65.74,137.10 L 64.14,137.02 L 63.39,136.98 L 62.11,136.88 L 61.51,136.83 L 60.53,136.71 L 59.62,136.59 L 58.58,136.26 L 58.00,135.62 L 58.00,135.47 L 57.91,134.95 L 57.85,134.65 L 57.65,133.86 L 57.53,133.43 L 57.22,132.37 L 57.04,131.81 L 56.61,130.49 L 56.39,129.80 L 55.85,128.22 L 55.57,127.41 L 54.92,125.59 L 53.86,122.69 M 141.90,162.24 L 142.28,163.24 L 142.55,164.83 L 142.60,165.56 L 142.20,166.62 L 141.91,167.09 L 140.82,167.66 L 138.39,168.00 L 137.46,168.00 L 136.00,167.78 L 135.70,167.71 L 135.28,167.54 L 135.12,167.45 L 135.03,167.25 L 135.03,167.15 L 135.27,166.68 L 135.42,166.42 L 135.90,165.69 L 137.96,163.00 L 140.86,159.50 M 71.81,162.04 L 71.53,162.12 L 70.97,162.58 L 70.70,162.85 L 70.30,163.59 L 70.03,164.81 L 70.04,165.18 L 70.10,165.64 L 70.14,165.82 L 70.31,165.88 L 70.41,165.87 L 70.75,165.53 L 71.52,164.57 L 71.92,164.04 L 72.43,163.09 L 72.61,162.66 L 72.56,162.22 L 72.35,162.01 M 124.99,147.61 L 124.88,147.72 L 124.72,148.19 L 124.65,148.45 L 124.57,149.14 L 124.52,149.88 L 124.61,151.64 L 124.68,152.51 L 124.99,153.97 L 125.08,154.28 L 125.28,154.72 L 125.62,155.00 L 125.68,155.00 L 125.77,154.67 L 125.82,154.46 L 125.89,153.77 L 125.96,153.00 L 126.00,150.80 L 126.00,150.09 L 125.94,149.01 L 125.90,148.52 L 125.75,147.89 L 125.67,147.62 L 125.43,147.42 M 159.64,150.93 L 159.63,150.93 L 160.38,150.91 M 153.41,149.41 L 155.11,150.05 L 156.00,150.28 L 158.67,150.76 L 156.04,150.30 L 155.17,150.08 L 153.48,149.45 L 152.66,149.10 L 152.61,149.07 M 144.43,125.80 L 144.70,126.02 L 145.34,126.41 L 145.83,126.54 L 146.91,126.78 L 147.63,126.84 L 149.18,126.93 L 150.15,126.93 L 152.20,126.90 L 153.41,126.85 L 156.58,126.77 L 158.35,126.78 L 159.00,126.82 L 160.15,126.91 L 160.44,126.98 L 160.81,127.13 L 160.66,127.23 L 159.94,127.52 L 159.26,127.69 L 158.85,127.76 L 157.06,127.98 L 156.13,127.98 L 154.43,128.13 L 153.05,128.35 L 152.29,128.51 L 149.16,129.27 L 147.79,129.75 L 142.81,131.50 L 143.26,135.56 L 144.06,139.69 L 144.91,142.01 L 145.52,143.01 L 146.88,144.92 L 147.79,145.76 L 149.28,147.00 L 147.77,145.86 L 147.30,145.47 L 146.57,144.79 L 145.92,144.00 L 144.88,142.03 L 143.40,138.48 L 143.09,137.64 L 142.61,136.06 L 142.40,135.29 L 142.13,133.88 L 142.03,133.20 L 141.97,131.97 L 141.97,131.38 L 142.14,130.35 L 142.25,129.86 L 142.62,129.03 L 143.44,128.05 L 143.84,127.72 L 144.30,126.81 L 144.36,125.61 M 123.72,140.00 L 123.33,140.69 L 123.17,141.10 L 123.02,142.27 L 122.99,142.88 L 123.12,144.06 L 123.67,145.33 L 123.95,145.62 L 124.35,145.88 L 124.53,145.96 L 124.76,145.76 L 124.85,145.59 L 124.95,144.83 L 124.99,144.38 L 125.00,143.00 L 125.00,142.17 L 124.71,140.88 L 124.62,140.61 L 124.39,140.24 L 124.00,140.00 M 175.61,144.41 L 175.25,144.73 L 176.09,143.76 M 179.56,136.07 L 179.27,137.58 L 178.14,140.47 L 177.48,141.88 L 176.47,143.25 L 176.93,142.52 L 178.10,140.44 L 178.54,139.32 L 179.32,137.04 L 179.55,135.86 L 179.90,133.49 M 103.75,128.60 L 103.13,128.93 L 101.83,130.05 L 101.24,131.02 L 101.11,131.54 L 100.94,132.59 L 101.04,133.08 L 101.35,134.02 L 101.71,134.38 L 102.53,134.90 L 103.04,134.95 L 104.13,134.90 L 104.66,134.70 L 105.68,134.20 L 106.05,133.83 L 106.69,133.00 L 106.76,132.50 L 106.72,130.35 L 106.36,129.29 L 106.03,128.97 L 105.29,128.47 L 104.80,128.46 M 179.90,131.46 L 179.97,133.00 L 179.90,133.46 L 179.92,132.26 L 179.89,131.43 M 179.58,128.38 L 179.58,128.40 L 179.57,128.35 M 144.98,122.73 L 145.04,122.61 L 145.33,122.21 M 174.47,118.99 L 175.60,120.09 L 176.26,121.07 L 174.33,118.87 M 146.17,114.74 L 145.30,115.47 L 143.76,117.06 L 143.03,117.88 L 141.96,119.36 L 142.19,118.97 L 143.90,116.75 L 144.91,115.79 L 147.06,113.93 L 147.89,113.40 M 170.56,116.15 L 172.04,116.93 L 173.17,117.89 L 171.69,116.77 L 170.37,116.11 L 169.87,115.90 M 157.31,114.32 L 154.42,115.01 L 153.06,115.59 L 151.57,116.34 L 152.21,115.90 L 153.49,115.24 L 156.50,114.44 L 158.06,114.13 L 158.42,114.12 M 166.22,114.57 L 166.36,114.63 L 166.19,114.59 L 165.37,114.43 M 176.31,56.49 L 177.06,57.07 L 177.12,57.16 L 177.24,57.90 L 177.29,58.36 L 177.39,59.75 L 177.44,60.51 L 177.53,62.46 L 177.58,63.49 L 177.66,65.89 L 177.70,67.14 L 177.76,69.91 L 177.79,71.34 L 177.85,74.38 L 177.90,77.47 L 177.95,84.08 L 177.97,87.40 L 177.97,93.88 L 177.97,95.46 L 177.94,98.46 L 177.93,99.93 L 177.89,102.64 L 177.87,103.95 L 177.82,106.28 L 177.79,107.39 L 177.71,109.24 L 177.67,110.10 L 177.58,111.38 L 177.42,112.56 L 177.28,113.07 L 177.00,113.69 L 176.83,113.93 L 176.20,113.98 L 175.81,113.93 L 174.48,113.38 L 174.09,113.20 L 173.10,112.72 L 171.29,111.81 L 169.61,110.96 L 166.34,109.85 L 165.17,109.53 L 168.19,109.98 L 170.19,110.42 L 172.25,110.58 L 173.28,110.36 L 173.43,110.12 L 173.55,109.41 L 173.63,108.45 L 173.68,107.75 L 173.76,106.21 L 173.81,105.24 L 173.90,103.18 L 173.94,101.98 L 174.03,99.48 L 174.07,98.09 L 174.15,95.22 L 174.19,93.67 L 174.33,87.19 L 174.39,83.68 L 174.60,73.68 L 174.68,70.64 L 174.73,69.25 L 174.82,66.54 L 174.87,65.33 L 174.97,63.03 L 175.02,62.05 L 175.12,60.22 L 175.17,59.50 L 175.27,58.22 L 175.31,57.81 L 175.41,57.15 L 175.46,57.07 L 175.63,56.31 M 152.34,110.97 L 152.45,110.92 L 156.12,109.70 L 156.17,109.69 M 51.45,94.00 L 51.21,94.00 L 50.92,94.77 L 50.77,95.98 L 50.73,96.84 L 50.66,98.74 L 50.65,99.86 L 50.64,102.20 L 50.66,103.46 L 50.71,104.97 L 50.70,104.88 L 50.62,103.45 L 50.55,100.77 L 50.52,99.48 L 50.56,97.29 L 50.60,96.29 L 50.78,94.89 L 50.83,94.61 L 50.97,94.23 L 51.21,94.00 L 51.45,94.00 M 45.00,63.33 L 45.00,64.62 L 44.54,68.35 L 43.79,70.21 L 43.19,70.81 L 42.15,72.19 L 42.05,72.98 L 42.34,73.38 L 42.39,73.43 L 41.93,73.08 L 41.36,72.43 L 41.28,72.30 L 41.29,72.11 L 41.63,72.00 L 41.84,72.00 L 41.82,71.65 L 41.20,70.80 L 40.69,70.29 L 40.14,69.32 L 39.93,68.87 L 39.96,68.17 L 40.04,67.86 L 40.59,67.62 L 41.95,67.97 L 42.39,68.21 L 43.01,68.41 L 43.29,68.47 L 43.69,68.23 L 43.88,68.05 L 44.17,67.26 L 44.59,65.35 L 44.79,64.28 L 44.81,62.47 L 44.77,61.95 M 162.56,61.79 L 163.54,62.22 L 163.98,62.39 L 164.61,62.39 L 164.91,62.33 L 165.44,61.84 L 165.68,61.52 L 165.35,62.05 L 164.92,62.45 L 164.65,62.48 L 164.05,62.44 L 163.61,62.27 L 162.62,61.82 L 161.91,61.45 L 161.91,61.45 M 29.05,61.97 L 28.53,61.64 L 28.00,60.43 L 28.51,61.55 M 139.24,40.76 L 140.76,40.77 L 143.43,40.79 L 144.71,40.80 L 146.94,40.84 L 148.00,40.86 L 149.82,40.92 L 150.69,40.95 L 152.17,41.02 L 152.87,41.06 L 154.05,41.15 L 154.60,41.19 L 155.53,41.30 L 156.40,41.42 L 157.60,41.71 L 158.96,42.25 L 159.83,42.69 L 160.74,43.10 L 160.69,43.09 L 160.24,42.92 L 157.84,42.45 L 155.99,42.41 L 155.24,42.54 L 154.67,42.59 L 154.01,42.63 L 153.54,42.65 L 152.52,42.68 L 151.89,42.70 L 150.53,42.73 L 149.74,42.75 L 148.07,42.79 L 147.12,42.80 L 145.16,42.84 L 144.08,42.86 L 139.46,42.92 L 136.79,42.96 L 131.22,43.02 L 128.13,43.05 L 121.76,43.11 L 118.33,43.14 L 111.32,43.19 L 107.63,43.21 L 100.15,43.25 L 96.29,43.27 L 87.67,43.30 L 82.38,43.33 L 79.95,43.35 L 75.23,43.37 L 73.08,43.39 L 68.91,43.42 L 67.01,43.44 L 63.35,43.48 L 61.69,43.50 L 58.51,43.54 L 57.08,43.56 L 54.33,43.61 L 53.11,43.64 L 50.78,43.69 L 49.75,43.72 L 47.79,43.79 L 46.95,43.82 L 45.33,43.90 L 44.64,43.94 L 43.34,44.02 L 42.79,44.07 L 41.76,44.16 L 41.34,44.21 L 39.90,44.43 L 39.47,44.56 L 38.78,44.84 L 38.62,45.00 L 38.05,45.99 L 37.71,46.96 L 37.56,47.57 L 37.04,50.26 L 36.90,51.75 L 36.71,54.75 L 36.77,56.00 L 36.86,57.19 L 36.95,57.66 L 37.17,58.50 L 37.33,58.75 L 38.06,59.26 L 37.23,59.39 L 36.60,59.48 L 35.12,60.06 L 33.23,61.19 L 32.72,61.62 L 32.62,61.66 L 32.81,61.28 L 33.23,60.00 L 33.29,59.01 L 33.33,57.96 L 33.32,57.34 L 33.27,56.03 L 33.21,55.28 L 33.03,53.08 L 32.90,51.87 L 32.84,51.38 L 32.70,50.49 L 32.63,50.16 L 32.47,49.57 L 32.38,49.38 L 32.20,49.08 L 32.10,49.03 L 31.88,48.99 L 31.76,49.07 L 31.22,49.63 L 30.88,50.26 L 29.66,51.49 L 28.60,52.00 L 28.11,52.00 L 26.78,52.62 L 26.84,52.56 L 28.27,51.80 L 28.58,51.76 L 29.29,51.33 L 29.65,51.06 L 30.45,50.23 L 30.85,49.77 L 31.68,48.60 L 32.91,46.50 L 35.55,41.50 L 95.52,41.00 L 99.01,40.97 L 105.38,40.92 L 108.48,40.90 L 114.12,40.85 L 116.85,40.83 L 121.80,40.80 L 124.19,40.79 L 128.49,40.77 L 130.57,40.76 L 134.28,40.76 L 136.07,40.76 M 43.29,58.73 L 43.70,59.22 L 44.45,60.41 L 44.67,61.32 L 44.69,61.44 L 44.29,60.32 L 44.00,59.74 L 43.12,59.04 L 41.36,58.77 L 40.85,58.85 L 40.06,58.97 L 40.12,58.93 L 42.17,58.41 M 170.55,57.42 L 167.83,59.03 L 167.32,59.45 L 167.40,59.37 L 167.80,59.01 L 168.76,58.34 L 169.75,57.71 L 171.28,57.11 M 159.43,58.14 L 159.43,58.14 L 159.42,58.31 M 24.28,56.75 L 24.05,57.78 L 24.11,58.11 L 24.16,58.24 L 24.00,58.05 L 24.00,57.45 L 24.41,56.11 L 24.67,55.43 L 25.07,54.77 M 171.71,56.94 L 172.02,56.82 L 172.63,56.62 M 170.05,42.32 L 170.58,42.51 L 170.74,42.62 L 171.00,42.86 L 171.00,43.00 L 170.97,43.49 L 170.87,43.64 L 170.60,43.85 L 170.32,43.85 L 169.65,43.78 L 169.11,43.64 L 167.88,43.28 L 167.00,43.00 L 165.68,42.55 L 165.28,42.36 L 165.33,42.30 L 165.60,42.20 L 166.00,42.17 L 166.98,42.12 L 167.75,42.10 M 51.49,79.34 L 50.52,78.47 L 47.31,76.36 L 46.36,75.92 L 46.19,75.82 L 46.60,76.03 L 47.31,76.36 L 50.52,78.47 L 51.49,79.34 L 51.89,79.77 L 52.63,80.64 L 51.89,79.78 M 169.98,39.41 L 169.22,39.23 L 168.56,39.19 L 169.20,39.22 L 169.97,39.39 L 171.33,40.47 L 171.65,40.80 L 172.21,41.64 L 172.91,43.16 L 171.34,40.49 Z" fill="rgba(243,172,206,1)"/>
<path d="M 151.00,148.17 L 149.76,147.40 L 147.79,145.76 L 146.88,144.92 L 145.52,143.01 L 144.91,142.01 L 144.06,139.69 L 143.26,135.56 L 142.81,131.50 L 147.79,129.75 L 149.16,129.27 L 152.29,128.51 L 153.05,128.35 L 154.43,128.13 L 156.13,127.98 L 157.06,127.98 L 158.85,127.76 L 159.26,127.69 L 159.94,127.52 L 160.66,127.23 L 160.81,127.13 L 160.44,126.98 L 160.15,126.91 L 159.00,126.82 L 158.35,126.78 L 156.58,126.77 L 153.41,126.85 L 152.20,126.90 L 150.15,126.93 L 149.18,126.93 L 147.63,126.84 L 146.91,126.78 L 145.83,126.54 L 145.34,126.41 L 144.70,126.02 L 144.43,125.80 L 144.21,125.23 L 144.14,124.92 L 144.31,124.14 L 144.44,123.73 L 144.98,122.73 L 146.17,120.97 L 147.06,119.75 L 149.27,117.80 L 150.44,116.91 L 153.06,115.59 L 154.42,115.01 L 157.31,114.32 L 158.77,114.05 L 161.76,113.99 L 163.26,114.03 L 166.19,114.59 L 167.64,114.94 L 170.37,116.11 L 171.69,116.77 L 174.05,118.55 L 176.99,121.90 L 177.67,122.93 L 178.67,125.15 L 179.11,126.29 L 179.64,128.65 L 179.84,129.84 L 179.92,132.26 L 179.90,133.47 L 179.55,135.86 L 179.32,137.04 L 178.54,139.32 L 178.10,140.44 L 176.93,142.52 L 176.29,143.53 L 174.73,145.33 L 171.97,147.64 L 171.19,148.15 L 169.53,149.00 L 168.69,149.40 L 166.93,150.00 L 165.15,150.54 L 161.46,150.88 L 159.61,150.93 L 156.00,150.28 L 155.11,150.05 L 153.41,149.41 L 152.58,149.06 M 101.71,134.38 L 101.35,134.02 L 101.04,133.08 L 100.94,132.59 L 101.11,131.54 L 101.24,131.02 L 101.83,130.05 L 103.13,128.93 L 103.75,128.60 L 104.80,128.46 L 105.29,128.47 L 106.03,128.97 L 106.36,129.29 L 106.72,130.35 L 106.76,132.50 L 106.69,133.00 L 106.05,133.83 L 105.68,134.20 L 104.66,134.70 L 104.13,134.90 L 103.04,134.95 L 102.53,134.90 M 54.14,123.25 L 53.62,122.22 L 52.61,119.72 L 52.38,119.11 L 52.00,117.96 L 51.60,116.50 L 51.47,115.90 L 51.25,114.16 L 51.14,113.22 L 50.97,110.97 L 50.81,108.64 L 50.66,103.46 L 50.64,102.20 L 50.65,99.86 L 50.66,98.74 L 50.73,96.84 L 50.77,95.98 L 50.92,94.77 L 51.21,94.00 L 51.45,94.00 L 52.54,94.47 L 54.51,95.60 L 55.43,96.20 L 57.50,96.91 L 58.56,97.18 L 60.79,97.23 L 61.91,97.18 L 64.16,96.57 L 67.40,94.95 L 68.38,94.27 L 69.93,92.70 L 70.26,92.31 L 70.71,91.60 L 70.99,90.72 L 71.00,90.23 L 71.49,89.27 L 72.67,88.30 L 73.13,88.12 L 74.44,87.26 L 76.32,85.68 L 76.76,85.24 L 77.30,84.40 L 77.52,84.00 L 77.65,83.25 L 77.66,82.89 L 77.43,82.26 L 77.27,81.97 L 76.71,81.49 L 76.40,81.28 L 75.57,80.98 L 75.12,80.86 L 74.06,80.78 L 73.51,80.76 L 72.27,80.93 L 70.25,81.48 L 69.91,81.61 L 69.37,82.53 L 69.00,84.41 L 69.00,84.95 L 68.85,85.73 L 68.74,86.08 L 68.23,86.57 L 67.92,86.79 L 66.88,87.11 L 64.54,87.55 L 63.29,87.73 L 61.07,87.60 L 59.99,87.44 L 58.06,86.58 L 57.11,86.06 L 55.37,84.42 L 52.88,81.04 L 52.63,80.64 L 51.89,79.77 L 51.49,79.34 L 50.52,78.47 L 47.31,76.36 L 46.60,76.03 L 45.43,75.44 L 44.87,75.16 L 43.99,74.67 L 43.58,74.43 L 42.97,73.99 L 42.70,73.78 L 42.34,73.38 L 42.05,72.98 L 42.15,72.19 L 43.19,70.81 L 43.79,70.21 L 44.54,68.35 L 45.00,64.62 L 45.00,63.33 L 44.67,61.32 L 44.45,60.41 L 43.70,59.22 L 43.29,58.73 L 42.17,58.41 L 40.12,58.93 L 39.75,59.13 L 39.14,59.37 L 38.86,59.46 L 38.39,59.49 L 37.33,58.75 L 37.17,58.50 L 36.95,57.66 L 36.86,57.19 L 36.77,56.00 L 36.71,54.75 L 36.90,51.75 L 37.04,50.26 L 37.56,47.57 L 37.71,46.96 L 38.05,45.99 L 38.62,45.00 L 38.78,44.84 L 39.47,44.56 L 39.90,44.43 L 41.34,44.21 L 41.76,44.16 L 42.79,44.07 L 43.34,44.02 L 44.64,43.94 L 45.33,43.90 L 46.95,43.82 L 47.79,43.79 L 49.75,43.72 L 50.78,43.69 L 53.11,43.64 L 54.33,43.61 L 57.08,43.56 L 58.51,43.54 L 61.69,43.50 L 63.35,43.48 L 67.01,43.44 L 68.91,43.42 L 73.08,43.39 L 75.23,43.37 L 79.95,43.35 L 82.38,43.33 L 87.67,43.30 L 96.29,43.27 L 100.15,43.25 L 107.63,43.21 L 111.32,43.19 L 118.33,43.14 L 121.76,43.11 L 128.13,43.05 L 131.22,43.02 L 136.79,42.96 L 139.46,42.92 L 144.08,42.86 L 145.16,42.84 L 147.12,42.80 L 148.07,42.79 L 149.74,42.75 L 150.53,42.73 L 151.89,42.70 L 152.52,42.68 L 153.54,42.65 L 154.01,42.63 L 154.67,42.59 L 155.24,42.54 L 155.99,42.41 L 157.84,42.45 L 160.24,42.92 L 160.69,43.09 L 161.45,43.24 L 161.81,43.27 L 162.46,43.10 L 162.79,42.98 L 163.45,42.46 L 164.58,41.24 L 164.93,40.81 L 165.68,40.15 L 166.06,39.85 L 166.85,39.46 L 167.64,39.13 L 169.22,39.23 L 169.98,39.41 L 171.34,40.49 L 172.91,43.16 L 173.25,44.15 L 173.33,45.84 L 173.27,46.64 L 172.51,48.01 L 172.02,48.66 L 170.37,49.75 L 166.85,51.16 L 165.81,51.47 L 164.11,52.23 L 163.31,52.63 L 162.04,53.62 L 161.46,54.14 L 160.56,55.41 L 159.57,57.70 L 159.43,58.14 L 159.37,58.85 L 159.37,59.19 L 159.63,59.77 L 159.81,60.05 L 160.45,60.59 L 161.91,61.45 L 162.62,61.82 L 163.61,62.27 L 164.05,62.44 L 164.65,62.48 L 164.92,62.45 L 165.35,62.05 L 166.04,60.92 L 166.20,60.63 L 166.74,60.00 L 167.05,59.68 L 167.83,59.03 L 170.55,57.42 L 171.56,56.99 L 173.15,56.44 L 173.87,56.22 L 174.86,56.06 L 175.27,56.03 L 175.64,56.27 L 175.46,57.07 L 175.41,57.15 L 175.31,57.81 L 175.27,58.22 L 175.17,59.50 L 175.12,60.22 L 175.02,62.05 L 174.97,63.03 L 174.87,65.33 L 174.82,66.54 L 174.73,69.25 L 174.68,70.64 L 174.60,73.68 L 174.39,83.68 L 174.33,87.19 L 174.19,93.67 L 174.15,95.22 L 174.07,98.09 L 174.03,99.48 L 173.94,101.98 L 173.90,103.18 L 173.81,105.24 L 173.76,106.21 L 173.68,107.75 L 173.63,108.45 L 173.55,109.41 L 173.43,110.12 L 173.28,110.36 L 172.25,110.58 L 170.19,110.42 L 168.19,109.98 L 164.72,109.46 L 163.06,109.26 L 160.12,109.22 L 158.70,109.26 L 156.12,109.70 L 152.45,110.92 L 150.94,111.59 L 148.31,113.13 L 147.06,113.93 L 144.91,115.79 L 143.90,116.75 L 142.19,118.97 L 140.05,122.75 L 138.11,127.00 L 97.08,127.00 L 56.04,127.00 L 54.14,123.25 M 162.79,69.75 L 163.06,69.05 L 163.37,68.01 L 163.49,67.54 L 163.51,66.85 L 163.47,66.53 L 163.16,66.01 L 162.32,65.25 L 161.62,64.74 L 160.20,64.19 L 159.49,64.00 L 158.17,64.08 L 157.53,64.19 L 156.42,64.87 L 155.16,66.55 L 154.75,67.45 L 154.28,68.75 L 154.11,69.32 L 154.18,70.13 L 154.29,70.50 L 154.97,71.05 L 156.75,71.84 L 157.81,72.23 L 159.30,72.66 L 159.97,72.80 L 160.87,72.68 L 161.28,72.54 L 161.89,71.76 L 162.19,71.28 M 171.00,43.00 L 171.00,42.86 L 170.74,42.62 L 170.58,42.51 L 170.05,42.32 L 167.75,42.10 L 166.98,42.12 L 166.00,42.17 L 165.60,42.20 L 165.33,42.30 L 165.28,42.36 L 165.68,42.55 L 167.00,43.00 L 167.88,43.28 L 169.11,43.64 L 169.65,43.78 L 170.32,43.85 L 170.60,43.85 L 170.87,43.64 L 170.97,43.49 M 29.75,62.25 L 29.27,62.14 L 28.51,61.55 L 28.00,60.43 L 28.00,60.03 L 27.41,59.42 L 26.00,59.00 L 25.43,59.00 L 24.67,58.81 L 24.36,58.67 L 24.11,58.11 L 24.05,57.78 L 24.28,56.75 L 25.16,54.55 L 25.48,53.85 L 26.51,52.75 L 28.11,52.00 L 28.60,52.00 L 29.66,51.49 L 30.88,50.26 L 31.22,49.63 L 31.76,49.07 L 31.88,48.99 L 32.10,49.03 L 32.20,49.08 L 32.38,49.38 L 32.47,49.57 L 32.63,50.16 L 32.70,50.49 L 32.84,51.38 L 32.90,51.87 L 33.03,53.08 L 33.21,55.28 L 33.27,56.03 L 33.32,57.34 L 33.33,57.96 L 33.29,59.01 L 33.23,60.00 L 32.81,61.28 L 32.54,61.82 L 31.66,62.30 L 31.15,62.45 Z" fill="rgba(247,229,240,1)"/>
</g>
</svg>